<svg width="54" height="54" viewBox="0 0 54 54" fill="none" xmlns="http://www.w3.org/2000/svg">
<path d="M16.6568 20.8058H6.6416V10.7905" stroke="#67CBAB" stroke-width="2.22561" stroke-linecap="round" stroke-linejoin="round"/>
<path d="M39.6902 13.7238C37.9852 12.0188 35.9611 10.6664 33.7334 9.74362C31.5057 8.82088 29.1181 8.34595 26.7068 8.34595C24.2956 8.34595 21.908 8.82088 19.6803 9.74362C17.4526 10.6664 15.4284 12.0188 13.7234 13.7238L6.6416 20.8057" stroke="#67CBAB" stroke-width="2.22561" stroke-linecap="round" stroke-linejoin="round"/>
<path d="M36.7578 32.6089H46.7731V42.6241" stroke="#67CBAB" stroke-width="2.22561" stroke-linecap="round" stroke-linejoin="round"/>
<path d="M13.7236 39.6907C15.4286 41.3957 17.4528 42.7482 19.6805 43.671C21.9082 44.5937 24.2958 45.0686 26.707 45.0686C29.1183 45.0686 31.5059 44.5937 33.7336 43.671C35.9613 42.7482 37.9854 41.3957 39.6904 39.6907L46.7723 32.6089" stroke="#67CBAB" stroke-width="2.22561" stroke-linecap="round" stroke-linejoin="round"/>
<path d="M27.1523 18.6951V21.1432" stroke="#67CBAB" stroke-width="2.22561" stroke-linecap="round" stroke-linejoin="round"/>
<path d="M27.1523 33.3842V35.8323" stroke="#67CBAB" stroke-width="2.22561" stroke-linecap="round" stroke-linejoin="round"/>
<path d="M23.4799 33.3842H28.9883C29.7999 33.3842 30.5783 33.0617 31.1522 32.4878C31.7261 31.9139 32.0485 31.1356 32.0485 30.324C32.0485 29.5123 31.7261 28.734 31.1522 28.1601C30.5783 27.5862 29.7999 27.2637 28.9883 27.2637H25.3161C24.5045 27.2637 23.7261 26.9413 23.1522 26.3674C22.5783 25.7935 22.2559 25.0151 22.2559 24.2035C22.2559 23.3919 22.5783 22.6135 23.1522 22.0396C23.7261 21.4657 24.5045 21.1433 25.3161 21.1433H30.8245" stroke="#67CBAB" stroke-width="2.22561" stroke-linecap="round" stroke-linejoin="round"/>
</svg>
