<svg width="55" height="55" viewBox="0 0 55 55" fill="none" xmlns="http://www.w3.org/2000/svg">
<path d="M27.5924 27.3889L27.3652 49.3878" stroke="black" stroke-width="2.55" stroke-linecap="round" stroke-linejoin="round"/>
<path d="M47.0502 37.5174V17.2615C47.0502 16.9584 46.9697 16.6607 46.817 16.3988C46.6642 16.137 46.4446 15.9204 46.1807 15.7713L28.2068 5.61207C27.9498 5.46683 27.6597 5.3905 27.3645 5.3905C27.0693 5.3905 26.7791 5.46683 26.5222 5.61207L8.54821 15.7713C8.28431 15.9204 8.06475 16.137 7.91198 16.3988C7.75921 16.6607 7.67871 16.9584 7.67871 17.2615V37.5174C7.67871 37.8206 7.75921 38.1183 7.91198 38.3801C8.06475 38.6419 8.28431 38.8585 8.54821 39.0077L26.5222 49.1668C26.7791 49.3121 27.0693 49.3884 27.3645 49.3884C27.6597 49.3884 27.9498 49.3121 28.2068 49.1668L46.1807 39.0077C46.4446 38.8585 46.6642 38.6419 46.817 38.3801C46.9697 38.1183 47.0502 37.8206 47.0502 37.5174V37.5174Z" stroke="black" stroke-width="2.55" stroke-linecap="round" stroke-linejoin="round"/>
<path d="M46.8162 16.3964L27.592 27.389L7.91504 16.394" stroke="black" stroke-width="2.55" stroke-linecap="round" stroke-linejoin="round"/>
<path d="M37.8788 31.7776V21.5067L18.0264 10.4138" stroke="black" stroke-width="2.55" stroke-linecap="round" stroke-linejoin="round"/>
</svg>
