<svg width="67" height="67" viewBox="0 0 67 67" fill="none" xmlns="http://www.w3.org/2000/svg">
<circle cx="33.5" cy="33.5" r="33.5" fill="#020202"/>
<path d="M27.716 39.052C28.532 41.74 30.104 43.084 32.432 43.084C33.728 43.084 34.688 42.724 35.312 42.004C35.96 41.284 36.284 40.396 36.284 39.34C36.284 37.78 35.624 36.604 34.304 35.812C33.008 34.996 31.136 34.588 28.688 34.588H25.664L26.852 22.024H36.14C38.252 22.024 39.668 21.784 40.388 21.304L39.704 25.732H30.452L29.912 30.916C33.608 30.916 36.404 31.624 38.3 33.04C40.22 34.456 41.18 36.352 41.18 38.728C41.18 41.056 40.34 42.94 38.66 44.38C36.98 45.82 34.76 46.54 32 46.54C29.936 46.54 28.148 46.12 26.636 45.28C25.124 44.416 24.128 43.312 23.648 41.968L27.716 39.052Z" fill="#F7F8FC"/>
</svg>
