<svg width="550" height="305" viewBox="0 0 550 305" fill="none" xmlns="http://www.w3.org/2000/svg">
<path d="M214.321 218.707C249.179 250.022 302.82 247.133 334.135 212.281C353.431 190.8 359.759 162.172 353.596 136.058C349.777 119.773 341.112 104.48 327.74 92.4604C292.881 61.1451 239.222 64.0154 207.907 98.874C195.875 112.264 188.887 128.445 186.824 145.042C183.526 171.676 192.852 199.417 214.321 218.707Z" fill="#677088"/>
<path opacity="0.95" d="M351.418 136.572L351.417 136.569C347.7 120.717 339.265 105.83 326.244 94.1251C292.304 63.6363 240.061 66.431 209.572 100.37L209.572 100.37C197.856 113.409 191.054 129.16 189.046 145.317L351.418 136.572ZM351.418 136.572C357.419 162.001 351.256 189.872 332.47 210.785M351.418 136.572L332.47 210.785M332.47 210.785C301.981 244.719 249.755 247.53 215.817 217.042M332.47 210.785L215.817 217.042M215.817 217.042C194.916 198.263 185.833 171.257 189.045 145.318L215.817 217.042Z" fill="white" stroke="#677088" stroke-width="4.47658"/>
<g opacity="0.3">
<path d="M200.588 109.173C201.004 109.375 201.745 109.406 202.191 109.253C202.467 109.161 202.748 109.02 203.036 108.855C203.366 108.659 204.058 107.901 204.309 107.943C204.572 107.986 204.352 108.898 204.131 109.43C203.77 110.287 203.06 111.217 202.565 111.695C201.555 112.662 200.894 112.919 200.086 112.962C199.811 112.974 198.672 112.956 198.348 113.476C198.054 113.947 198.195 114.161 198.434 114.253C198.746 114.369 199.333 114.235 199.646 114.173C199.835 114.137 200.019 114.124 200.172 114.186C200.649 114.4 200.086 115.752 200.49 116.058C200.735 116.242 201.182 116.034 201.524 115.942C202.038 115.801 202.534 115.728 203.073 115.452C203.379 115.293 203.666 115.061 203.96 114.81C204.45 114.388 205.447 113.837 206.2 113.408C206.757 113.09 207.185 112.619 206.977 111.756C206.836 111.162 206.316 111.303 205.729 111.646C204.945 112.105 204.076 112.778 203.844 112.894C203.654 112.986 203.489 113.029 203.532 112.827C203.623 112.448 204.56 111.872 204.725 111.744C205.092 111.468 205.447 111.175 205.808 110.893C206.402 110.434 207.093 109.987 207.387 109.779C207.565 109.651 207.742 109.51 207.913 109.339C208.079 109.173 208.464 108.77 208.593 108.482C208.899 107.803 208.483 107.601 208.77 106.989C209.027 106.444 209.486 106.12 209.78 105.795C210.123 105.416 210.539 105.073 210.863 104.62C211.481 103.77 211.243 103.005 211.616 102.068C211.842 101.499 212.154 101.034 212.479 100.636C212.987 100.012 213.709 99.2654 214.088 98.7758C214.315 98.4821 214.541 98.1822 214.768 97.9007C215.019 97.5825 215.263 97.1969 215.478 96.744C215.606 96.4687 215.698 96.1504 215.82 95.8873C215.967 95.5568 216.108 95.4222 216.273 95.2447C216.646 94.8469 217.222 94.137 217.387 93.1639C217.558 92.1419 216.916 92.5581 216.714 92.4051C216.365 92.148 215.937 92.301 215.471 92.5091C214.456 92.962 213.305 93.831 212.13 94.5103C210.686 95.9056 209.284 97.356 207.92 98.8676C206.751 100.165 205.643 101.499 204.572 102.852C204.884 102.992 205.368 102.931 205.527 102.937C206.31 102.95 207.326 101.836 208.207 101.267C208.605 101.01 209.768 100.079 209.957 100.459C210.245 101.052 208.966 102.185 208.691 102.417C208.403 102.662 208.226 102.864 208.121 103.109C207.877 103.684 207.436 104.486 206.971 104.327C206.677 104.229 206.402 104.051 206.108 104.088C205.833 104.125 205.71 104.271 205.625 104.528C205.459 105.049 204.817 105.991 204.548 105.508C204.388 105.226 204.297 104.786 204.021 104.718C203.801 104.663 203.519 104.749 203.317 104.669C203.275 104.651 203.244 104.626 203.207 104.602C202.155 106.003 201.145 107.423 200.19 108.874C200.294 109.002 200.435 109.1 200.588 109.173Z" fill="#677088"/>
<path d="M289.429 87.3746C289.869 86.6096 290.824 85.6427 291.424 85.1347C291.785 84.8287 292.171 84.535 292.556 84.2534C292.795 84.0821 293.033 83.9169 293.278 83.7577C293.462 83.6353 293.743 83.5803 293.89 83.4456C294.104 83.2437 294.282 82.6011 293.566 82.3318C293.462 82.289 293.364 82.2706 293.278 82.2645C292.991 82.24 292.819 82.3747 292.648 82.5093C292.207 82.8642 291.632 83.1396 291.038 83.3538C288.646 84.2106 286.895 85.6059 286.65 88.0172C286.553 88.9719 286.43 90.0795 286.534 90.5875C286.595 90.8935 286.65 91.2117 286.344 91.3402C286.149 91.4198 286.075 91.5177 286.222 91.7686C286.595 92.399 287.397 92.7294 288.015 92.9192C288.425 93.0416 288.847 93.2435 289.245 93.3169C289.821 93.4149 290.445 93.2802 290.69 92.9192C290.879 92.6376 290.414 92.1909 290.12 91.8543C290.004 91.7258 289.888 91.6095 289.772 91.4932C289.582 91.2913 289.196 90.6609 289.043 90.1224C288.952 89.798 288.909 89.4798 288.909 89.1861C288.915 88.4945 289.123 87.9009 289.429 87.3746Z" fill="#677088"/>
<path d="M251.407 87.0255C251.676 87.1908 251.939 87.4356 252.202 87.6192C252.551 87.8578 252.869 87.9925 253.194 88.1026C253.751 88.2985 254.289 88.5127 254.381 88.5739C254.436 88.6106 254.491 88.6534 254.534 88.7024C254.705 88.8921 254.613 88.8615 254.638 89.0267C254.693 89.3266 254.926 89.4551 255.256 89.5347C255.513 89.5959 255.813 89.7244 256.101 89.8284C256.566 89.9998 257.355 89.9141 257.373 89.4674C257.386 89.1981 257.306 88.8737 257.233 88.5861C257.116 88.1026 256.921 87.5824 256.921 87.1418C256.921 87.099 256.908 87.0133 256.896 86.9337C256.884 86.8175 257.104 86.6033 257.502 86.7012C257.777 86.7685 258.071 86.8726 258.236 86.9154C258.371 86.946 258.457 86.9582 258.524 86.9827C258.683 87.0378 258.738 87.2581 258.757 87.3377C258.763 87.3744 258.787 87.4172 258.855 87.4723C258.971 87.5641 259.069 87.558 259.179 87.5825C259.546 87.6681 259.981 87.7232 260.299 87.6926C260.409 87.6804 260.568 87.6375 260.709 87.5702C260.911 87.4723 260.972 86.9705 260.611 86.8542C260.256 86.7379 259.503 86.7134 258.885 86.4442C258.506 86.2789 258.138 86.0586 257.82 85.7771C257.214 85.2324 257.661 84.9815 258.065 84.8775C258.389 84.7918 258.708 84.6816 259.001 84.5409C259.479 84.3083 259.974 83.8432 260.048 83.5189C260.127 83.1945 259.846 82.8151 259.815 82.7845C259.797 82.7661 259.772 82.7478 259.748 82.7355C259.209 82.3622 258.702 82.5642 258.365 82.6804C257.863 82.8518 257.306 83.017 256.774 83.1456C256.541 83.2006 256.315 83.2986 256.058 83.3108C255.856 83.323 255.66 83.2802 255.489 83.3475C255.164 83.476 254.913 83.7269 254.699 83.9595C254.442 84.2349 254.148 84.4552 253.714 84.5409C253.487 84.5837 253.09 84.5531 253.139 84.8346C253.212 85.2447 253.812 85.4833 254.001 85.8444C254.148 86.1198 253.775 86.0953 253.5 85.9179C253.218 85.7404 253.139 85.3977 252.888 85.2385C252.637 85.0794 252.52 85.208 252.514 85.3365C252.502 85.5629 252.643 85.8628 252.178 85.6975C251.915 85.6057 251.762 85.4283 251.492 85.416C251.033 85.3977 250.17 85.9485 250.74 86.6094C250.942 86.8358 251.18 86.8848 251.407 87.0255Z" fill="#677088"/>
<path d="M261.395 124.436C260.82 123.898 259.773 123.806 259.651 122.778C259.608 122.441 259.938 122.05 259.73 121.707C259.614 121.523 259.394 121.535 259.228 121.48C259.02 121.413 258.28 121.021 258.262 120.728C258.249 120.526 256.609 120.795 256.903 121.315C257.344 122.08 256.077 122.698 256.829 123.065C256.86 123.084 256.891 123.096 256.921 123.114C256.97 123.139 256.946 123.641 257.142 124.204C257.337 124.773 258.219 124.785 258.402 125.275C258.586 125.758 259.277 125.165 259.657 125.544C260.036 125.917 260.275 126.872 259.871 127.172C259.467 127.472 259.908 128.377 259.657 128.69C259.498 128.885 259.333 129.081 259.596 129.357C259.755 129.522 260.22 129.008 260.348 129.473C260.459 129.865 259.896 130.134 260.171 130.489C260.397 130.783 260.844 130.568 261.089 130.477C262.123 130.103 263.463 129.424 263.929 128.273C264.106 127.833 264.424 126.774 263.831 126.541C263.604 126.45 263.359 126.505 263.121 126.376C262.87 126.235 262.607 125.911 262.417 125.672C262.086 125.244 261.799 124.816 261.395 124.436Z" fill="#677088"/>
<path d="M190.521 178.542C190.949 178.805 191.867 179.857 192.32 179.717C193.097 179.472 191.757 178.132 191.512 177.942C191.267 177.758 189.242 175.696 189.26 175.665C189.352 175.525 189.358 175.408 189.315 175.323C189.26 175.231 188.764 175.035 188.385 174.772C188.617 175.782 188.874 176.791 189.144 177.795C189.566 178.101 190.196 178.34 190.521 178.542Z" fill="#677088"/>
<path d="M316.944 188.486C317.085 186.516 317.085 184.404 316.767 182.33C316.705 181.932 316.632 181.522 316.534 181.13C316.375 180.482 316.051 179.79 315.861 179.643C315.757 179.564 315.647 179.496 315.524 179.362C315.451 179.282 315.377 179.178 315.298 179.08C315.206 178.964 315.114 178.848 315.01 178.78C314.833 178.658 314.343 179.019 314.362 179.613C314.374 179.986 314.453 180.396 314.49 180.677C314.68 182.177 313.676 183.162 313.248 184.398C312.648 186.124 313.333 187.611 313.688 189.178C313.915 190.2 313.774 191.705 314.362 192.507C316.283 195.139 316.834 190.059 316.944 188.486Z" fill="#677088"/>
<path d="M354.918 159.895C354.679 159.613 354.361 159.54 354.031 159.552C353.51 159.576 352.592 159.919 351.956 160.09C351.564 160.194 351.173 160.262 350.799 160.194C350.604 160.158 350.389 160.072 350.218 159.919C349.826 159.564 349.808 158.94 349.722 158.334C349.606 157.557 349.269 157.19 348.817 156.792C348.621 156.62 348.419 156.431 348.223 156.272C347.905 156.015 347.525 155.96 347.207 155.684C346.925 155.439 346.583 155.091 346.503 154.607C346.448 154.289 346.546 154.068 346.65 153.848C346.821 153.481 346.772 152.655 346.515 152.22C346.344 151.939 346.148 151.676 346.02 151.474C345.775 151.094 345.469 150.764 345.187 150.433C345.041 150.268 344.863 150.188 344.722 150.023C343.859 149.032 342.837 147.306 342.648 145.813C342.587 145.348 342.629 144.852 343.021 144.779C343.137 144.754 343.266 144.779 343.388 144.828C343.59 144.901 343.988 145.195 344.282 145.458C344.527 145.672 344.771 145.88 344.833 145.862C345.597 145.599 346.362 148.45 347.103 147.012C347.336 146.566 347.727 146.241 347.978 145.794C348.082 145.611 348.174 145.421 348.254 145.225C348.388 144.895 348.584 144.111 348.529 143.493C348.498 143.126 348.406 142.765 348.272 142.416C347.966 141.664 347.464 141.045 346.95 140.525C346.656 140.232 346.332 139.889 346.001 139.681C345.653 139.46 345.438 139.369 345.291 138.873C344.986 137.808 345.585 136.358 346.595 136.449C347.25 136.511 347.776 136.352 348.192 135.703C348.651 134.987 348.988 134.222 349.637 133.714C350.463 133.059 351.595 132.325 352.115 131.339C352.158 131.254 352.207 131.162 352.256 131.07C351.246 127.704 350.028 124.393 348.596 121.156C348.443 120.813 348.186 120.244 347.966 119.761C343.284 109.681 336.528 100.367 327.74 92.4722C323.144 88.3474 318.223 84.8163 313.064 81.8726C312.911 81.9338 312.74 81.9889 312.563 82.0379C311.785 82.2643 310.916 82.4112 310.219 82.7845C309.649 83.0905 309.344 83.6902 309.209 84.3634C309.123 84.7795 309.044 85.1467 308.762 85.4344C308.444 85.7587 308.083 85.875 307.563 85.9974C307.226 86.077 306.571 86.2055 306.84 86.7195C307.091 87.203 308.113 87.7232 308.536 88.1455C309.478 89.0879 307.722 88.5616 307.269 88.427C306.749 88.2679 306.204 88.1332 305.757 88.1699C305.476 88.1944 304.821 88.1577 304.882 88.4943C304.931 88.7758 305.372 89.1736 305.598 89.4123C305.935 89.7672 306.002 89.8957 305.727 90.061C305.439 90.2323 305.102 90.367 304.809 90.5322C304.411 90.7586 303.793 91.034 303.205 91.0096C302.434 90.9728 301.73 90.3425 301.186 89.6815C300.868 89.296 300.721 89.0573 300.237 88.8431C299.858 88.6718 299.46 88.58 299.148 88.6289C298.432 88.7391 298.505 89.4368 298.817 90.0977C299.129 90.7525 298.548 91.1197 298.915 91.7256C299.282 92.3376 299.992 92.7231 300.598 93.0842C301.112 93.3902 301.975 93.788 301.908 94.3143C301.816 95.0731 300.739 94.7733 299.98 94.5223C298.958 94.1796 297.942 93.9777 296.914 93.6289C295.99 93.3167 295.066 93.2984 294.283 93.4147C293.83 93.482 293.615 93.7818 294.27 94.198C294.576 94.3877 295.525 94.6447 295.549 95.1099C295.574 95.5688 294.552 95.7096 294.24 95.8198C293.383 96.138 292.532 96.4929 291.541 96.6031C290.813 96.6827 289.98 96.5725 289.368 96.8724C289.117 96.9948 288.818 97.1722 288.567 97.3926C288.175 97.7353 288.04 98.3595 287.997 98.5676C287.979 98.6716 287.936 98.7695 287.814 98.8613C287.722 98.9348 287.612 99.0021 287.49 99.051C287.294 99.1367 286.48 99.0204 286.284 98.3901C286.155 97.9801 286.051 97.5333 285.617 97.3803C285.176 97.2273 284.43 97.3864 284.191 97.6129C284.05 97.7475 284.007 97.9189 284.032 98.1086C284.069 98.4452 284.491 99.2836 284.576 99.9139C284.625 100.299 284.595 100.654 284.405 100.918C284.246 101.15 283.983 101.266 283.781 101.45C283.475 101.732 283.383 102.013 283.291 102.472C283.132 103.243 283.034 103.929 282.373 104.265C281.725 104.596 281.119 104.455 280.244 103.88C279.681 103.512 278.946 103.047 278.426 102.588C277.575 101.836 279.001 101.946 279.368 101.927C279.925 101.903 280.427 101.744 280.96 101.683C281.406 101.634 281.853 101.542 282.251 101.389C282.575 101.266 283.157 101.034 282.961 100.489C282.539 99.2897 279.772 98.5859 278.965 98.3473C278.573 98.231 278.187 98.1331 277.802 98.0351C277.159 97.8821 276.076 97.6496 275.378 97.515C274.925 97.4293 274.479 97.3742 274.173 97.4415C273.585 97.57 273.34 98.4574 272.386 97.4782C271.823 96.903 271.523 96.7194 270.862 96.7255C269.626 96.7377 268.365 97.1906 267.563 97.7965C267.312 97.9862 267.08 98.231 266.884 98.5064C266.566 98.9531 266.315 99.7303 266.046 99.9874C265.886 100.14 265.684 100.238 265.421 100.281C263.989 100.52 263.842 101.891 264.167 103.616C264.252 104.075 264.412 104.589 264.454 105.048C264.479 105.318 264.454 105.575 264.412 105.826C264.338 106.23 264.148 107.172 264.014 107.949C263.934 108.414 263.842 108.892 263.757 109.394C263.53 110.777 263.224 112.209 262.9 113.702C262.674 114.767 262.557 115.923 263.047 116.964C263.432 117.784 264.179 118.237 264.926 118.531C265.85 118.892 266.541 118.518 267.178 118.065C268.114 117.392 268.72 117.79 269.571 118.922C269.944 119.412 270.336 120.024 270.886 120.232C271.425 120.434 272.147 120.336 272.545 120.054C273.053 119.699 273.077 119.026 272.802 118.316C272.52 117.582 272.478 117.092 272.735 116.511C272.979 115.948 272.765 115.36 272.392 114.816C271.792 113.935 270.746 112.9 270.421 112.301C270.238 111.958 270.103 111.597 270.072 111.193C270.042 110.856 270.054 110.526 270.091 110.226C270.152 109.73 270.586 108.733 270.85 107.839C271.003 107.319 271.101 106.762 271.076 106.064C271.064 105.758 271.07 105.471 271.137 105.232C271.254 104.828 271.835 104.577 272.257 104.602C272.52 104.614 272.808 104.712 273.053 105C273.493 105.507 273.444 106.395 273.377 106.835C273.279 107.49 272.802 107.772 272.649 108.384C272.502 108.971 272.796 109.902 273.053 110.66C273.291 111.37 273.536 112.331 274.112 112.821C274.828 113.433 275.758 112.968 276.388 112.735C276.67 112.631 276.994 112.509 277.324 112.417C277.857 112.264 278.53 112.233 278.787 112.307C279.044 112.38 279.448 112.937 279.258 113.139C279.154 113.249 278.971 113.31 278.83 113.378C278.212 113.647 277.52 113.763 276.896 114.002C276.498 114.155 275.837 114.308 275.96 114.963C276.052 115.464 276.627 115.734 276.976 115.96C277.3 116.174 277.716 116.438 277.753 116.897C277.777 117.166 277.6 117.319 277.386 117.343C277.074 117.38 276.639 117.184 276.327 117.001C276.113 116.872 275.794 116.591 275.617 116.768C275.329 117.043 275.88 118.2 276.009 118.579C276.235 119.234 276.449 119.981 276.272 120.575C275.892 121.854 274.485 122.221 273.377 122.49C272.722 122.649 271.951 122.643 271.266 122.68C270.825 122.704 270.323 122.784 269.883 122.619C268.806 122.227 268.799 120.422 268.322 119.485C267.753 118.39 267.012 119.485 267.031 120.226C267.068 121.395 268.31 122.417 268.249 123.543C268.206 124.326 267.361 124.595 266.872 124.969C266.199 125.489 266.046 126.419 266.199 127.361C266.284 127.882 266.009 128.255 265.825 128.665C265.574 129.222 265.25 129.705 264.975 130.226C264.767 130.617 264.497 130.929 264.063 131.064C263.793 131.144 263.353 131.052 263.206 131.297C263.022 131.609 263.304 131.927 262.949 132.196C262.563 132.484 261.97 132.453 261.535 132.649C261.248 132.778 260.862 133.12 261.266 133.42C261.621 133.683 262.282 133.696 262.686 133.812C263.524 134.05 264.008 134.803 264.35 135.666C264.822 136.853 264.809 137.912 263.696 138.353C262.588 138.793 261.437 138.873 260.458 139.717C259.607 140.452 260.201 142.343 260.513 143.395C260.672 143.928 260.819 144.16 261.199 144.522C261.468 144.779 261.658 145.164 261.982 145.335C262.392 145.556 262.894 145.47 263.286 145.329C263.775 145.158 264.087 145.189 264.595 145.415C264.724 145.47 264.815 145.519 264.907 145.537C265.085 145.574 265.183 145.078 265.483 144.913C265.654 144.821 265.88 144.791 266.082 144.754C266.272 144.717 266.492 144.711 266.67 144.613C266.847 144.515 266.872 144.295 266.994 144.203C267.478 143.836 267.563 143.187 267.569 142.551C267.569 142.239 267.539 141.921 267.557 141.615C267.576 141.241 267.716 140.935 267.771 140.568C267.808 140.311 267.765 140.048 267.839 139.803C267.986 139.307 268.377 139.271 268.72 139.026C269.167 138.714 269.314 138.298 269.252 137.667C269.203 137.202 269.032 136.7 269.399 136.4C269.693 136.156 270.164 136.296 270.519 136.205C271.131 136.046 271.492 135.476 271.915 135.036C272.765 134.167 273.683 134.252 274.638 135.146C275.066 135.544 275.507 135.96 275.996 136.26C276.37 136.492 276.786 136.572 277.159 136.811C277.63 137.11 278.163 137.288 278.616 137.575C279.154 137.918 279.295 138.714 279.332 139.32C279.35 139.564 279.277 139.974 279.497 140.134C279.748 140.305 279.913 140.005 280.005 139.821C280.299 139.216 280.042 138.653 279.84 137.979C279.748 137.673 279.589 137.312 279.815 137.147C279.913 137.08 280.06 137.11 280.195 137.11C280.415 137.117 280.189 136.456 279.668 136.26C279.32 136.125 278.977 136.07 278.75 136.119C278.536 136.168 277.759 135.568 277.539 135.44C276.982 135.121 276.419 134.785 275.899 134.375C275.537 134.087 275.042 133.689 274.895 133.181C274.668 132.429 275.44 132.263 275.941 132.478C276.351 132.649 276.51 133.071 276.823 133.396C277.502 134.112 278.42 134.02 279.203 134.271C279.748 134.442 279.864 134.858 280.225 135.348C280.501 135.721 280.862 136.021 281.07 136.449C281.217 136.755 281.211 136.804 281.486 136.988C281.743 137.159 282.012 137.282 282.282 137.404C282.52 137.508 282.82 137.563 283.04 137.735C283.285 137.924 283.206 137.924 283.242 138.187C283.322 138.763 283.469 139.326 284.056 139.473C284.723 139.638 284.454 138.598 284.534 138.139C284.589 137.814 284.65 137.539 284.417 137.214C284.234 136.951 283.879 136.853 283.677 136.609C283.163 135.978 283.848 135.85 284.105 135.519C284.43 135.103 284.717 134.454 285.409 134.711C285.807 134.858 285.813 135.128 285.892 135.501C285.99 135.954 286.259 136.217 286.504 136.609C286.725 136.97 286.847 137.416 287.141 137.686C287.887 138.371 288.995 138.598 289.797 138.371C290.164 138.267 290.409 137.875 290.8 137.863C290.966 137.857 291.112 137.961 291.272 137.986C291.553 138.022 291.853 137.93 292.104 137.839C292.453 137.71 292.765 137.49 293.126 137.38C293.713 137.202 293.94 137.318 293.989 138.047C294.074 139.173 294.123 140.189 294.35 141.327C294.429 141.731 294.827 142.679 294.668 143.034C294.472 143.469 293.713 143.016 293.383 142.955C292.434 142.783 291.406 142.992 290.556 143.304C290.09 143.475 289.625 143.646 289.142 143.763C288.762 143.848 288.138 144.044 287.734 143.885C286.884 143.542 284.65 142.514 284.258 143.897C283.995 144.828 284.693 146.229 283.42 146.351C282.808 146.413 282.214 146.149 281.614 146.015C280.709 145.813 279.809 145.752 278.909 145.739C278.322 145.733 277.655 145.654 277.086 145.25C276.302 144.693 277.153 144.197 277.049 143.451C276.957 142.82 276.504 142.086 275.929 141.878C275.427 141.694 274.852 141.896 274.381 142.055C274.124 142.141 273.873 142.141 273.616 142.214C273.322 142.3 273.108 142.52 272.845 142.679C272.294 143.004 271.676 143.2 271.082 143.395C270.758 143.5 270.44 143.597 270.134 143.708C269.95 143.775 269.442 143.861 269.332 144.038C268.744 144.999 267.967 146.076 266.835 146.327C266.119 146.486 265.47 146.437 264.864 146.933C264.283 147.41 263.842 148.096 263.445 148.763C263.114 149.319 262.814 149.901 262.521 150.488C262.178 151.174 262.416 151.878 262.655 152.636C262.82 153.163 262.784 153.475 262.637 153.995C262.416 154.772 262.037 155.396 261.505 155.96C260.954 156.541 260.348 157.165 260.177 158.028C260.011 158.848 259.858 159.619 259.858 160.439C259.858 162.024 260.305 163.811 261.456 165.066C261.762 165.396 261.609 166.743 261.652 167.183C261.719 167.985 261.921 168.762 262.447 169.429C262.82 169.901 263.194 170.213 263.689 170.476C264.644 170.99 265.391 171.889 266.278 172.593C267.129 173.266 268.016 173.885 268.952 174.35C270.183 174.962 271.504 175.219 272.716 174.956C273.304 174.827 273.928 174.607 274.375 174.184C274.632 173.94 274.925 173.799 275.225 173.683C275.733 173.487 276.572 173.083 277 172.636C277.263 172.361 277.514 172.067 277.753 171.804C278.285 171.216 278.867 170.825 279.693 170.91C280.017 170.941 280.335 171.063 280.654 171.204C281.174 171.437 282.012 171.81 282.532 171.877C282.832 171.914 283.126 171.902 283.457 171.828C283.952 171.712 284.515 171.792 284.993 172.049C286.284 172.74 286.131 174.233 285.904 175.555C285.696 176.785 286.455 177.752 287.202 178.493C287.557 178.848 287.851 179.233 288.206 179.558C288.567 179.888 289.019 180.243 289.283 180.763C289.521 181.228 289.772 181.638 290.011 182.073C290.415 182.795 290.843 184.092 290.99 184.9C291.076 185.384 291.143 185.879 291.186 186.369C291.21 186.614 291.229 186.853 291.247 187.097C291.278 187.501 291.284 188.113 291.241 188.45C291.216 188.646 291.186 188.848 291.186 189.068C291.186 189.564 291.272 190.065 291.37 190.561C291.535 191.381 291.804 192.819 291.981 193.633C292.092 194.129 292.232 194.612 292.434 195.053C293.371 197.073 294.644 198.823 295.861 200.567C296.443 201.406 296.994 202.299 297.557 203.131C297.844 203.554 298.095 204.031 298.413 204.435C298.793 204.906 298.885 205.371 299.154 205.916C299.662 206.938 300.207 207.501 301.137 207.495C301.92 207.495 302.624 207.005 303.26 206.571C304.601 205.64 305.77 204.319 306.534 202.605C307.012 201.534 307.208 200.408 307.373 199.153C307.446 198.584 307.52 198.095 307.471 197.477C307.422 196.883 307.318 196.283 307.312 195.683C307.299 194.765 307.232 193.78 307.275 192.868C307.342 191.436 307.214 190.255 307.85 188.988C308.156 188.389 308.499 187.917 308.86 187.348C309.417 186.473 310.476 185.01 310.127 183.658C308.474 177.244 305.219 172.826 309.57 166.492C310.61 164.362 311.779 160.978 311.589 158.206C311.504 156.89 310.451 156.339 309.76 156.884C309.343 157.208 308.921 157.526 308.474 157.802C308.064 158.053 307.624 158.236 307.202 158.463C306.761 158.701 306.308 158.573 305.818 158.524C305.335 158.475 305.041 158.297 304.723 157.838C304.417 157.404 304.344 156.902 304.08 156.455C303.811 156.002 303.395 155.855 302.997 155.635C302.11 155.133 301.326 154.54 300.598 153.732C299.864 152.918 299.478 151.988 298.989 151.002C298.634 150.28 298.175 149.895 297.63 149.399C297.11 148.928 296.639 148.42 296.161 147.832C295.708 147.275 294.081 145.366 294.827 144.65C295.409 144.087 296.516 145.929 296.908 146.388C297.691 147.294 298.481 148.096 299.282 148.885C299.692 149.289 300.109 149.693 300.525 150.097C301.21 150.764 302.036 151.596 302.367 151.939C302.569 152.147 302.765 152.355 302.961 152.569C303.279 152.912 303.866 153.377 304.068 153.824C304.943 155.745 305.867 156.657 306.957 156.259C307.954 155.898 309.129 154.399 309.907 153.609C311.345 152.147 312.667 150.586 313.67 149.087C313.933 148.695 314.068 147.93 314.215 147.459C314.405 146.859 314.613 146.192 314.57 145.531C314.533 144.95 314.258 144.54 313.744 144.393C313.407 144.295 313.107 144.509 312.807 144.369C312.446 144.197 312.238 143.677 311.92 143.426C311.308 142.93 310.959 143.512 310.567 143.928C310.194 144.326 309.35 145.262 308.756 145.005C308.34 144.821 308.426 144.436 308.162 144.136C307.93 143.873 307.734 144.063 307.465 144.056C306.779 144.038 306.259 143.194 305.788 142.679C305.427 142.288 304.625 141.413 304.631 140.807C304.643 139.791 305.978 140.758 306.351 141.003C306.822 141.309 307.33 141.449 307.765 141.804C308.132 142.104 308.542 142.208 308.964 142.257C309.368 142.306 309.882 142.459 310.274 142.435C310.598 142.416 310.873 142.202 311.222 142.227C311.43 142.239 311.62 142.312 311.791 142.429C312.085 142.624 313.156 143.126 314.154 142.839C315.023 142.588 315.861 142.116 316.663 141.81C317.244 141.59 318.015 141.309 318.646 141.431C319.411 141.578 320.286 141.994 320.824 142.667C321.259 143.218 321.736 144.026 322.446 144.154C323.18 144.289 323.138 142.71 323.603 142.955C323.854 143.083 324.001 143.671 324.098 143.934C324.221 144.264 324.38 144.57 324.539 144.889C324.906 145.605 325.267 146.333 325.641 147.061C326.4 148.536 327.177 150.072 328.125 151.449C328.578 152.104 329.251 153.102 329.98 153.151C330.298 153.175 330.647 152.636 330.763 152.294C330.885 151.939 330.861 151.572 330.873 151.192C330.885 150.709 330.849 150.231 330.8 149.76C330.72 148.971 330.653 147.777 330.732 147.104C330.781 146.7 330.855 146.309 330.953 145.929C331.136 145.231 331.369 144.485 331.699 143.891C331.975 143.402 332.281 143.047 332.464 142.477C332.538 142.257 332.599 142.031 332.666 141.81C332.776 141.443 332.966 140.868 333.113 140.544C333.205 140.336 333.315 140.146 333.462 140.03C333.639 139.889 333.896 139.858 334.098 139.76C334.521 139.558 334.551 139.161 334.863 138.842C335.133 138.567 335.622 138.738 335.922 138.934C336.785 139.497 337.134 140.703 337.525 141.694C337.715 142.184 337.942 142.82 338.437 142.735C338.908 142.661 339.135 142.269 339.625 142.563C340.139 142.869 340.396 143.677 340.781 144.191C341.142 144.668 341.681 144.785 341.919 145.397C342.079 145.788 341.932 145.905 341.858 146.26C341.779 146.639 341.932 146.816 342.121 147.116C342.342 147.471 342.446 147.771 342.464 148.212C342.476 148.567 342.36 148.965 342.495 149.307C342.605 149.577 342.77 149.632 342.954 149.65C343.247 149.687 343.676 150.011 343.866 150.366C343.988 150.599 344.104 150.849 344.19 151.021C344.331 151.296 344.447 151.578 344.624 151.78C344.692 151.853 344.753 151.908 344.814 151.969C344.918 152.073 345.132 152.453 345.194 152.826C345.23 153.065 345.218 153.297 345.071 153.42C344.943 153.53 344.728 153.487 344.508 153.408C344.196 153.291 343.713 153.102 343.431 153.022C343.254 152.973 343.076 152.942 342.917 152.973C342.054 153.144 343.535 154.895 343.829 155.158C344.074 155.372 344.337 155.525 344.582 155.745C344.863 155.996 344.943 156.235 345.12 156.59C345.457 157.245 346.02 157.832 346.442 158.346C346.889 158.891 347.36 159.393 347.868 159.76C348.125 159.95 348.394 160.103 348.664 160.219C348.743 160.256 349.484 160.409 349.49 160.439C350.028 162.906 351.65 160.837 352.703 161.345C353.547 161.835 354.306 161.363 355.095 161.063C355.316 160.978 355.524 160.88 355.701 160.77C355.714 160.543 355.72 160.323 355.732 160.097C355.426 160.121 355.108 160.115 354.918 159.895ZM294.46 131.896C293.75 132.055 292.942 131.964 292.134 131.921C291.033 131.86 289.546 132.68 288.616 133.169C288.12 133.426 287.606 133.616 287.147 133.616C286.057 133.61 286.021 131.15 286.137 129.944C286.204 129.228 286.296 128.555 286.553 128.108C287.11 127.16 288.952 127.686 288.769 128.035C288.591 128.383 289.038 128.567 289.179 128.842C289.319 129.118 289.687 129.308 289.895 128.965C290.103 128.622 289.405 127.423 290.17 126.688C290.262 126.603 290.366 126.517 290.47 126.431C291.302 125.789 291.926 126.18 292.116 127.423C292.165 127.741 292.245 128.029 292.385 128.279C293.028 129.418 294.289 129.222 294.338 129.357C294.387 129.491 294.895 129.528 295.384 129.871C295.886 130.219 295.507 131.664 294.46 131.896ZM306.32 132.539C306.381 133.506 305.372 134.001 304.209 133.787C303.107 133.585 302.502 131.909 302.208 130.819C301.914 129.73 299.913 129.185 299.38 128.016C298.432 125.936 299.79 123.763 301.161 123.5C302.214 123.298 301.945 125.011 301.73 126.162C301.651 126.56 301.914 126.835 302.385 127.196C303.371 127.961 304.399 128.139 304.968 128.457C305.537 128.775 305.145 129.467 304.643 129.797C304.136 130.122 306.241 131.315 306.32 132.539Z" fill="#677088"/>
<path d="M254.222 210.64C254.375 209.832 255.299 208.823 256.027 208.26C256.596 207.813 257.019 207.678 257.245 206.766C257.496 205.744 257.166 204.227 256.847 203.59C256.529 202.954 256.639 202.201 256.413 201.736C256.186 201.277 255.317 199.973 255.066 198.639C254.681 196.595 256.125 194.863 255.776 192.709C255.562 191.363 253.867 190.475 252.808 190.292C251.749 190.114 250.213 188.725 249.142 189.031C249.026 189.062 248.91 189.098 248.794 189.135C247.723 189.441 245.758 188.468 244.571 188.352C244.302 188.327 244.032 188.321 243.769 188.327C242.613 188.358 241.009 187.397 240.116 186.326C239.283 185.329 238.353 184.429 237.349 184.184C235.997 183.854 234.681 185.249 233.335 184.258C232.668 183.768 232.203 183.493 231.45 183.266C230.783 183.064 230.097 182.893 229.485 182.434C228.61 181.779 228.225 182.556 227.386 182.422C226.903 182.342 226.683 182.158 226.175 182.293C225.52 182.471 224.883 182.721 224.216 182.832C223.672 182.917 223.408 182.697 222.888 182.483C221.707 181.999 220.306 182.972 219.92 183.976C219.73 184.472 219.792 185.139 219.596 185.592C219.198 186.51 217.674 186.265 216.75 186.045C216.095 185.892 215.367 185.586 214.761 185.09C214.063 184.515 213.623 184.435 213.402 183.511C213.243 182.844 213.145 181.957 212.515 181.51C211.983 181.13 211.297 181.271 210.814 181.375C210.385 181.461 209.884 181.791 209.412 181.669C208.966 181.553 208.378 180.928 208.378 180.42C208.378 180.047 208.696 179.735 208.794 179.411C208.849 179.233 208.898 179.043 208.868 178.835C208.849 178.737 208.647 178.358 208.653 178.327C208.843 177.501 208.562 177.128 208.109 177.061C207.307 176.95 206.267 177.954 206.34 178.915C206.414 179.882 205.098 180.892 204.039 180.726C201.958 180.408 200.129 177.165 200.08 174.649C200.055 173.499 200.82 171.706 201.75 171.314C202.503 171.002 203.421 171.1 204.333 170.929C204.718 170.892 204.633 170.635 204.559 170.378C204.437 169.955 205.275 169.754 205.869 169.558C206.469 169.362 207.895 169.239 208.776 170.017C209.149 170.347 209.474 170.818 209.828 171.314C210.52 172.281 212.13 172.514 211.536 171.43C211.163 170.751 210.551 169.931 210.116 169.16C209.51 168.089 209.975 166.333 210.557 165.531C210.906 165.041 211.303 164.595 211.585 164.062C211.799 163.664 212.123 163.04 212.019 162.495C211.897 161.859 211.322 161.4 211.187 160.696C211.089 160.176 211.065 159.766 211.169 159.246C211.328 158.45 211.756 157.642 212.258 157.147C212.76 156.645 213.831 156.467 213.941 155.555C214.057 154.619 213.917 154.13 214.412 153.291C214.706 152.795 215.116 152.336 215.551 151.933C216.248 151.284 216.199 152.851 217.16 152.465C217.784 152.214 218.8 151.284 219.602 150.335C220.355 149.448 220.465 148.248 220.085 147.973C219.7 147.698 219.357 149.797 218.353 149.84C218.249 149.846 218.139 149.833 218.035 149.815C217.044 149.619 216.811 148.083 216.652 148.15C216.493 148.224 216.438 147.967 216.64 147.802C216.842 147.636 216.732 145.947 215.863 146.584C215.716 146.688 215.569 146.822 215.41 146.963C214.59 147.704 214.284 146.969 215.098 146.223C216.383 145.029 218.109 144.405 219.675 143.542C220.618 143.022 221.107 143.463 220.807 144.723C220.514 145.941 220.385 146.798 221.156 146.755C222.184 146.694 223.255 145.935 223.372 146.315C223.445 146.565 223.525 146.792 223.794 146.461C224.198 145.953 224.951 146.663 225.22 145.911C225.336 145.476 225.122 145.146 224.859 144.852C224.455 144.399 223.88 143.536 223.286 143.665C222.692 143.793 222.184 142.324 222.203 141.015C222.203 140.874 222.203 140.739 222.203 140.611C222.166 139.301 220.428 138.701 219.522 138.236C216.86 136.865 217.656 136.541 215.973 134.099C215.349 133.194 214.51 133.591 213.91 134.668C213.592 135.244 213.237 135.69 212.895 135.727C212.001 135.837 211.952 133.071 211.316 132.955C210.967 132.888 210.532 132.943 210.245 132.459C209.761 131.59 208.776 131.498 207.913 131.902C207.111 132.276 206.567 134.056 206.824 134.981C207.081 135.899 206.56 137.545 207.013 138.12C207.466 138.701 208.262 140.262 207.797 141.419C207.515 142.11 207.032 142.716 206.818 143.408C206.438 144.619 207.576 146.076 207.313 146.773C207.166 147.159 206.854 147.41 206.469 147.3C205.979 147.153 205.171 146.572 204.939 145.923C204.431 144.497 204.81 143.481 203.494 143.475C201.811 143.469 199.951 143.157 198.439 142.49C197.699 142.159 197.644 141.492 197.301 140.696C196.965 139.907 196.181 139.84 196.891 138.438C197.332 137.557 198.127 136.81 198.274 135.623C198.415 134.515 197.442 134.632 197.889 133.622C198.342 132.6 199.847 132.582 200.465 132.11C200.741 131.902 201.059 131.657 201.151 131.15C201.304 130.317 200.71 130.434 200.508 130.091C200.441 129.981 200.649 129.852 200.863 129.754C201.095 129.644 201.475 129.528 201.683 129.289C201.811 129.142 201.928 128.946 201.989 128.732C202.062 128.5 202.007 128.341 202.117 128.108C202.222 127.888 202.43 127.747 202.564 127.667C202.974 127.416 203.213 127.416 203.623 126.933C204.064 126.413 204.572 125.942 204.78 125.054C204.871 124.662 204.945 123.8 204.816 123.555C204.688 123.31 204.363 123.426 204.314 123.004C204.137 121.633 205.563 121.26 206.016 121.046C206.701 120.715 207.503 120.299 207.546 121.7C207.564 122.319 207.705 123.781 208.305 122.808C208.647 122.257 208.764 122 209.119 122.337C209.369 122.582 209.712 122.802 209.688 123.451C209.663 124.13 209.406 124.393 209.155 124.669C208.721 125.158 208.543 127.214 207.748 127.569C207.619 127.624 207.485 127.68 207.362 127.741C206.567 128.12 206.989 130.079 207.729 129.497C208.47 128.916 209.522 129.216 210.226 129.766C211.212 130.538 212.619 131.29 213.207 131.137C214.082 130.911 213.133 129.136 213.525 128.867C213.764 128.708 214.002 128.542 214.253 128.487C214.394 128.457 214.247 127.3 214.216 127.184C214.112 126.817 213.904 126.517 213.696 126.345C213.231 125.966 212.668 126.052 212.319 125.342C211.928 124.546 212.619 123.598 213.127 123.781C213.372 123.867 213.562 124.179 213.757 124.485C214.07 124.968 214.584 125.158 214.767 125.011C214.883 124.913 214.994 124.779 215.067 124.638C215.269 124.24 215.177 123.824 215.324 123.426C215.557 122.778 216.089 122.82 216.322 122.202C216.573 121.523 216.175 121.278 215.887 121.15C215.122 120.801 214.314 120.691 213.586 120.379C213.439 120.317 213.292 120.287 213.164 120.213C212.943 120.091 212.76 119.442 212.748 118.928C212.742 118.616 212.735 118.304 212.674 118.047C212.57 117.606 212.246 117.441 212.013 117.27C211.72 117.049 211.401 116.866 211.077 116.731C210.545 116.517 209.418 116.719 208.911 116.156C208.415 115.605 207.98 114.81 207.405 114.993C207.338 115.018 207.16 115.281 207.068 115.348C206.928 115.446 206.799 115.47 206.677 115.464C206.42 115.458 206.23 115.269 205.991 115.207C205.557 115.091 205.043 115.146 204.48 115.697C204.266 115.905 204.076 116.089 203.886 116.235C203.556 116.486 203.035 116.603 202.687 116.762C202.338 116.921 201.646 117.686 201.193 118.322C200.9 118.732 200.636 119.191 200.496 119.632C200.263 120.385 200.196 121.511 200.649 121.529C201.151 121.547 201.811 121.137 202.344 121.058C202.815 120.984 203.953 120.672 203.745 121.921C203.586 122.869 202.589 122.833 202.68 123.897C202.711 124.246 202.895 124.503 202.778 124.975C202.693 125.317 202.417 125.789 202.24 126.058C202.075 126.315 201.842 126.676 201.652 126.872C201.352 127.184 200.863 127.19 200.82 126.676C200.783 126.26 201.108 125.856 201.126 125.415C201.138 124.993 200.906 124.92 200.685 124.858C200.569 124.822 200.435 124.834 200.306 124.84C200.092 124.846 199.749 124.711 199.578 124.516C199.468 124.393 199.37 124.252 199.29 124.106C199.149 123.849 198.941 123.622 198.782 123.341C198.525 122.888 198.623 121.872 198.837 121.535C198.954 121.358 199.088 121.186 199.235 120.948C199.504 120.513 199.78 119.871 199.969 119.375C200.41 118.206 200.373 117.19 199.633 117.429C198.862 117.686 197.931 118.824 197.656 120.177C197.497 120.948 197.528 121.694 197.215 122.508C196.946 123.212 196.499 123.787 196.261 124.485C196.022 125.189 196.169 125.678 196.034 126.333C195.906 126.957 195.765 126.86 195.471 127.147C194.81 127.784 195.153 129.093 194.541 129.858C194.339 130.109 194.027 130.225 193.819 130.323C193.354 130.544 192.895 130.672 192.485 130.642C192.356 130.635 192.179 130.629 192.216 130.336C192.271 129.907 192.619 129.724 192.815 129.509C193.415 128.824 193.801 127.343 193.605 126.664C193.476 126.217 193.066 126.333 192.797 126.186C192.405 125.972 192.026 125.348 192.063 124.491C191.23 126.596 190.496 128.732 189.841 130.88C190.006 130.862 190.147 130.905 190.245 131.058C190.373 131.26 190.325 131.541 190.227 131.921C190.159 132.184 190.116 132.41 190.086 132.637C190.031 133.028 189.755 134.503 189.278 134.307C189.162 134.258 189.039 134.179 188.923 134.099C187.981 137.716 187.265 141.382 186.806 145.066C185.618 154.674 186.071 164.442 188.146 173.884C188.317 173.78 188.574 173.756 188.868 173.921C189.755 174.411 190.557 176.032 191.444 176.522C192.925 177.342 194.663 178.389 195.71 179.796C196.395 180.72 197.381 182.091 198.409 182.464C200.416 183.193 202.68 183.597 204.461 183.064C206.291 182.513 208.825 185.243 210.343 183.952C210.526 183.792 211.762 185.065 211.934 185.231C212.57 185.843 213.445 186.253 214.204 186.522C215.11 186.846 215.961 186.956 216.836 187.085C218.464 187.33 220.471 187.825 220.618 190.182C220.71 191.608 220.379 193.046 220.287 194.465C220.189 195.959 220.238 197.427 221.26 198.651C222.246 199.826 223.623 200.561 224.626 201.718C225.679 202.935 225.74 204.637 226.799 205.916C228.133 207.513 229.583 207.537 231.505 207.886C233.127 208.18 234.161 208.737 235.305 209.949C237.674 212.458 239.761 215.346 241.597 218.259C243.904 221.919 245.978 225.897 249.038 228.963C250.544 230.469 252.135 231.809 254.087 232.721C255.336 233.302 256.419 233.125 256.064 231.521C255.85 230.536 254.907 229.875 254.357 229.061C253.793 228.229 254.026 227.409 253.824 226.485C253.659 225.72 252.741 224.691 253.151 223.957C253.543 223.259 254.448 223.486 254.583 222.605C254.754 221.491 253.536 221.234 253.194 220.456C252.845 219.667 254.228 219.392 254.516 218.572C254.693 218.058 254.436 217.482 254.528 216.962C254.601 216.54 254.803 216.436 254.987 216.105C255.311 215.518 255.342 214.685 255.336 214.031C255.336 212.837 254.008 211.785 254.222 210.64ZM199.963 154.307C200.636 153.358 201.769 151.302 202.656 151.565C203.048 151.682 203.433 152.104 203.819 152.545C204.51 153.322 205.9 153.365 206.738 153.579C207.576 153.793 206.665 154.754 206.695 155.525C206.732 156.296 206.254 156.694 206.193 156.272C206.157 156.014 206.095 155.819 205.771 156.039C205.312 156.351 205.355 155.947 205.41 155.5C205.49 154.888 204.051 154.68 203.941 155.923C203.911 156.235 203.923 156.584 203.929 156.932C203.96 158.169 202.809 158.383 202.791 157.147C202.791 156.994 202.791 156.828 202.797 156.669C202.846 155.427 202.185 154.105 201.261 154.405C200.202 154.748 199.241 155.329 199.963 154.307Z" fill="#677088"/>
<path d="M196.065 117.392C196.31 117.808 196.83 117.288 196.91 117.068C196.989 116.848 197.412 115.562 197.038 115.134C196.855 114.926 196.604 115.03 196.353 115.25C196.102 115.722 195.857 116.193 195.612 116.664C195.68 116.927 195.912 117.123 196.065 117.392Z" fill="#677088"/>
<path d="M255.935 130.311C256.431 131.039 257.165 130.317 257.606 130.048C258.096 129.742 258.487 128.904 258.481 128.237C258.481 127.741 258.236 127.166 257.894 126.817C257.551 126.462 256.731 125.899 256.37 126.321C256.223 126.492 256.339 126.719 256.229 126.884C256.064 127.123 255.617 127.074 255.391 127.196C254.748 127.545 255.483 128.139 255.697 128.524C255.856 128.806 255.893 129.087 255.874 129.399C255.862 129.687 255.746 130.036 255.935 130.311Z" fill="#677088"/>
<path d="M274.539 138.396C274.674 137.221 272.979 134.307 272.856 135.556C272.838 135.752 272.838 135.99 272.85 136.247C272.93 137.526 274.405 139.571 274.539 138.396Z" fill="#677088"/>
<path d="M355.382 148.726C355.639 147.881 355.468 146.859 354.642 146.945C353.803 147.031 353.663 147.961 353.24 148.75C352.751 149.675 352.065 150.617 351.453 151.376C351.043 151.878 350.101 151.7 350.162 152.679C350.223 153.616 350.646 154.393 351.111 155.035C351.515 155.599 351.784 156.094 352.316 156.412C353.289 156.988 354.568 157.037 355.327 155.813C355.45 155.611 355.535 155.403 355.584 155.176C355.676 154.803 355.707 154.087 355.841 153.628C355.817 152.471 355.756 151.315 355.682 150.158C355.388 149.791 355.168 149.436 355.382 148.726Z" fill="#677088"/>
<path d="M217.203 175.335C216.395 175.494 215.654 175.396 214.816 175.164C214.063 174.956 213.176 174.699 212.57 175.182C212.117 175.543 212.913 175.941 213.323 176.1C213.629 176.216 213.935 176.296 214.247 176.376C214.761 176.504 215.489 176.816 215.881 176.914C216.101 176.969 216.315 176.975 216.566 176.883C217.435 176.565 218.188 175.764 219.277 176.186C219.534 176.284 220.012 176.663 220.281 176.547C220.299 176.541 220.311 176.529 220.33 176.522C220.587 176.333 220.385 175.825 220.183 175.586C219.387 174.656 217.998 175.182 217.203 175.335Z" fill="#677088"/>
<path d="M278.848 140.434C278.891 140.036 278.659 139.571 277.998 139.461C277.679 139.412 277.722 139.742 277.808 140.122C277.918 140.611 278.763 141.235 278.848 140.434Z" fill="#677088"/>
<path d="M269.968 139.834C270.225 139.362 270.042 138.989 268.983 139.332C268.812 139.362 268.634 139.723 268.555 140.084C268.444 140.592 269.534 140.635 269.968 139.834Z" fill="#677088"/>
<path d="M247.411 113.916C247.668 112.625 245.832 111.242 245.269 111.486C244.932 111.633 244.681 112.049 244.424 112.251C244.1 112.453 243.665 112.539 243.31 112.68C242.692 112.918 242.313 113.983 241.689 113.5C241.07 113.022 241.156 115.06 242.105 116.003C244.283 118.169 247.019 115.856 247.411 113.916Z" fill="#677088"/>
<path d="M201.946 130.697C201.769 131.884 201.922 132.9 202.467 132.998C203.011 133.096 204.076 132.031 204.89 131.553C206.059 130.874 204.884 130.556 203.819 129.925C203.121 129.509 202.124 129.509 201.946 130.697Z" fill="#677088"/>
<path d="M236.499 103.433C237.044 102.754 237.962 101.432 237.35 100.202C236.982 99.4672 236.468 99.3019 236.254 98.4329C236.168 98.0841 236.144 97.7536 236.162 97.4415C236.193 96.9152 236.474 96.242 236.585 95.7953C236.658 95.5137 236.652 95.2139 236.444 94.9018C236.089 94.3693 235.514 94.4672 235.134 94.1857C233.176 92.7353 237.086 87.8456 236.383 87.099C236.266 86.9766 236.07 86.9398 235.881 86.9337C235.624 86.9276 235.122 86.9643 234.779 87.0622C234.565 87.1234 234.369 87.2091 234.204 87.3254C233.959 87.4967 233.806 87.8089 233.659 88.1393C233.421 88.684 233.09 89.3021 232.913 89.1858C232.845 89.143 232.778 89.0083 232.607 88.8553C232.129 88.4147 232.203 88.837 231.854 89.1675C231.683 89.3327 231.003 89.5836 230.795 88.9777C230.575 88.329 231.064 87.5396 231.168 87.154C231.26 86.8052 231.401 86.5665 231.579 86.3952C231.872 86.1137 231.609 85.2814 230.948 84.9448C230.208 84.5653 229.492 84.5959 228.996 84.6143C227.68 84.6571 226.572 85.1712 225.508 86.0341C225 86.4502 224.492 86.9521 223.996 87.6436C223.366 88.5188 222.986 90.2384 222.276 91.2299C221.805 91.8908 221.346 91.848 220.875 91.8418C219.981 91.8296 218.825 91.8174 217.76 93.7879C217.099 95.0058 217.735 94.9262 217.589 95.9177C217.436 96.9335 216.34 97.0131 215.997 97.2885C215.875 97.3864 215.691 97.5578 215.526 97.7781C215.263 98.1269 215.122 99.1428 215.257 99.5528C215.318 99.7426 215.312 99.9262 214.89 100.556C214.284 101.462 213.739 102.031 213.072 102.741C212.607 103.237 212.203 103.794 212.001 104.791C211.836 105.599 212.087 105.507 212.356 105.679C212.491 105.764 212.601 105.881 212.687 106.022C212.846 106.272 213.066 107.007 213.433 107.019C213.8 107.031 214.743 106.291 215.453 105.783C216.658 104.92 217.833 104.228 218.764 105.171C219.057 105.471 219.272 105.856 219.418 106.346C219.669 107.197 219.596 108.898 219.541 109.84C219.504 110.458 219.522 111.034 219.755 111.346C220.275 112.056 221.224 111.786 221.787 112.6C222.227 113.237 222.227 114.302 222.025 115.311C221.799 116.431 221.297 116.952 220.948 117.937C220.618 118.885 221.04 119.791 221.138 120.685C221.267 121.847 221.67 122.802 222.154 123.738C222.68 124.761 223.335 125.74 224.002 126.676C224.29 127.08 224.584 127.41 224.908 127.637C225.471 128.022 226.689 127.814 227.478 127.386C227.98 127.111 228.439 126.688 228.708 126.119C229.333 124.797 228.696 123.182 228.708 121.75C228.721 120.409 229.192 119.565 229.908 118.916C230.587 118.298 231.566 117.735 232.013 116.737C232.38 115.917 232.429 114.779 232.845 114.002C233.402 112.961 234.626 112.668 235.391 112.056C235.917 111.633 236.946 110.697 236.811 109.779C236.744 109.283 236.499 109.081 236.597 108.561C236.658 108.237 236.921 107.949 237.092 107.766C237.172 107.68 237.35 107.582 237.496 107.46C237.717 107.282 237.643 106.652 237.38 106.401C237.197 106.23 237.001 106.077 236.903 105.96C236.156 105.061 235.856 104.235 236.499 103.433Z" fill="#677088"/>
<path d="M196.518 120.373C196.8 119.993 197.143 119.534 196.928 119.394C196.867 119.345 196.745 119.375 196.684 119.326C196.567 119.247 196.053 119.418 195.251 120.153C194.45 120.893 194.438 121.842 193.85 122.307C193.263 122.772 194.095 123.867 194.756 124.039C195.747 124.302 196.58 123.053 196.947 121.982C197.412 120.624 196.121 120.911 196.518 120.373Z" fill="#677088"/>
</g>
<path fill-rule="evenodd" clip-rule="evenodd" d="M292.205 0C291.235 1.61717 285.742 10.4926 282.26 16.2264C278.778 21.9599 275.731 26.8974 275.731 26.8974C275.731 26.8974 278.948 27.3437 280.846 28.1308C282.248 28.7124 284.222 30.0481 284.242 30.0239C284.261 29.9997 284.878 27.7307 285.614 24.9815C286.349 22.2324 287.711 17.1584 288.639 13.706C291.819 1.88546 292.205 0 292.205 0ZM251.708 6.53773C251.622 6.62282 251.553 21.6879 251.553 40.0157V73.3386H255.73H259.906V48.5788C260.061 41.7312 261.723 38.2262 264.107 36.3152C266.491 34.4042 268.426 33.7972 271.464 33.6563C268.591 38.6256 264.107 46.3809 264.107 46.3809H279.567L270.152 81.835C270.152 81.835 277.701 69.5107 282.357 61.9705C282.315 66.41 282.249 73.3386 282.249 73.3386H290.378L290.385 48.5788C290.385 48.5788 288.447 51.8622 286.286 55.449C286.286 55.449 283.892 59.4237 282.357 61.9705C282.357 44.1723 282.822 40.0157 278.865 36.5217C275.861 33.8697 272.404 33.6127 271.464 33.6563C272.122 32.7199 273.148 31.2586 273.148 31.2586C273.883 30.0439 274.782 28.5414 275.145 27.9195L275.731 26.8974C275.731 26.8974 272.042 26.7354 269.687 26.8974C261.898 27.4333 260.138 31.4911 260.061 31.4911C259.985 31.4911 259.922 25.8417 259.922 18.9369V6.38267H255.893C253.676 6.38267 251.793 6.45241 251.708 6.53773ZM282.822 35.2109H288.228L288.694 36.3152C288.95 36.9227 289.271 37.7857 289.409 38.2332C289.991 40.1312 290.378 43.1215 290.382 45.7565L290.385 48.5788L290.978 47.6489C291.305 47.1374 298.515 35.2109 298.515 35.2109H288.228L287.453 33.8697C286.654 32.605 284.638 30.3287 284.317 30.3287L282.822 35.2109Z" fill="#677088"/>
<path d="M135.618 145.119L123.452 209.2L109.532 196.682L89.4583 236.12L101.646 171.447L115.623 184.016L135.618 145.119Z" fill="#677088"/>
<path d="M142.332 215.048L125.281 229.721L149.728 221.397L142.332 215.048Z" fill="#3CA785"/>
<path d="M142.977 231.927L129.398 233.11L143.893 238.015L142.977 231.927Z" fill="#3CA785"/>
<path d="M130.938 213.612L120.734 227.458L124.3 213.214L130.938 213.612Z" fill="#3CA785"/>
<path d="M97.3989 281.317L36.7504 259.874L49.5129 196.965L38.9609 193.235C37.7125 192.793 37.2117 191.507 37.8481 190.367C38.4846 189.227 40.0147 188.657 41.2685 189.102L55.1814 194.022L42.419 256.931L96.5011 276.046L133.231 242.528C134.245 241.6 135.857 241.493 136.823 242.288C137.789 243.083 137.75 244.485 136.727 245.416L97.3989 281.317Z" fill="#67CBAB"/>
<path d="M84.2856 284.978C83.1182 287.069 84.0278 289.412 86.3175 290.223C88.6072 291.034 91.4051 289.995 92.5725 287.905C93.7398 285.814 92.8302 283.471 90.5405 282.66C88.2478 281.855 85.4499 282.893 84.2856 284.978Z" fill="#67CBAB"/>
<path d="M35.352 267.682C34.1846 269.773 35.0942 272.116 37.3839 272.927C39.6736 273.738 42.4715 272.699 43.6389 270.609C44.8062 268.518 43.8966 266.175 41.6069 265.364C39.3142 264.559 36.5163 265.597 35.352 267.682Z" fill="#67CBAB"/>
<path d="M82.4654 191.844C82.8817 191.844 83.2192 192.181 83.2192 192.597V195.612C83.2192 196.029 82.8817 196.366 82.4654 196.366H67.3895C66.9732 196.366 66.6357 196.029 66.6357 195.612V192.597C66.6357 192.181 66.9732 191.844 67.3895 191.844H82.4654Z" fill="#67CBAB"/>
<path opacity="0.2" d="M60.5492 243.877C54.0197 242.419 47.863 247.068 45.6009 249.574L99.971 269.648C103.28 264.249 109.057 252.777 105.692 250.08C101.485 246.71 87.3389 250.573 79.7616 251.409C72.1843 252.246 68.7111 245.7 60.5492 243.877Z" fill="#677088"/>
<path d="M76.2081 216.599C74.6101 215.001 71.1032 217.265 69.5495 218.597C68.6617 219.485 67.4188 221.26 69.5495 221.26C72.213 221.26 73.5447 223.258 76.2081 223.258C78.8716 223.258 78.2057 218.597 76.2081 216.599Z" fill="#CDD1DA"/>
<path d="M50.7047 235.118C51.6623 233.969 53.0102 233.376 53.5907 234.555C53.9076 235.199 54.8675 236.47 53.5907 236.47C51.9947 236.47 51.1967 237.907 49.6008 237.907C48.0048 237.907 49.5077 236.554 50.7047 235.118Z" fill="#CDD1DA"/>
<circle cx="60.228" cy="226.587" r="1.99758" fill="#CDD1DA"/>
<circle cx="83.615" cy="232.271" r="1.99758" transform="rotate(165 83.615 232.271)" fill="#CDD1DA"/>
<circle cx="60.6529" cy="234.152" r="1.09133" fill="#CDD1DA"/>
<circle cx="81.076" cy="225.368" r="1.33172" transform="rotate(165 81.076 225.368)" fill="#CDD1DA"/>
<circle cx="68.8837" cy="229.251" r="1.33194" fill="#CDD1DA"/>
<circle cx="75.2079" cy="231.766" r="0.665859" transform="rotate(165 75.2079 231.766)" fill="#CDD1DA"/>
<path d="M71.5469 236.575C71.5469 237.31 70.6526 237.907 69.5493 237.907C68.4461 237.907 67.5518 237.31 67.5518 236.575C67.5518 235.839 68.4461 235.909 69.5493 235.909C70.6526 235.909 71.5469 235.839 71.5469 236.575Z" fill="#CDD1DA"/>
<path d="M403.441 146.118L415.813 210.427L429.732 197.909L449.964 237.521L437.568 172.62L423.592 185.188L403.441 146.118Z" fill="#677088"/>
<path d="M471.018 197.363C471.435 197.363 471.772 197.701 471.772 198.117V201.132C471.772 201.548 471.435 201.886 471.018 201.886H455.943C455.527 201.886 455.189 201.548 455.189 201.132V198.117C455.189 197.701 455.527 197.363 455.943 197.363H471.018Z" fill="#67CBAB"/>
<path d="M465.742 207.162C465.742 207.578 465.405 207.916 464.988 207.916L461.973 207.916C461.557 207.916 461.22 207.578 461.22 207.162L461.22 192.087C461.22 191.671 461.557 191.333 461.973 191.333L464.988 191.333C465.405 191.333 465.742 191.671 465.742 192.087L465.742 207.162Z" fill="#67CBAB"/>
<path d="M397.564 221.321L414.614 235.992L390.168 227.669L397.564 221.321Z" fill="#3CA785"/>
<path d="M396.919 238.198L410.498 239.382L396.003 244.286L396.919 238.198Z" fill="#3CA785"/>
<path d="M408.958 219.884L419.162 233.729L415.595 219.487L408.958 219.884Z" fill="#3CA785"/>
<path d="M442.495 287.586L503.14 266.144L490.378 203.239L500.93 199.508C502.178 199.066 502.679 197.78 502.042 196.641C501.406 195.501 499.876 194.931 498.622 195.376L484.71 200.296L497.472 263.201L443.393 282.315L406.665 248.799C405.65 247.871 404.039 247.764 403.073 248.559C402.106 249.354 402.146 250.756 403.168 251.687L442.495 287.586Z" fill="#67CBAB"/>
<path d="M455.608 291.247C456.775 293.337 455.866 295.681 453.576 296.491C451.286 297.302 448.489 296.264 447.321 294.173C446.154 292.083 447.064 289.74 449.353 288.929C451.646 288.123 454.444 289.162 455.608 291.247Z" fill="#67CBAB"/>
<path d="M504.538 273.952C505.705 276.042 504.795 278.386 502.506 279.196C500.216 280.007 497.418 278.969 496.251 276.878C495.084 274.788 495.993 272.445 498.283 271.634C500.576 270.828 503.373 271.867 504.538 273.952Z" fill="#67CBAB"/>
<path opacity="0.2" d="M480.011 250.145C486.541 248.686 492.698 253.335 494.96 255.842L440.59 275.915C437.28 270.516 431.503 259.044 434.869 256.348C439.076 252.977 453.222 256.84 460.799 257.677C468.376 258.513 471.849 251.968 480.011 250.145Z" fill="#677088"/>
<path d="M470.328 230.924C468.73 229.326 465.223 231.59 463.67 232.922C462.782 233.81 461.539 235.585 463.67 235.585C466.333 235.585 467.665 237.583 470.328 237.583C472.992 237.583 472.326 232.922 470.328 230.924Z" fill="#CDD1DA"/>
<path d="M444.825 249.443C445.782 248.294 447.13 247.701 447.711 248.88C448.028 249.524 448.988 250.795 447.711 250.795C446.115 250.795 445.317 252.232 443.721 252.232C442.125 252.232 443.628 250.879 444.825 249.443Z" fill="#CDD1DA"/>
<circle cx="454.348" cy="240.912" r="1.99758" fill="#CDD1DA"/>
<circle cx="477.735" cy="246.596" r="1.99758" transform="rotate(165 477.735 246.596)" fill="#CDD1DA"/>
<circle cx="454.773" cy="248.477" r="1.09133" fill="#CDD1DA"/>
<circle cx="475.196" cy="239.693" r="1.33172" transform="rotate(165 475.196 239.693)" fill="#CDD1DA"/>
<circle cx="463.004" cy="243.576" r="1.33194" fill="#CDD1DA"/>
<circle cx="469.328" cy="246.091" r="0.665859" transform="rotate(165 469.328 246.091)" fill="#CDD1DA"/>
<path d="M465.667 250.9C465.667 251.636 464.773 252.232 463.669 252.232C462.566 252.232 461.672 251.636 461.672 250.9C461.672 250.165 462.566 250.234 463.669 250.234C464.773 250.234 465.667 250.165 465.667 250.9Z" fill="#CDD1DA"/>
</svg>
