<svg width="261" height="319" viewBox="0 0 261 319" fill="none" xmlns="http://www.w3.org/2000/svg">
<path d="M129.839 258.048H121.695V317.876H129.839V258.048Z" fill="#67CBAB"/>
<path d="M135.855 294.808L135.162 291.062H116.38L115.688 294.808C115.417 296.232 114.66 297.519 113.546 298.447C112.432 299.375 111.03 299.888 109.58 299.898V311.727H142.034V299.908C140.57 299.916 139.149 299.41 138.02 298.478C136.89 297.546 136.124 296.247 135.855 294.808Z" fill="#67CBAB"/>
<path opacity="0.5" d="M135.855 294.808L135.162 291.062H116.38L115.688 294.808C115.417 296.232 114.66 297.519 113.546 298.447C112.432 299.375 111.03 299.888 109.58 299.898V311.727H142.034V299.908C140.57 299.916 139.149 299.41 138.02 298.478C136.89 297.546 136.124 296.247 135.855 294.808Z" fill="white"/>
<path d="M165.49 314.822H86.0859L94.3419 302.606C94.9364 301.727 95.7373 301.008 96.6744 300.511C97.6115 300.014 98.6562 299.755 99.717 299.755H151.889C152.95 299.755 153.995 300.014 154.932 300.511C155.869 301.008 156.67 301.727 157.265 302.606L165.49 314.822Z" fill="#67CBAB"/>
<path opacity="0.3" d="M165.49 314.822H86.0859L94.3419 302.606C94.9364 301.727 95.7373 301.008 96.6744 300.511C97.6115 300.014 98.6562 299.755 99.717 299.755H151.889C152.95 299.755 153.995 300.014 154.932 300.511C155.869 301.008 156.67 301.727 157.265 302.606L165.49 314.822Z" fill="white"/>
<path d="M68.3617 311.33H183.182C184.159 311.33 185.097 311.718 185.788 312.409C186.479 313.1 186.867 314.038 186.867 315.015V318.375H64.707V315.015C64.707 314.043 65.0911 313.11 65.7756 312.42C66.4601 311.73 67.3896 311.338 68.3617 311.33Z" fill="#67CBAB"/>
<path opacity="0.5" d="M68.3617 311.33H183.182C184.159 311.33 185.097 311.718 185.788 312.409C186.479 313.1 186.867 314.038 186.867 315.015V318.375H64.707V315.015C64.707 314.043 65.0911 313.11 65.7756 312.42C66.4601 311.73 67.3896 311.338 68.3617 311.33Z" fill="white"/>
<path d="M124.078 262.069C99.4213 262.085 75.2297 255.358 54.1211 242.615L58.3152 235.642C72.7205 244.308 88.6917 250.052 105.317 252.546C121.942 255.039 138.896 254.234 155.21 250.176C171.524 246.118 186.879 238.886 200.398 228.894C213.917 218.902 225.336 206.344 234.002 191.939C242.668 177.534 248.412 161.562 250.906 144.937C253.4 128.312 252.594 111.359 248.536 95.0446C244.478 78.7306 237.246 63.3756 227.254 49.8565C217.262 36.3373 204.704 24.9186 190.299 16.2525L194.503 9.27917C220.028 24.6263 239.815 47.921 250.832 75.5923C261.848 103.264 263.485 133.784 255.492 162.475C247.499 191.166 230.317 216.444 206.58 234.433C182.843 252.422 153.861 262.13 124.078 262.069Z" fill="#67CBAB"/>
<g opacity="0.3">
<path d="M124.078 262.069C99.4213 262.085 75.2297 255.358 54.1211 242.615L58.3152 235.642C72.7205 244.308 88.6917 250.052 105.317 252.546C121.942 255.039 138.896 254.234 155.21 250.176C171.524 246.118 186.879 238.886 200.398 228.894C213.917 218.902 225.336 206.344 234.002 191.939C242.668 177.534 248.412 161.562 250.906 144.937C253.4 128.312 252.594 111.359 248.536 95.0446C244.478 78.7306 237.246 63.3756 227.254 49.8565C217.262 36.3373 204.704 24.9186 190.299 16.2525L194.503 9.27917C220.028 24.6263 239.815 47.921 250.832 75.5923C261.848 103.264 263.485 133.784 255.492 162.475C247.499 191.166 230.317 216.444 206.58 234.433C182.843 252.422 153.861 262.13 124.078 262.069Z" fill="white"/>
</g>
<path d="M196.066 3.73703L49.9238 246.575L52.5405 248.149L198.683 5.31179L196.066 3.73703Z" fill="#67CBAB"/>
<path d="M200.946 6.67313C200.519 7.38216 199.892 7.94869 199.143 8.30106C198.394 8.65343 197.558 8.77581 196.739 8.65272C195.921 8.52964 195.158 8.16662 194.546 7.60957C193.933 7.05253 193.5 6.32648 193.301 5.52327C193.102 4.72005 193.145 3.87575 193.425 3.09715C193.706 2.31854 194.211 1.64062 194.877 1.14911C195.543 0.657604 196.339 0.374596 197.166 0.335881C197.993 0.297166 198.812 0.504483 199.521 0.931612C200.471 1.50416 201.155 2.43062 201.422 3.50729C201.69 4.58396 201.518 5.7227 200.946 6.67313Z" fill="#67CBAB"/>
<path d="M54.833 249.568C54.4062 250.277 53.7787 250.843 53.0299 251.196C52.2811 251.548 51.4445 251.671 50.6262 251.547C49.8078 251.424 49.0443 251.061 48.4322 250.504C47.8202 249.947 47.3871 249.221 47.1877 248.418C46.9883 247.615 47.0316 246.771 47.3121 245.992C47.5926 245.213 48.0977 244.535 48.7636 244.044C49.4294 243.552 50.226 243.269 51.0527 243.231C51.8794 243.192 52.699 243.399 53.4078 243.826C54.358 244.399 55.0419 245.325 55.3092 246.402C55.5764 247.479 55.4052 248.617 54.833 249.568Z" fill="#67CBAB"/>
<g opacity="0.3">
<path d="M200.946 6.67313C200.519 7.38216 199.892 7.94869 199.143 8.30106C198.394 8.65343 197.558 8.77581 196.739 8.65272C195.921 8.52964 195.158 8.16662 194.546 7.60957C193.933 7.05253 193.5 6.32648 193.301 5.52327C193.102 4.72005 193.145 3.87575 193.425 3.09715C193.706 2.31854 194.211 1.64062 194.877 1.14911C195.543 0.657604 196.339 0.374596 197.166 0.335881C197.993 0.297166 198.812 0.504483 199.521 0.931612C200.471 1.50416 201.155 2.43062 201.422 3.50729C201.69 4.58396 201.518 5.7227 200.946 6.67313Z" fill="white"/>
</g>
<g opacity="0.3">
<path d="M54.833 249.568C54.4062 250.277 53.7787 250.843 53.0299 251.196C52.2811 251.548 51.4445 251.671 50.6262 251.547C49.8078 251.424 49.0443 251.061 48.4322 250.504C47.8202 249.947 47.3871 249.221 47.1877 248.418C46.9883 247.615 47.0316 246.771 47.3121 245.992C47.5926 245.213 48.0977 244.535 48.7636 244.044C49.4294 243.552 50.226 243.269 51.0527 243.231C51.8794 243.192 52.699 243.399 53.4078 243.826C54.358 244.399 55.0419 245.325 55.3092 246.402C55.5764 247.479 55.4052 248.617 54.833 249.568Z" fill="white"/>
</g>
<path d="M13.8183 69.6058C15.6914 65.941 17.7274 62.4119 19.9263 59.0186C36.5697 33.1139 62.25 14.3225 91.9761 6.29645C121.702 -1.72958 153.35 1.5831 180.77 15.5907C181.442 15.9368 182.114 16.2829 182.806 16.6087C196.169 23.7256 208.111 33.2353 218.039 44.6648C232.828 61.722 242.688 82.4877 246.559 104.729C250.429 126.97 248.165 149.846 240.008 170.897C238.47 174.843 236.734 178.71 234.806 182.482C219.821 211.785 193.81 233.936 162.493 244.061C131.177 254.186 97.1215 251.456 67.8181 236.471C53.3085 229.052 40.4024 218.847 29.8366 206.44C19.2709 194.032 11.2524 179.665 6.23898 164.159C-3.88603 132.843 -1.15603 98.787 13.8284 69.4836L13.8183 69.6058Z" fill="#67CBAB"/>
<g opacity="0.6">
<path d="M13.8183 69.6058C15.6914 65.941 17.7274 62.4119 19.9263 59.0186C36.5697 33.1139 62.25 14.3225 91.9761 6.29645C121.702 -1.72958 153.35 1.5831 180.77 15.5907C181.442 15.9368 182.114 16.2829 182.806 16.6087C196.169 23.7256 208.111 33.2353 218.039 44.6648C232.828 61.722 242.688 82.4877 246.559 104.729C250.429 126.97 248.165 149.846 240.008 170.897C238.47 174.843 236.734 178.71 234.806 182.482C219.821 211.785 193.81 233.936 162.493 244.061C131.177 254.186 97.1215 251.456 67.8181 236.471C53.3085 229.052 40.4024 218.847 29.8366 206.44C19.2709 194.032 11.2524 179.665 6.23898 164.159C-3.88603 132.843 -1.15603 98.787 13.8284 69.4836L13.8183 69.6058Z" fill="white"/>
</g>
<path opacity="0.4" d="M49.5795 189.119C47.4111 188.244 45.1613 190.3 43.6649 192.173L36.9257 200.521C39.7965 204.267 37.0784 208.726 33.6783 210.945C16.2358 192.292 4.96729 168.716 1.40778 143.428C-2.15173 118.14 2.1708 92.3691 13.7866 69.6263C15.6597 65.9615 17.6957 62.4324 19.8946 59.0391H20.2611C23.9971 59.1816 25.0253 62.9787 26.5421 65.6052C26.8781 66.1956 31.8052 72.833 32.3549 71.988C30.5648 74.725 29.1924 77.7134 28.2829 80.8548C28.1945 81.0876 28.1945 81.3448 28.2829 81.5776C28.5578 82.0968 29.3009 81.7608 29.7692 81.3434C30.7872 80.3254 31.6932 79.0326 32.8232 78.0349C33.3516 77.5046 33.9905 77.0973 34.6943 76.8422C35.3982 76.587 36.1497 76.4903 36.8952 76.5588C38.3713 76.8235 39.5216 78.0146 40.9672 78.5236C41.8526 78.7785 42.7839 78.8322 43.6928 78.6807C44.6017 78.5293 45.4652 78.1764 46.2201 77.6481C47.6618 76.6098 48.9623 75.3881 50.0885 74.0138C49.8441 78.2793 54.8934 78.1978 55.7587 82.1579C56.0438 83.4405 56.2576 85.2118 57.5708 85.3238C58.884 85.4358 59.8409 83.7459 61.0116 84.1837C61.8362 84.4891 61.9584 85.6292 61.6733 86.4538C61.2681 87.2266 60.9734 88.0525 60.7978 88.9072C60.795 89.2113 60.8534 89.513 60.9694 89.7941C61.0854 90.0753 61.2568 90.3303 61.4733 90.5439C61.6898 90.7576 61.947 90.9256 62.2297 91.0379C62.5124 91.1502 62.8148 91.2045 63.1189 91.1977C64.2183 91.1264 65.0836 90.2713 66.0405 89.7114C66.9975 89.1515 68.4736 89.0497 68.9622 90.0372C69.0683 90.2739 69.1204 90.5312 69.1149 90.7905C69.1149 92.6636 67.3232 93.9972 65.613 94.7709C63.9027 95.5445 61.9787 96.1859 61.0116 97.8249C61.1102 98.003 61.2432 98.1598 61.4029 98.2861C61.5626 98.4124 61.7457 98.5057 61.9418 98.5607C62.1378 98.6156 62.3428 98.631 62.5449 98.6061C62.747 98.5811 62.9421 98.5163 63.1189 98.4153C63.3374 98.2299 63.585 98.082 63.8518 97.9776C64.4626 97.8452 64.8698 98.5069 65.2159 99.0465C65.9508 100.321 66.9296 101.438 68.0964 102.334C69.2632 103.23 70.5952 103.888 72.0162 104.269L77.8188 94.496C78.5925 94.8625 79.0709 95.0559 79.7632 94.4248C81.0051 98.1812 81.9417 102.019 83.5603 105.674C83.8034 106.092 83.9101 106.576 83.8657 107.058C83.7537 107.537 83.3465 107.903 83.1429 108.361C82.471 109.868 84.2322 111.273 85.7185 111.995C86.0239 112.454 85.4131 113.013 84.8633 113.013C84.324 112.931 83.78 112.883 83.2345 112.871C82.8452 113.003 82.5028 113.245 82.2495 113.569C81.9963 113.893 81.8433 114.283 81.8093 114.693C81.6003 116.106 81.9533 117.544 82.7926 118.699C83.6319 119.854 84.8907 120.635 86.2987 120.872C86.6411 120.949 86.9991 120.909 87.3167 120.76C87.9784 120.404 87.9988 119.498 88.2737 118.806C89.3629 116.067 91.8468 118.134 92.7732 119.518C94.0152 121.412 93.6589 124.507 93.0175 126.522C92.2846 128.884 86.4514 144.073 92.2744 144.582C92.8247 144.59 93.3621 144.414 93.8014 144.083C95.1757 143.136 95.9392 141.548 97.1608 140.418C98.3824 139.288 100.622 138.86 101.538 140.245C101.905 140.805 101.956 141.517 102.281 142.098C103.177 143.716 105.702 143.645 106.852 145.152C107.27 145.892 107.627 146.665 107.921 147.463C108.318 148.216 109.234 148.867 109.957 148.481C110.68 148.094 110.771 146.709 111.565 146.17C112.36 145.63 113.601 146.455 113.683 147.463C113.657 147.965 113.485 148.449 113.188 148.856C112.892 149.262 112.484 149.574 112.013 149.753C111.509 149.9 111.046 150.162 110.659 150.517C110.059 151.239 110.486 152.318 110.924 153.153C111.616 154.477 112.319 155.8 113.021 157.123C112.745 157.453 112.377 157.695 111.965 157.818C111.552 157.941 111.112 157.94 110.7 157.816C109.865 157.632 109.092 157.225 108.237 157.083C104.165 156.431 101.457 161.623 97.4051 158.223C97.6232 157.903 97.7637 157.536 97.8155 157.152C97.8672 156.768 97.8289 156.378 97.7034 156.011C97.578 155.645 97.3688 155.312 97.0926 155.041C96.8165 154.769 96.4808 154.565 96.1122 154.446C94.2188 153.988 91.8876 155.82 90.4725 154.446C89.9737 153.988 89.8006 153.255 89.2815 152.807C87.8664 151.585 85.7796 153.652 84.7717 154.477C81.4429 157.205 83.5705 158.844 81.8399 161.928C81.056 163.343 79.3661 163.964 78.3685 165.278C77.3709 166.591 77.208 168.026 76.3325 169.238C73.9809 172.587 70.3568 167.924 68.4634 166.418C68.5448 169.054 65.5519 170.642 62.9662 171.09C58.9756 171.772 59.566 171.844 57.5809 174.786C57.3391 175.189 56.9908 175.519 56.5743 175.738C56.1577 175.957 55.6889 176.057 55.2192 176.028C53.6006 175.804 52.9694 173.757 51.6053 172.872C50.9436 172.444 50.1292 172.292 49.5082 171.854C47.859 170.612 48.3884 168.077 47.9405 166.072C47.7348 165.193 47.3215 164.377 46.7352 163.692C46.1489 163.006 45.4067 162.471 44.5709 162.132C43.9577 162.987 43.4644 163.922 43.105 164.911L45.141 168.352C45.8201 169.324 46.2692 170.438 46.4542 171.61C46.4116 172.27 46.4734 172.933 46.6374 173.574C47.1261 174.786 48.6735 175.03 49.9052 175.559C52.8167 176.842 56.5019 180.995 58.7618 183.296C61.1643 185.76 61.1134 188.335 63.3021 190.646C63.3828 190.759 63.438 190.888 63.4638 191.025C63.4896 191.161 63.4854 191.301 63.4515 191.436C63.4176 191.571 63.3548 191.696 63.2675 191.804C63.1801 191.912 63.0704 192 62.9458 192.061C62.4205 192.276 61.8321 192.276 61.3068 192.061C60.0607 191.656 58.9857 190.846 58.2528 189.76C59.1996 191.175 53.6413 192.367 52.8574 192.163C51.5747 191.817 50.4753 190.127 49.3351 189.475C46.4949 187.816 44.5098 187.521 44.7745 191.674C44.8763 193.262 44.9272 195.247 43.5224 195.991C43.1879 195.658 42.7482 195.451 42.2784 195.407C41.8086 195.362 41.3379 195.482 40.9468 195.746C40.1739 196.291 39.6015 197.074 39.318 197.976C39.0431 198.553 38.9748 199.207 39.1246 199.828C39.2808 200.13 39.4037 200.447 39.4911 200.775C39.6031 201.875 38.0252 202.18 36.9359 202.058" fill="#67CBAB"/>
<path opacity="0.4" d="M211.533 113.156C210.984 112.006 209.416 111.883 208.144 112.016C206.871 112.148 205.395 112.311 204.53 111.374L206.566 107.404C206.717 107.169 206.775 106.886 206.729 106.61C206.666 106.483 206.578 106.37 206.469 106.279C206.36 106.188 206.234 106.12 206.097 106.081L203.501 104.88C202.392 105.287 203.868 107.252 203.064 108.117C202.707 108.493 202.107 108.422 201.577 108.432C197.139 108.493 197.322 113.522 197.801 116.444C198.361 119.834 196.508 123.102 194.747 126.054C194.105 127.072 193.342 128.243 192.141 128.518C190.939 128.792 189.789 128.131 188.588 127.897C186.552 127.479 184.414 128.416 182.307 128.365C174.906 128.202 174.305 119.885 178.805 115.915C181.136 113.879 181.309 114.571 182.164 111.527C182.531 110.255 183.61 109.104 182.826 107.699C182.618 107.355 182.326 107.07 181.977 106.87C181.628 106.67 181.234 106.561 180.832 106.555C180.43 106.549 180.033 106.645 179.679 106.835C179.324 107.024 179.023 107.301 178.805 107.638C177.919 109.104 176.83 110.356 176.708 112.097C175.303 110.55 173.023 109.878 171.119 108.89C170.919 109.331 170.61 109.713 170.22 109.998C169.83 110.284 169.372 110.464 168.892 110.522C168.412 110.579 167.926 110.511 167.479 110.326C167.033 110.14 166.642 109.842 166.344 109.461C166.833 108.626 167.22 107.323 166.344 106.885C166.085 106.772 165.8 106.733 165.52 106.773C164.339 106.834 163.168 107.129 161.987 107.078C160.165 106.997 156.134 104.493 154.454 106.122C154.159 106.407 153.966 106.783 153.65 107.058C153.296 107.32 152.861 107.446 152.422 107.414C151.983 107.382 151.57 107.195 151.258 106.885C150.96 106.559 150.755 106.161 150.662 105.73C150.569 105.299 150.592 104.851 150.728 104.432C150.891 103.872 151.227 103.414 151.349 102.793C152.031 99.7387 148.214 100.431 147.359 99.077C146.952 98.4255 146.901 92.6229 147.135 92.0528C146.181 92.537 145.127 92.7944 144.057 92.805C142.987 92.8156 141.929 92.5791 140.966 92.1139C138.93 90.9126 138.869 88.7545 139.459 86.4538C140.05 84.1531 141.403 81.4248 141.75 79.6026C141.933 78.5846 142.248 77.4852 143.185 77.1493C144.356 76.7217 145.791 77.8619 146.829 77.1493C147.139 76.9038 147.401 76.6036 147.603 76.2636C148.343 75.3879 149.397 74.8368 150.539 74.7283C151.68 74.6199 152.819 74.9627 153.711 75.6833C154.576 75.5917 155.075 74.6653 155.513 73.9222C155.951 73.1791 156.785 72.3748 157.549 72.721C158.312 73.0671 158.272 74.5024 157.793 75.3881C157.298 76.2894 156.685 77.1212 155.971 77.8619C155.361 78.3326 154.915 78.9849 154.699 79.7248C154.677 80.3091 154.829 80.8866 155.136 81.3841C155.679 82.6833 156.616 83.7798 157.814 84.5196C158.424 84.8617 159.139 84.9688 159.824 84.8207C160.508 84.6726 161.115 84.2795 161.529 83.7154C161.671 83.3592 161.849 83.0182 162.059 82.6974C162.69 81.9746 163.901 82.2393 164.695 82.789C165.389 83.4585 166.191 84.0058 167.067 84.4076C167.994 84.6723 169.256 83.9393 168.981 83.0231C170.315 83.2063 172.035 83.8477 171.893 85.1915C171.807 85.6144 171.645 86.018 171.414 86.3825C170.223 88.7646 171.414 93.7121 174.682 92.2767C176.85 91.3402 176.117 87.1867 179.171 87.0951C180.637 87.0951 181.879 88.4083 183.345 88.3269C183.905 88.0928 183.6 87.2274 183.141 86.8101C182.416 86.168 181.538 85.7231 180.592 85.518C179.645 85.313 178.662 85.3548 177.736 85.6394C177.736 83.9088 179.863 82.4225 179.212 80.8344C178.56 79.2463 175.751 79.2463 175.527 77.5565C175.508 77.0675 175.621 76.5825 175.853 76.1516C176.81 73.9324 179.507 70.3592 176.677 68.4352C176.309 68.2369 175.968 67.9942 175.659 67.7124C174.824 66.7657 175.598 65.3201 176.362 64.3225C177.746 64.4243 178.52 65.8902 179.314 67.0405C180.108 68.1909 181.787 69.1783 182.765 68.1909C183.467 67.4884 183.355 66.0938 184.271 65.6968C184.699 65.5135 185.218 65.6357 185.615 65.4015C186.582 64.8416 185.727 63.3655 186.002 62.2457C186.369 60.7595 188.588 60.8205 189.901 61.6349C191.214 62.4493 192.497 63.6709 193.973 63.4571C194.451 63.3757 194.899 63.1517 195.368 63.0296C196.834 62.6733 198.32 63.3452 199.674 64.0476C201.822 65.0656 201.537 53.8676 201.761 53.2873C203.501 49.0423 208.785 49.0423 212.501 47.6985C214.424 46.9206 216.252 45.9231 217.947 44.726C246.38 77.5056 255.755 124.13 241.972 165.318C241.407 167.195 240.71 169.028 239.885 170.805C237.737 168.769 234.795 164.88 231.456 165.074C227.211 165.339 227.058 171.365 222.579 170.836C221.663 170.347 222.721 168.963 222.579 167.934C222.404 167.38 222.1 166.874 221.693 166.458C221.347 165.99 221.164 165.267 221.602 164.88C221.123 163.862 219.565 164.056 218.476 164.371C217.166 164.821 215.757 164.902 214.404 164.606C211.666 163.842 210.332 160.89 208.714 158.549C207.325 156.654 205.764 154.892 204.051 153.285C204.978 153.845 206.158 152.766 206.25 151.687C206.184 150.605 205.961 149.539 205.588 148.521C205.202 146.709 206.769 145.65 206.606 143.849C206.403 141.619 204.937 139.359 205.792 137.293C206.81 134.778 210.271 134.626 212.969 134.9C213.193 131.572 210.933 128.049 212.49 125.087C213.173 123.998 214.092 123.076 215.178 122.389L221.479 117.696C222.43 117.149 223.152 116.278 223.515 115.243C223.79 114.001 222.996 112.789 222.253 111.761L219.83 108.402C219.536 107.91 219.099 107.519 218.578 107.282C217.978 107.157 217.353 107.263 216.827 107.577C213.812 109 211.445 111.509 210.2 114.601C206.608 112 203.353 108.964 200.509 105.562C199.745 108.015 197.526 110.01 197.129 112.474" fill="#67CBAB"/>
<path opacity="0.4" d="M110.965 84.1531C110.241 84.2255 109.543 84.4575 108.92 84.8325C108.297 85.2075 107.764 85.716 107.361 86.3214C106.987 87.1315 106.663 87.9645 106.394 88.8155C106.249 89.2398 105.989 89.6159 105.645 89.9031C105.3 90.1903 104.883 90.3775 104.44 90.4443C103.3 90.4443 102.546 89.3042 102.027 88.2862C101.497 87.5124 101.283 86.5659 101.426 85.6394C101.717 85.0287 102.04 84.434 102.394 83.8579C102.913 82.6159 102.292 81.2416 101.895 79.9589C101.498 78.6763 101.477 76.966 102.648 76.3247C103.422 75.8971 104.43 76.1211 105.224 75.7342C107.158 74.7977 106.242 71.5706 107.891 70.6442C109.927 69.5652 112.207 71.8556 113.306 73.4946C114.406 75.1336 114.722 77.3121 115.139 79.2158C116.33 84.6519 115.526 83.4914 110.965 84.1531Z" fill="#67CBAB"/>
<path opacity="0.4" d="M99.8587 4.45387C126.581 -1.93917 156.561 3.21192 180.779 15.5908C181.451 15.9369 182.123 16.283 182.815 16.6088C184.129 21.8515 182.286 29.5272 175.313 27.5218C174.957 28.2038 175.262 28.5398 175.313 29.3134C175.404 30.4638 173.928 31.0746 172.788 30.9728C169.022 30.647 165.296 28.611 163.626 33.0088C161.59 38.3227 165.662 36.3682 167.291 39.5341C167.467 40.0176 167.586 40.5197 167.647 41.0306C168.095 42.8732 170.04 43.8708 171.77 44.6343C171.807 44.3383 171.906 44.0532 172.059 43.7971C172.212 43.5409 172.416 43.3192 172.659 43.1461C172.902 42.9729 173.178 42.852 173.47 42.7911C173.762 42.7301 174.064 42.7303 174.356 42.7918C174.77 42.976 175.216 43.0796 175.669 43.0971C176.636 42.9546 176.687 41.4785 176.097 40.7354C175.506 39.9923 174.478 39.6461 173.765 38.9641C173.053 38.282 172.819 36.9281 173.684 36.47C174.072 36.3274 174.498 36.3274 174.885 36.47C175.714 36.6968 176.476 37.1222 177.104 37.7093C177.732 38.2963 178.207 39.0275 178.489 39.8396C178.837 39.5074 179.286 39.3021 179.765 39.257C180.244 39.2118 180.724 39.3293 181.127 39.5906C181.531 39.8519 181.835 40.2416 181.99 40.6969C182.145 41.1521 182.141 41.6463 181.981 42.0995C181.512 43.4127 179.812 44.6445 180.606 45.7847C180.183 45.4062 179.662 45.1533 179.103 45.0544C178.544 44.9555 177.968 45.0145 177.44 45.2248C173.318 46.9045 171.037 55.0179 164.939 50.3148C164.043 49.4631 163.094 48.6675 162.099 47.9326C161.592 47.5757 160.981 47.3953 160.361 47.4192C159.742 47.4431 159.147 47.67 158.669 48.065C158.322 45.2859 154.474 43.8301 154.403 41.0306C154.401 40.368 154.62 39.7237 155.026 39.1999C155.431 38.6761 156.001 38.3029 156.643 38.1395C156.864 38.1127 157.076 38.0361 157.264 37.9155C157.6 37.6203 157.467 37.0706 157.62 36.6532C157.874 35.9203 158.892 35.7676 159.34 35.1364C159.961 34.2507 159.178 33.1004 158.322 32.3369C157.467 31.5734 156.561 30.6775 156.856 29.629C156.968 29.2829 157.213 28.9775 157.315 28.611C157.382 28.2426 157.338 27.8623 157.187 27.5194C157.037 27.1764 156.787 26.8864 156.47 26.687C155.826 26.3102 155.113 26.0677 154.373 25.9744C153.741 26.1169 153.558 26.9924 153.731 27.5625C153.99 28.1451 154.201 28.7477 154.362 29.3643C154.362 29.7206 150.565 34.9735 151.074 35.0448C148.662 34.6885 144.254 32.5303 143.551 36.0628C143.297 37.3047 143.348 38.7503 142.401 39.585C144.04 39.9312 145.689 40.2875 147.318 40.6743C147.43 41.3157 146.524 41.6923 145.882 41.4989C145.241 41.3055 144.59 40.9797 143.979 41.224C143.561 41.4455 143.234 41.8054 143.052 42.242L140.762 46.1104C139.927 47.5051 138.879 49.0525 137.27 49.2459C135.438 49.4597 133.901 47.7291 133.371 45.9577C133.312 45.515 133.082 45.1131 132.73 44.8379C132.353 44.6957 131.936 44.6957 131.559 44.8379C130.541 45.1362 129.468 45.1892 128.425 44.9928C127.383 44.7964 126.403 44.3561 125.563 43.708C124.75 43.0283 124.212 42.0763 124.049 41.0293C123.886 39.9824 124.11 38.9119 124.677 38.0173C125.166 37.3658 125.93 36.6634 125.624 35.9101C125.441 35.4621 124.901 35.1466 124.963 34.6681C125.024 34.1896 125.869 34.0471 126.469 33.9453C127.004 33.8467 127.49 33.5695 127.847 33.1589C128.204 32.7484 128.411 32.2289 128.434 31.6854C128.434 31.1255 125.319 27.4301 124.545 27.4098C122.764 27.3589 121.043 31.2883 120.096 32.6626C119.952 32.9493 119.751 33.2041 119.506 33.4121C119.261 33.6201 118.978 33.7772 118.671 33.8741C117.653 34.0369 116.941 32.9477 116.747 31.9602C116.719 30.9575 116.469 29.9736 116.014 29.0793C115.629 28.6465 115.158 28.2996 114.63 28.0613C114.155 27.708 113.613 27.4539 113.038 27.314C112.463 27.1741 111.865 27.1513 111.281 27.2469C110.761 27.4098 110.314 27.7763 109.784 27.9493C109.164 28.0699 108.522 28.0157 107.931 27.7928C107.339 27.5699 106.821 27.1871 106.435 26.687C105.58 25.7606 104.969 24.651 104.032 23.7653C102.058 21.9533 98.861 21.7293 97.3137 19.4796C96.5604 18.4616 96.5807 16.5783 97.8227 16.1812C98.8407 15.8453 100.337 16.7513 101.029 15.8758C101.722 15.0004 100.103 12.4859 100.134 11.4577C100.134 10.6433 101.467 9.80855 101.355 8.22047C101.263 6.90725 99.9605 5.84853 99.8587 4.45387Z" fill="#67CBAB"/>
<path opacity="0.4" d="M153.06 232.404C154.821 232.201 156.552 232.465 157.946 230.898C159.84 228.77 159.056 227.04 156.144 226.683C155.882 226.68 155.628 226.59 155.422 226.429C154.841 225.838 155.88 225.054 156.643 224.718C157.485 224.293 158.205 223.662 158.739 222.885C159.273 222.107 159.602 221.208 159.697 220.27C159.758 219.832 166.711 223.242 167.251 224.047C169.144 226.877 164.482 231.621 168.045 232.262C169.368 230.226 170.407 227.946 171.547 225.777L174.743 227.294C173.949 226.917 176.494 223.151 176.983 222.856C178.897 221.695 181.706 224.067 183.091 220.708C184.842 216.462 177.41 211.546 175.965 216.697C173.028 216.246 170.207 215.229 167.658 213.704C167.169 214.498 166.691 215.312 166.212 216.106C165.814 216.135 165.415 216.067 165.048 215.91C164.682 215.752 164.358 215.509 164.105 215.2C164.05 213.825 164.401 212.464 165.114 211.288C165.827 210.111 166.871 209.17 168.116 208.583C167.933 206.741 169.948 205.529 171.659 204.817C169.877 201.213 173.491 196.296 177.461 196.917C181.432 197.538 183.376 203.33 180.576 206.211C182.139 207.27 183.329 208.795 183.976 210.568C185.238 208.474 187.121 206.825 189.363 205.85C191.606 204.876 194.096 204.625 196.488 205.132C198.87 205.692 201.354 207.015 203.614 206.15C204.632 205.763 205.446 204.969 206.434 204.511C208.673 203.493 211.259 204.409 213.498 205.417C214.998 206.096 216.468 206.825 217.906 207.606C198.909 229.396 172.905 243.875 144.376 248.55C143.581 248.233 142.88 247.718 142.34 247.053C141.455 245.75 141.882 243.999 142.34 242.483C144.142 236.599 146.412 233.545 152.52 232.476L153.06 232.404Z" fill="#67CBAB"/>
<path opacity="0.7" d="M49.5795 189.119C47.4111 188.244 45.1613 190.3 43.6649 192.173L36.9257 200.521C39.7965 204.267 37.0784 208.726 33.6783 210.945C16.2358 192.292 4.96729 168.716 1.40778 143.428C-2.15173 118.14 2.1708 92.3691 13.7866 69.6263C15.6597 65.9615 17.6957 62.4324 19.8946 59.0391H20.2611C23.9971 59.1816 25.0253 62.9787 26.5421 65.6052C26.8781 66.1956 31.8052 72.833 32.3549 71.988C30.5648 74.725 29.1924 77.7134 28.2829 80.8548C28.1945 81.0876 28.1945 81.3448 28.2829 81.5776C28.5578 82.0968 29.3009 81.7608 29.7692 81.3434C30.7872 80.3254 31.6932 79.0326 32.8232 78.0349C33.3516 77.5046 33.9905 77.0973 34.6943 76.8422C35.3982 76.587 36.1497 76.4903 36.8952 76.5588C38.3713 76.8235 39.5216 78.0146 40.9672 78.5236C41.8526 78.7785 42.7839 78.8322 43.6928 78.6807C44.6017 78.5293 45.4652 78.1764 46.2201 77.6481C47.6618 76.6098 48.9623 75.3881 50.0885 74.0138C49.8441 78.2793 54.8934 78.1978 55.7587 82.1579C56.0438 83.4405 56.2576 85.2118 57.5708 85.3238C58.884 85.4358 59.8409 83.7459 61.0116 84.1837C61.8362 84.4891 61.9584 85.6292 61.6733 86.4538C61.2681 87.2266 60.9734 88.0525 60.7978 88.9072C60.795 89.2113 60.8534 89.513 60.9694 89.7941C61.0854 90.0753 61.2568 90.3303 61.4733 90.5439C61.6898 90.7576 61.947 90.9256 62.2297 91.0379C62.5124 91.1502 62.8148 91.2045 63.1189 91.1977C64.2183 91.1264 65.0836 90.2713 66.0405 89.7114C66.9975 89.1515 68.4736 89.0497 68.9622 90.0372C69.0683 90.2739 69.1204 90.5312 69.1149 90.7905C69.1149 92.6636 67.3232 93.9972 65.613 94.7709C63.9027 95.5445 61.9787 96.1859 61.0116 97.8249C61.1102 98.003 61.2432 98.1598 61.4029 98.2861C61.5626 98.4124 61.7457 98.5057 61.9418 98.5607C62.1378 98.6156 62.3428 98.631 62.5449 98.6061C62.747 98.5811 62.9421 98.5163 63.1189 98.4153C63.3374 98.2299 63.585 98.082 63.8518 97.9776C64.4626 97.8452 64.8698 98.5069 65.2159 99.0465C65.9508 100.321 66.9296 101.438 68.0964 102.334C69.2632 103.23 70.5952 103.888 72.0162 104.269L77.8188 94.496C78.5925 94.8625 79.0709 95.0559 79.7632 94.4248C81.0051 98.1812 81.9417 102.019 83.5603 105.674C83.8034 106.092 83.9101 106.576 83.8657 107.058C83.7537 107.537 83.3465 107.903 83.1429 108.361C82.471 109.868 84.2322 111.273 85.7185 111.995C86.0239 112.454 85.4131 113.013 84.8633 113.013C84.324 112.931 83.78 112.883 83.2345 112.871C82.8452 113.003 82.5028 113.245 82.2495 113.569C81.9963 113.893 81.8433 114.283 81.8093 114.693C81.6003 116.106 81.9533 117.544 82.7926 118.699C83.6319 119.854 84.8907 120.635 86.2987 120.872C86.6411 120.949 86.9991 120.909 87.3167 120.76C87.9784 120.404 87.9988 119.498 88.2737 118.806C89.3629 116.067 91.8468 118.134 92.7732 119.518C94.0152 121.412 93.6589 124.507 93.0175 126.522C92.2846 128.884 86.4514 144.073 92.2744 144.582C92.8247 144.59 93.3621 144.414 93.8014 144.083C95.1757 143.136 95.9392 141.548 97.1608 140.418C98.3824 139.288 100.622 138.86 101.538 140.245C101.905 140.805 101.956 141.517 102.281 142.098C103.177 143.716 105.702 143.645 106.852 145.152C107.27 145.892 107.627 146.665 107.921 147.463C108.318 148.216 109.234 148.867 109.957 148.481C110.68 148.094 110.771 146.709 111.565 146.17C112.36 145.63 113.601 146.455 113.683 147.463C113.657 147.965 113.485 148.449 113.188 148.856C112.892 149.262 112.484 149.574 112.013 149.753C111.509 149.9 111.046 150.162 110.659 150.517C110.059 151.239 110.486 152.318 110.924 153.153C111.616 154.477 112.319 155.8 113.021 157.123C112.745 157.453 112.377 157.695 111.965 157.818C111.552 157.941 111.112 157.94 110.7 157.816C109.865 157.632 109.092 157.225 108.237 157.083C104.165 156.431 101.457 161.623 97.4051 158.223C97.6232 157.903 97.7637 157.536 97.8155 157.152C97.8672 156.768 97.8289 156.378 97.7034 156.011C97.578 155.645 97.3688 155.312 97.0926 155.041C96.8165 154.769 96.4808 154.565 96.1122 154.446C94.2188 153.988 91.8876 155.82 90.4725 154.446C89.9737 153.988 89.8006 153.255 89.2815 152.807C87.8664 151.585 85.7796 153.652 84.7717 154.477C81.4429 157.205 83.5705 158.844 81.8399 161.928C81.056 163.343 79.3661 163.964 78.3685 165.278C77.3709 166.591 77.208 168.026 76.3325 169.238C73.9809 172.587 70.3568 167.924 68.4634 166.418C68.5448 169.054 65.5519 170.642 62.9662 171.09C58.9756 171.772 59.566 171.844 57.5809 174.786C57.3391 175.189 56.9908 175.519 56.5743 175.738C56.1577 175.957 55.6889 176.057 55.2192 176.028C53.6006 175.804 52.9694 173.757 51.6053 172.872C50.9436 172.444 50.1292 172.292 49.5082 171.854C47.859 170.612 48.3884 168.077 47.9405 166.072C47.7348 165.193 47.3215 164.377 46.7352 163.692C46.1489 163.006 45.4067 162.471 44.5709 162.132C43.9577 162.987 43.4644 163.922 43.105 164.911L45.141 168.352C45.8201 169.324 46.2692 170.438 46.4542 171.61C46.4116 172.27 46.4734 172.933 46.6374 173.574C47.1261 174.786 48.6735 175.03 49.9052 175.559C52.8167 176.842 56.5019 180.995 58.7618 183.296C61.1643 185.76 61.1134 188.335 63.3021 190.646C63.3828 190.759 63.438 190.888 63.4638 191.025C63.4896 191.161 63.4854 191.301 63.4515 191.436C63.4176 191.571 63.3548 191.696 63.2675 191.804C63.1801 191.912 63.0704 192 62.9458 192.061C62.4205 192.276 61.8321 192.276 61.3068 192.061C60.0607 191.656 58.9857 190.846 58.2528 189.76C59.1996 191.175 53.6413 192.367 52.8574 192.163C51.5747 191.817 50.4753 190.127 49.3351 189.475C46.4949 187.816 44.5098 187.521 44.7745 191.674C44.8763 193.262 44.9272 195.247 43.5224 195.991C43.1879 195.658 42.7482 195.451 42.2784 195.407C41.8086 195.362 41.3379 195.482 40.9468 195.746C40.1739 196.291 39.6015 197.074 39.318 197.976C39.0431 198.553 38.9748 199.207 39.1246 199.828C39.2808 200.13 39.4037 200.447 39.4911 200.775C39.6031 201.875 38.0252 202.18 36.9359 202.058" fill="white"/>
<path opacity="0.7" d="M211.533 113.156C210.984 112.006 209.416 111.883 208.144 112.016C206.871 112.148 205.395 112.311 204.53 111.374L206.566 107.404C206.717 107.169 206.775 106.886 206.729 106.61C206.666 106.483 206.578 106.37 206.469 106.279C206.36 106.188 206.234 106.12 206.097 106.081L203.501 104.88C202.392 105.287 203.868 107.252 203.064 108.117C202.707 108.493 202.107 108.422 201.577 108.432C197.139 108.493 197.322 113.522 197.801 116.444C198.361 119.834 196.508 123.102 194.747 126.054C194.105 127.072 193.342 128.243 192.141 128.518C190.939 128.792 189.789 128.131 188.588 127.897C186.552 127.479 184.414 128.416 182.307 128.365C174.906 128.202 174.305 119.885 178.805 115.915C181.136 113.879 181.309 114.571 182.164 111.527C182.531 110.255 183.61 109.104 182.826 107.699C182.618 107.355 182.326 107.07 181.977 106.87C181.628 106.67 181.234 106.561 180.832 106.555C180.43 106.549 180.033 106.645 179.679 106.835C179.324 107.024 179.023 107.301 178.805 107.638C177.919 109.104 176.83 110.356 176.708 112.097C175.303 110.55 173.023 109.878 171.119 108.89C170.919 109.331 170.61 109.713 170.22 109.998C169.83 110.284 169.372 110.464 168.892 110.522C168.412 110.579 167.926 110.511 167.479 110.326C167.033 110.14 166.642 109.842 166.344 109.461C166.833 108.626 167.22 107.323 166.344 106.885C166.085 106.772 165.8 106.733 165.52 106.773C164.339 106.834 163.168 107.129 161.987 107.078C160.165 106.997 156.134 104.493 154.454 106.122C154.159 106.407 153.966 106.783 153.65 107.058C153.296 107.32 152.861 107.446 152.422 107.414C151.983 107.382 151.57 107.195 151.258 106.885C150.96 106.559 150.755 106.161 150.662 105.73C150.569 105.299 150.592 104.851 150.728 104.432C150.891 103.872 151.227 103.414 151.349 102.793C152.031 99.7387 148.214 100.431 147.359 99.077C146.952 98.4255 146.901 92.6229 147.135 92.0528C146.181 92.537 145.127 92.7944 144.057 92.805C142.987 92.8156 141.929 92.5791 140.966 92.1139C138.93 90.9126 138.869 88.7545 139.459 86.4538C140.05 84.1531 141.403 81.4248 141.75 79.6026C141.933 78.5846 142.248 77.4852 143.185 77.1493C144.356 76.7217 145.791 77.8619 146.829 77.1493C147.139 76.9038 147.401 76.6036 147.603 76.2636C148.343 75.3879 149.397 74.8368 150.539 74.7283C151.68 74.6199 152.819 74.9627 153.711 75.6833C154.576 75.5917 155.075 74.6653 155.513 73.9222C155.951 73.1791 156.785 72.3748 157.549 72.721C158.312 73.0671 158.272 74.5024 157.793 75.3881C157.298 76.2894 156.685 77.1212 155.971 77.8619C155.361 78.3326 154.915 78.9849 154.699 79.7248C154.677 80.3091 154.829 80.8866 155.136 81.3841C155.679 82.6833 156.616 83.7798 157.814 84.5196C158.424 84.8617 159.139 84.9688 159.824 84.8207C160.508 84.6726 161.115 84.2795 161.529 83.7154C161.671 83.3592 161.849 83.0182 162.059 82.6974C162.69 81.9746 163.901 82.2393 164.695 82.789C165.389 83.4585 166.191 84.0058 167.067 84.4076C167.994 84.6723 169.256 83.9393 168.981 83.0231C170.315 83.2063 172.035 83.8477 171.893 85.1915C171.807 85.6144 171.645 86.018 171.414 86.3825C170.223 88.7646 171.414 93.7121 174.682 92.2767C176.85 91.3402 176.117 87.1867 179.171 87.0951C180.637 87.0951 181.879 88.4083 183.345 88.3269C183.905 88.0928 183.6 87.2274 183.141 86.8101C182.416 86.168 181.538 85.7231 180.592 85.518C179.645 85.313 178.662 85.3548 177.736 85.6394C177.736 83.9088 179.863 82.4225 179.212 80.8344C178.56 79.2463 175.751 79.2463 175.527 77.5565C175.508 77.0675 175.621 76.5825 175.853 76.1516C176.81 73.9324 179.507 70.3592 176.677 68.4352C176.309 68.2369 175.968 67.9942 175.659 67.7124C174.824 66.7657 175.598 65.3201 176.362 64.3225C177.746 64.4243 178.52 65.8902 179.314 67.0405C180.108 68.1909 181.787 69.1783 182.765 68.1909C183.467 67.4884 183.355 66.0938 184.271 65.6968C184.699 65.5135 185.218 65.6357 185.615 65.4015C186.582 64.8416 185.727 63.3655 186.002 62.2457C186.369 60.7595 188.588 60.8205 189.901 61.6349C191.214 62.4493 192.497 63.6709 193.973 63.4571C194.451 63.3757 194.899 63.1517 195.368 63.0296C196.834 62.6733 198.32 63.3452 199.674 64.0476C201.822 65.0656 201.537 53.8676 201.761 53.2873C203.501 49.0423 208.785 49.0423 212.501 47.6985C214.424 46.9206 216.252 45.9231 217.947 44.726C246.38 77.5056 255.755 124.13 241.972 165.318C241.407 167.195 240.71 169.028 239.885 170.805C237.737 168.769 234.795 164.88 231.456 165.074C227.211 165.339 227.058 171.365 222.579 170.836C221.663 170.347 222.721 168.963 222.579 167.934C222.404 167.38 222.1 166.874 221.693 166.458C221.347 165.99 221.164 165.267 221.602 164.88C221.123 163.862 219.565 164.056 218.476 164.371C217.166 164.821 215.757 164.902 214.404 164.606C211.666 163.842 210.332 160.89 208.714 158.549C207.325 156.654 205.764 154.892 204.051 153.285C204.978 153.845 206.158 152.766 206.25 151.687C206.184 150.605 205.961 149.539 205.588 148.521C205.202 146.709 206.769 145.65 206.606 143.849C206.403 141.619 204.937 139.359 205.792 137.293C206.81 134.778 210.271 134.626 212.969 134.9C213.193 131.572 210.933 128.049 212.49 125.087C213.173 123.998 214.092 123.076 215.178 122.389L221.479 117.696C222.43 117.149 223.152 116.278 223.515 115.243C223.79 114.001 222.996 112.789 222.253 111.761L219.83 108.402C219.536 107.91 219.099 107.519 218.578 107.282C217.978 107.157 217.353 107.263 216.827 107.577C213.812 109 211.445 111.509 210.2 114.601C206.608 112 203.353 108.964 200.509 105.562C199.745 108.015 197.526 110.01 197.129 112.474" fill="white"/>
<path opacity="0.7" d="M110.965 84.1531C110.241 84.2255 109.543 84.4575 108.92 84.8325C108.297 85.2075 107.764 85.716 107.361 86.3214C106.987 87.1315 106.663 87.9645 106.394 88.8155C106.249 89.2398 105.989 89.6159 105.645 89.9031C105.3 90.1903 104.883 90.3775 104.44 90.4443C103.3 90.4443 102.546 89.3042 102.027 88.2862C101.497 87.5124 101.283 86.5659 101.426 85.6394C101.717 85.0287 102.04 84.434 102.394 83.8579C102.913 82.6159 102.292 81.2416 101.895 79.9589C101.498 78.6763 101.477 76.966 102.648 76.3247C103.422 75.8971 104.43 76.1211 105.224 75.7342C107.158 74.7977 106.242 71.5706 107.891 70.6442C109.927 69.5652 112.207 71.8556 113.306 73.4946C114.406 75.1336 114.722 77.3121 115.139 79.2158C116.33 84.6519 115.526 83.4914 110.965 84.1531Z" fill="white"/>
<path opacity="0.7" d="M99.8587 4.45387C126.581 -1.93917 156.561 3.21192 180.779 15.5908C181.451 15.9369 182.123 16.283 182.815 16.6088C184.129 21.8515 182.286 29.5272 175.313 27.5218C174.957 28.2038 175.262 28.5398 175.313 29.3134C175.404 30.4638 173.928 31.0746 172.788 30.9728C169.022 30.647 165.296 28.611 163.626 33.0088C161.59 38.3227 165.662 36.3682 167.291 39.5341C167.467 40.0176 167.586 40.5197 167.647 41.0306C168.095 42.8732 170.04 43.8708 171.77 44.6343C171.807 44.3383 171.906 44.0532 172.059 43.7971C172.212 43.5409 172.416 43.3192 172.659 43.1461C172.902 42.9729 173.178 42.852 173.47 42.7911C173.762 42.7301 174.064 42.7303 174.356 42.7918C174.77 42.976 175.216 43.0796 175.669 43.0971C176.636 42.9546 176.687 41.4785 176.097 40.7354C175.506 39.9923 174.478 39.6461 173.765 38.9641C173.053 38.282 172.819 36.9281 173.684 36.47C174.072 36.3274 174.498 36.3274 174.885 36.47C175.714 36.6968 176.476 37.1222 177.104 37.7093C177.732 38.2963 178.207 39.0275 178.489 39.8396C178.837 39.5074 179.286 39.3021 179.765 39.257C180.244 39.2118 180.724 39.3293 181.127 39.5906C181.531 39.8519 181.835 40.2416 181.99 40.6969C182.145 41.1521 182.141 41.6463 181.981 42.0995C181.512 43.4127 179.812 44.6445 180.606 45.7847C180.183 45.4062 179.662 45.1533 179.103 45.0544C178.544 44.9555 177.968 45.0145 177.44 45.2248C173.318 46.9045 171.037 55.0179 164.939 50.3148C164.043 49.4631 163.094 48.6675 162.099 47.9326C161.592 47.5757 160.981 47.3953 160.361 47.4192C159.742 47.4431 159.147 47.67 158.669 48.065C158.322 45.2859 154.474 43.8301 154.403 41.0306C154.401 40.368 154.62 39.7237 155.026 39.1999C155.431 38.6761 156.001 38.3029 156.643 38.1395C156.864 38.1127 157.076 38.0361 157.264 37.9155C157.6 37.6203 157.467 37.0706 157.62 36.6532C157.874 35.9203 158.892 35.7676 159.34 35.1364C159.961 34.2507 159.178 33.1004 158.322 32.3369C157.467 31.5734 156.561 30.6775 156.856 29.629C156.968 29.2829 157.213 28.9775 157.315 28.611C157.382 28.2426 157.338 27.8623 157.187 27.5194C157.037 27.1764 156.787 26.8864 156.47 26.687C155.826 26.3102 155.113 26.0677 154.373 25.9744C153.741 26.1169 153.558 26.9924 153.731 27.5625C153.99 28.1451 154.201 28.7477 154.362 29.3643C154.362 29.7206 150.565 34.9735 151.074 35.0448C148.662 34.6885 144.254 32.5303 143.551 36.0628C143.297 37.3047 143.348 38.7503 142.401 39.585C144.04 39.9312 145.689 40.2875 147.318 40.6743C147.43 41.3157 146.524 41.6923 145.882 41.4989C145.241 41.3055 144.59 40.9797 143.979 41.224C143.561 41.4455 143.234 41.8054 143.052 42.242L140.762 46.1104C139.927 47.5051 138.879 49.0525 137.27 49.2459C135.438 49.4597 133.901 47.7291 133.371 45.9577C133.312 45.515 133.082 45.1131 132.73 44.8379C132.353 44.6957 131.936 44.6957 131.559 44.8379C130.541 45.1362 129.468 45.1892 128.425 44.9928C127.383 44.7964 126.403 44.3561 125.563 43.708C124.75 43.0283 124.212 42.0763 124.049 41.0293C123.886 39.9824 124.11 38.9119 124.677 38.0173C125.166 37.3658 125.93 36.6634 125.624 35.9101C125.441 35.4621 124.901 35.1466 124.963 34.6681C125.024 34.1896 125.869 34.0471 126.469 33.9453C127.004 33.8467 127.49 33.5695 127.847 33.1589C128.204 32.7484 128.411 32.2289 128.434 31.6854C128.434 31.1255 125.319 27.4301 124.545 27.4098C122.764 27.3589 121.043 31.2883 120.096 32.6626C119.952 32.9493 119.751 33.2041 119.506 33.4121C119.261 33.6201 118.978 33.7772 118.671 33.8741C117.653 34.0369 116.941 32.9477 116.747 31.9602C116.719 30.9575 116.469 29.9736 116.014 29.0793C115.629 28.6465 115.158 28.2996 114.63 28.0613C114.155 27.708 113.613 27.4539 113.038 27.314C112.463 27.1741 111.865 27.1513 111.281 27.2469C110.761 27.4098 110.314 27.7763 109.784 27.9493C109.164 28.0699 108.522 28.0157 107.931 27.7928C107.339 27.5699 106.821 27.1871 106.435 26.687C105.58 25.7606 104.969 24.651 104.032 23.7653C102.058 21.9533 98.861 21.7293 97.3137 19.4796C96.5604 18.4616 96.5807 16.5783 97.8227 16.1812C98.8407 15.8453 100.337 16.7513 101.029 15.8758C101.722 15.0004 100.103 12.4859 100.134 11.4577C100.134 10.6433 101.467 9.80855 101.355 8.22047C101.263 6.90725 99.9605 5.84853 99.8587 4.45387Z" fill="white"/>
<path opacity="0.7" d="M153.06 232.404C154.821 232.201 156.552 232.465 157.946 230.898C159.84 228.77 159.056 227.04 156.144 226.683C155.882 226.68 155.628 226.59 155.422 226.429C154.841 225.838 155.88 225.054 156.643 224.718C157.485 224.293 158.205 223.662 158.739 222.885C159.273 222.107 159.602 221.208 159.697 220.27C159.758 219.832 166.711 223.242 167.251 224.047C169.144 226.877 164.482 231.621 168.045 232.262C169.368 230.226 170.407 227.946 171.547 225.777L174.743 227.294C173.949 226.917 176.494 223.151 176.983 222.856C178.897 221.695 181.706 224.067 183.091 220.708C184.842 216.462 177.41 211.546 175.965 216.697C173.028 216.246 170.207 215.229 167.658 213.704C167.169 214.498 166.691 215.312 166.212 216.106C165.814 216.135 165.415 216.067 165.048 215.91C164.682 215.752 164.358 215.509 164.105 215.2C164.05 213.825 164.401 212.464 165.114 211.288C165.827 210.111 166.871 209.17 168.116 208.583C167.933 206.741 169.948 205.529 171.659 204.817C169.877 201.213 173.491 196.296 177.461 196.917C181.432 197.538 183.376 203.33 180.576 206.211C182.139 207.27 183.329 208.795 183.976 210.568C185.238 208.474 187.121 206.825 189.363 205.85C191.606 204.876 194.096 204.625 196.488 205.132C198.87 205.692 201.354 207.015 203.614 206.15C204.632 205.763 205.446 204.969 206.434 204.511C208.673 203.493 211.259 204.409 213.498 205.417C214.998 206.096 216.468 206.825 217.906 207.606C198.909 229.396 172.905 243.875 144.376 248.55C143.581 248.233 142.88 247.718 142.34 247.053C141.455 245.75 141.882 243.999 142.34 242.483C144.142 236.599 146.412 233.545 152.52 232.476L153.06 232.404Z" fill="white"/>
<path d="M130.306 34.6885L135.702 40.2061L141.199 34.7699C141.924 34.0614 142.502 33.2172 142.9 32.2853C143.298 31.3534 143.509 30.3521 143.521 29.3388C143.532 28.3254 143.343 27.3197 142.966 26.3791C142.589 25.4385 142.03 24.5815 141.321 23.857C140.613 23.1311 139.769 22.552 138.837 22.153C137.905 21.7539 136.904 21.5426 135.89 21.5312C134.876 21.5199 133.87 21.7087 132.93 22.0868C131.989 22.465 131.132 23.025 130.408 23.7348C129.679 24.4454 129.097 25.2932 128.697 26.2296C128.297 27.1659 128.086 28.1722 128.077 29.1905C128.067 30.2087 128.259 31.2187 128.642 32.1624C129.025 33.106 129.59 33.9645 130.306 34.6885ZM133.584 31.4818C133.145 31.0436 132.846 30.485 132.724 29.8765C132.602 29.2681 132.664 28.6372 132.901 28.0638C133.138 27.4904 133.54 27.0002 134.056 26.6553C134.572 26.3104 135.178 26.1263 135.799 26.1263C136.419 26.1263 137.026 26.3104 137.541 26.6553C138.057 27.0002 138.459 27.4904 138.696 28.0638C138.933 28.6372 138.995 29.2681 138.873 29.8765C138.751 30.485 138.452 31.0436 138.013 31.4818C137.424 32.0655 136.628 32.393 135.799 32.393C134.969 32.393 134.173 32.0655 133.584 31.4818Z" fill="#67CBAB"/>
<path opacity="0.2" d="M130.429 23.7755C131.158 23.0605 132.023 22.4978 132.972 22.1203C133.921 21.7428 134.935 21.558 135.957 21.5766L135.906 26.1576C135.486 26.1477 135.069 26.2209 134.677 26.3729C134.286 26.5249 133.928 26.7527 133.625 27.0433C133.181 27.4814 132.877 28.0419 132.752 28.6533C132.627 29.2646 132.687 29.8994 132.924 30.4767C133.161 31.054 133.564 31.5478 134.082 31.8954C134.601 32.2429 135.21 32.4285 135.834 32.4285L135.753 40.1551V40.206L130.358 34.6884C129.646 33.9672 129.083 33.1128 128.701 32.1741C128.319 31.2353 128.126 30.2306 128.133 29.2172C128.14 28.2038 128.346 27.2017 128.74 26.268C129.134 25.3343 129.708 24.4873 130.429 23.7755Z" fill="black"/>
<path d="M30.6959 191.135L36.0913 196.652L41.6089 191.257C42.3335 190.548 42.9115 189.704 43.3099 188.772C43.7082 187.84 43.919 186.839 43.9304 185.826C43.9417 184.812 43.7534 183.807 43.376 182.866C42.9986 181.925 42.4397 181.068 41.731 180.344C41.0226 179.619 40.1783 179.041 39.2464 178.643C38.3145 178.245 37.3133 178.034 36.2999 178.022C35.2865 178.011 34.2808 178.199 33.3402 178.577C32.3996 178.954 31.5426 179.513 30.8181 180.222C30.0934 180.93 29.5154 181.774 29.1171 182.706C28.7188 183.638 28.5079 184.639 28.4966 185.653C28.4852 186.666 28.6736 187.672 29.051 188.613C29.4284 189.553 29.9873 190.41 30.6959 191.135ZM33.9739 187.938C33.5397 187.495 33.2467 186.933 33.1321 186.323C33.0175 185.713 33.0863 185.083 33.33 184.513C33.5737 183.942 33.9811 183.456 34.5008 183.117C35.0206 182.779 35.6292 182.601 36.2496 182.609C36.87 182.616 37.4744 182.807 37.9862 183.158C38.498 183.508 38.8942 184.003 39.1247 184.579C39.3551 185.155 39.4095 185.787 39.2809 186.394C39.1523 187.001 38.8465 187.556 38.4022 187.989C37.8064 188.566 37.0069 188.884 36.1776 188.875C35.3482 188.865 34.5562 188.529 33.9739 187.938Z" fill="#67CBAB"/>
<path opacity="0.2" d="M30.8177 180.222C31.5484 179.509 32.413 178.947 33.3618 178.57C34.3105 178.192 35.3245 178.006 36.3454 178.023L36.2945 182.604C35.6693 182.586 35.0531 182.757 34.5252 183.092C33.9974 183.428 33.5819 183.914 33.3324 184.487C33.0828 185.061 33.0105 185.696 33.1247 186.311C33.239 186.926 33.5346 187.492 33.9735 187.938C34.2663 188.237 34.6164 188.475 35.003 188.636C35.3895 188.796 35.8046 188.878 36.2233 188.875L36.1418 196.632H36.0909L30.6955 191.114C29.2706 189.652 28.4834 187.684 28.5063 185.643C28.5292 183.601 29.3604 181.652 30.8177 180.222Z" fill="black"/>
<path d="M26.898 89.1515L32.2934 94.669L37.8211 89.2736C39.2822 87.8414 40.1155 85.8882 40.1384 83.8424C40.1613 81.7966 39.3719 79.8253 37.9433 78.3607C37.2348 77.636 36.3905 77.058 35.4586 76.6597C34.5267 76.2614 33.5255 76.0505 32.5121 76.0392C31.4987 76.0278 30.493 76.2162 29.5524 76.5936C28.6119 76.971 27.7549 77.5299 27.0303 78.2385C26.305 78.9463 25.7262 79.7901 25.327 80.7216C24.9278 81.6532 24.716 82.6542 24.7037 83.6676C24.6914 84.681 24.8788 85.6869 25.2553 86.6278C25.6318 87.5687 26.19 88.4263 26.898 89.1515ZM30.1759 85.955C29.7432 85.5112 29.4516 84.9492 29.3381 84.3398C29.2247 83.7304 29.2943 83.101 29.5384 82.5313C29.7825 81.9615 30.1899 81.4768 30.7093 81.1385C31.2287 80.8002 31.8367 80.6234 32.4565 80.6305C33.0763 80.6376 33.6801 80.8283 34.1916 81.1784C34.7031 81.5286 35.0994 82.0224 35.3303 82.5977C35.5612 83.1729 35.6165 83.8037 35.489 84.4103C35.3616 85.0169 35.0573 85.5722 34.6144 86.0059C34.3199 86.2944 33.9713 86.5219 33.5887 86.6755C33.206 86.8291 32.7969 86.9057 32.3846 86.901C31.9724 86.8963 31.5651 86.8103 31.1861 86.6479C30.8071 86.4856 30.4638 86.2501 30.1759 85.955Z" fill="#67CBAB"/>
<path opacity="0.2" d="M27.0308 78.2386C27.7598 77.5231 28.6242 76.9602 29.5733 76.5826C30.5224 76.2051 31.5373 76.0205 32.5585 76.0397L32.5076 80.6207C31.6761 80.6112 30.8748 80.9325 30.2801 81.5138C29.6854 82.0952 29.346 82.8889 29.3366 83.7205C29.3271 84.5521 29.6484 85.3533 30.2297 85.948C30.811 86.5427 31.6048 86.8821 32.4364 86.8916L32.3448 94.6182V94.6691L26.9595 89.1515C26.2464 88.431 25.6824 87.5768 25.3 86.638C24.9175 85.6991 24.724 84.694 24.7306 83.6803C24.7373 82.6665 24.9438 81.664 25.3385 80.7302C25.7332 79.7965 26.3083 78.9497 27.0308 78.2386Z" fill="black"/>
<path d="M168.604 199.258L173.999 204.776L179.517 199.381C180.243 198.673 180.822 197.829 181.221 196.897C181.62 195.965 181.831 194.963 181.843 193.949C181.854 192.936 181.665 191.93 181.287 190.989C180.909 190.048 180.349 189.191 179.639 188.468C178.93 187.743 178.086 187.165 177.154 186.767C176.222 186.368 175.221 186.157 174.208 186.146C173.194 186.135 172.189 186.323 171.248 186.701C170.308 187.078 169.451 187.637 168.726 188.345C167.265 189.778 166.432 191.731 166.409 193.777C166.386 195.822 167.175 197.794 168.604 199.258ZM171.882 196.062C171.449 195.618 171.157 195.056 171.044 194.447C170.93 193.837 171 193.208 171.244 192.638C171.488 192.068 171.896 191.584 172.415 191.245C172.935 190.907 173.543 190.73 174.162 190.737C174.782 190.745 175.386 190.935 175.897 191.285C176.409 191.635 176.805 192.129 177.036 192.705C177.267 193.28 177.322 193.911 177.195 194.517C177.067 195.124 176.763 195.679 176.32 196.113C176.026 196.401 175.677 196.629 175.295 196.782C174.912 196.936 174.503 197.013 174.09 197.008C173.678 197.003 173.271 196.917 172.892 196.755C172.513 196.593 172.17 196.357 171.882 196.062Z" fill="#67CBAB"/>
<path opacity="0.2" d="M168.685 188.345C169.417 187.632 170.283 187.07 171.234 186.692C172.184 186.315 173.2 186.129 174.223 186.147L174.172 190.738C173.751 190.72 173.331 190.79 172.939 190.942C172.547 191.095 172.19 191.327 171.891 191.623C171.446 192.06 171.14 192.62 171.015 193.231C170.889 193.843 170.948 194.478 171.186 195.055C171.423 195.632 171.827 196.126 172.346 196.472C172.866 196.818 173.476 197.001 174.101 196.998L174.009 204.725V204.776L168.614 199.258C167.902 198.537 167.339 197.683 166.957 196.744C166.575 195.805 166.382 194.801 166.389 193.787C166.395 192.774 166.602 191.772 166.996 190.838C167.39 189.904 167.963 189.057 168.685 188.345Z" fill="black"/>
<path d="M227.811 102.335L233.207 107.852L238.724 102.457C239.449 101.748 240.027 100.904 240.425 99.972C240.823 99.0401 241.034 98.0389 241.046 97.0255C241.057 96.0121 240.869 95.0064 240.491 94.0659C240.114 93.1253 239.555 92.2683 238.846 91.5437C237.414 90.0827 235.461 89.2493 233.415 89.2264C231.369 89.2035 229.398 89.993 227.933 91.4216C227.209 92.13 226.631 92.9744 226.232 93.9062C225.834 94.8381 225.623 95.8394 225.612 96.8527C225.6 97.8661 225.789 98.8718 226.166 99.8124C226.544 100.753 227.103 101.61 227.811 102.335ZM231.089 99.138C230.655 98.6948 230.362 98.1327 230.247 97.5229C230.133 96.9132 230.202 96.2831 230.445 95.7124C230.689 95.1418 231.096 94.6563 231.616 94.3174C232.136 93.9785 232.744 93.8014 233.365 93.8085C233.985 93.8156 234.59 94.0067 235.101 94.3574C235.613 94.7082 236.009 95.203 236.24 95.7791C236.47 96.3551 236.525 96.9866 236.396 97.5936C236.268 98.2006 235.962 98.7558 235.517 99.1889C234.922 99.7659 234.122 100.084 233.293 100.075C232.463 100.065 231.671 99.7286 231.089 99.138Z" fill="#67CBAB"/>
<path opacity="0.2" d="M227.933 91.4216C228.663 90.708 229.528 90.1469 230.477 89.7711C231.426 89.3953 232.441 89.2123 233.461 89.2329L233.41 93.8139C232.99 93.7964 232.57 93.866 232.177 94.0184C231.785 94.1708 231.428 94.4027 231.13 94.6995C230.543 95.289 230.214 96.087 230.214 96.9188C230.214 97.7506 230.543 98.5485 231.13 99.138C231.42 99.4402 231.77 99.6793 232.157 99.8404C232.544 100.002 232.96 100.081 233.38 100.075L233.298 107.811H233.247L227.852 102.294C226.428 100.838 225.637 98.8776 225.653 96.8409C225.668 94.8043 226.488 92.8562 227.933 91.4216Z" fill="black"/>
<path d="M154.119 90.4138L159.514 95.9313L165.032 90.5359C165.756 89.8274 166.334 88.9832 166.733 88.0513C167.131 87.1194 167.342 86.1181 167.353 85.1048C167.364 84.0914 167.176 83.0857 166.799 82.1451C166.421 81.2045 165.862 80.3475 165.154 79.623C164.446 78.8976 163.602 78.3188 162.671 77.9196C161.739 77.5204 160.738 77.3086 159.725 77.2963C158.711 77.2841 157.705 77.4715 156.765 77.848C155.824 78.2245 154.966 78.7827 154.241 79.4906C152.777 80.9232 151.941 82.8786 151.918 84.9269C151.896 86.9752 152.687 88.9488 154.119 90.4138ZM157.397 87.2071C156.964 86.7633 156.672 86.2013 156.559 85.5919C156.445 84.9825 156.515 84.3531 156.759 83.7834C157.003 83.2136 157.411 82.7289 157.93 82.3906C158.449 82.0523 159.057 81.8755 159.677 81.8826C160.297 81.8897 160.901 82.0804 161.412 82.4305C161.924 82.7807 162.32 83.2745 162.551 83.8498C162.782 84.425 162.837 85.0558 162.71 85.6624C162.582 86.269 162.278 86.8243 161.835 87.258C161.541 87.5465 161.192 87.774 160.809 87.9276C160.427 88.0812 160.018 88.1578 159.605 88.1531C159.193 88.1484 158.786 88.0624 158.407 87.9001C158.028 87.7377 157.685 87.5022 157.397 87.2071Z" fill="#67CBAB"/>
<path opacity="0.2" d="M154.241 79.4907C154.971 78.7771 155.835 78.216 156.784 77.8402C157.733 77.4644 158.748 77.2814 159.768 77.302L159.718 81.883C159.299 81.8669 158.881 81.9372 158.49 82.0896C158.1 82.242 157.745 82.4731 157.447 82.7686C157.156 83.0599 156.924 83.4058 156.766 83.7866C156.608 84.1674 156.527 84.5756 156.527 84.9879C156.527 85.4001 156.608 85.8083 156.766 86.1892C156.924 86.57 157.156 86.9159 157.447 87.2071C157.738 87.5093 158.088 87.7484 158.475 87.9095C158.862 88.0706 159.278 88.1503 159.697 88.1437L159.524 95.8499L159.473 95.9008L154.078 90.3833C152.661 88.9143 151.882 86.9442 151.913 84.9034C151.943 82.8625 152.78 80.9166 154.241 79.4907Z" fill="black"/>
<path d="M123.975 60.515L129.197 52.3812L135.824 60.515H123.975Z" fill="#67CBAB"/>
<path opacity="0.8" d="M123.975 60.515L129.197 52.3812L135.824 60.515H123.975Z" fill="white"/>
<path opacity="0.2" d="M129.106 53.5316L128.576 61.6553H129.9L129.106 53.5316Z" fill="black"/>
<path d="M116.35 59.5786L121.063 65.6866H138.562L143.337 57.7157C134.409 59.0925 125.382 59.7157 116.35 59.5786Z" fill="white"/>
<path d="M89.1796 181.627L83.9572 173.493L77.3301 181.627H89.1796Z" fill="#67CBAB"/>
<path opacity="0.8" d="M89.1796 181.627L83.9572 173.493L77.3301 181.627H89.1796Z" fill="white"/>
<path opacity="0.2" d="M84.0499 174.643L84.5793 182.767H83.2559L84.0499 174.643Z" fill="black"/>
<path d="M96.8055 180.68L92.1024 186.788H74.5928L69.8184 178.807C78.745 180.193 87.7731 180.819 96.8055 180.68Z" fill="white"/>
<path d="M201.617 194.321L206.829 186.187L213.467 194.321H201.617Z" fill="#67CBAB"/>
<path opacity="0.8" d="M201.617 194.321L206.829 186.187L213.467 194.321H201.617Z" fill="white"/>
<path opacity="0.2" d="M206.748 187.338L206.219 195.461H207.542L206.748 187.338Z" fill="black"/>
<path d="M193.982 193.374L198.696 199.482H216.205L220.98 191.501C212.05 192.887 203.018 193.514 193.982 193.374Z" fill="white"/>
<path d="M129.899 68.71C129.899 68.71 129.645 69.5854 129.299 71.1837" stroke="#67CBAB" stroke-width="2.036" stroke-miterlimit="10"/>
<path d="M128.057 79.4703C126.977 91.0043 127.721 110.01 139.987 127.418C157.192 151.85 191.712 166.031 198.431 183.652" stroke="#67CBAB" stroke-width="2.036" stroke-miterlimit="10" stroke-dasharray="5.24 8.39"/>
<path d="M199.449 187.714C199.558 188.558 199.595 189.409 199.561 190.259" stroke="#67CBAB" stroke-width="2.036" stroke-miterlimit="10"/>
<path d="M214.332 114.754C214.332 114.754 213.945 115.558 213.131 116.994" stroke="#67CBAB" stroke-width="2.036" stroke-miterlimit="10"/>
<path d="M208.968 123.55C197.77 139.553 167.657 172.648 105.254 181.922" stroke="#67CBAB" stroke-width="2.036" stroke-miterlimit="10" stroke-dasharray="4.86 7.77"/>
<path d="M101.406 182.451L98.8809 182.767" stroke="#67CBAB" stroke-width="2.036" stroke-miterlimit="10"/>
<path d="M38.1992 44.7056C38.4843 45.0211 39.0442 45.7236 39.94 46.5583" stroke="#67CBAB" stroke-width="2.036" stroke-miterlimit="10"/>
<path d="M46.3516 51.7501C55.9106 58.1839 74.5807 66.2363 107.065 63.8134" stroke="#67CBAB" stroke-width="2.036" stroke-miterlimit="10" stroke-dasharray="5.16 8.27"/>
<path d="M111.199 63.4572L113.724 63.1925" stroke="#67CBAB" stroke-width="2.036" stroke-miterlimit="10"/>
<path d="M83.918 190.728C83.918 190.728 84.3659 191.552 85.0072 193.028" stroke="#67CBAB" stroke-width="2.036" stroke-miterlimit="10"/>
<path d="M87.6629 200.806C89.9839 209.795 90.9815 223.293 81.6465 234.96" stroke="#67CBAB" stroke-width="2.036" stroke-miterlimit="10" stroke-dasharray="5.14 8.24"/>
<path d="M78.8977 238.034C78.3174 238.624 77.6964 239.205 77.0449 239.775" stroke="#67CBAB" stroke-width="2.036" stroke-miterlimit="10"/>
<path d="M145.598 62.5817C145.598 62.5817 146.514 62.6427 148.132 62.6529" stroke="#67CBAB" stroke-width="2.036" stroke-miterlimit="10"/>
<path d="M157.039 62.256C170.558 61.0853 192.537 56.4432 203.154 39.1168" stroke="#67CBAB" stroke-width="2.036" stroke-miterlimit="10" stroke-dasharray="5.57 8.92"/>
<path d="M205.262 35.2076C205.608 34.4441 205.944 33.6704 206.28 32.8662" stroke="#67CBAB" stroke-width="2.036" stroke-miterlimit="10"/>
<path d="M143.541 99.6471C143.248 100.443 142.908 101.222 142.523 101.978" stroke="#67CBAB" stroke-width="2.036" stroke-miterlimit="10"/>
<path d="M137.962 108.616C133.055 113.706 124.585 117.238 111.362 107.781C89.8819 92.3989 82.4301 73.1688 63.9941 77.078" stroke="#67CBAB" stroke-width="2.036" stroke-miterlimit="10" stroke-dasharray="5.06 8.09"/>
<path d="M60.0946 78.1876C59.3209 78.4625 58.5269 78.7781 57.7227 79.1242" stroke="#67CBAB" stroke-width="2.036" stroke-miterlimit="10"/>
<path d="M163.595 204.776C163.595 204.776 162.699 205.01 161.162 205.488" stroke="#67CBAB" stroke-width="2.036" stroke-miterlimit="10"/>
<path d="M153.659 208.207C141.687 213.083 123.048 223.405 121.49 240.833" stroke="#67CBAB" stroke-width="2.036" stroke-miterlimit="10" stroke-dasharray="5.02 8.02"/>
<path d="M121.43 244.844C121.481 245.669 121.572 246.514 121.694 247.379" stroke="#67CBAB" stroke-width="2.036" stroke-miterlimit="10"/>
<path d="M121.38 38.2413C121.38 38.2413 120.444 38.3635 118.855 38.4653" stroke="#67CBAB" stroke-width="2.036" stroke-miterlimit="10"/>
<path d="M110.517 38.4856C99.9097 37.834 85.0673 34.2201 83.1738 19.3472" stroke="#67CBAB" stroke-width="2.036" stroke-miterlimit="10" stroke-dasharray="5.21 8.35"/>
<path d="M82.9707 15.1837C82.9707 14.3693 83.0522 13.5142 83.1438 12.6387" stroke="#67CBAB" stroke-width="2.036" stroke-miterlimit="10"/>
</svg>
