<svg width="54" height="55" viewBox="0 0 54 55" fill="none" xmlns="http://www.w3.org/2000/svg">
<path d="M26.9051 27.5975L26.6836 49.0489" stroke="#67CBAB" stroke-width="2.22561" stroke-linecap="round" stroke-linejoin="round"/>
<path d="M45.88 37.4734V17.7216C45.88 17.426 45.8016 17.1357 45.6526 16.8804C45.5036 16.6251 45.2895 16.4139 45.0322 16.2684L27.5055 6.36205C27.2549 6.22042 26.972 6.146 26.6842 6.146C26.3963 6.146 26.1134 6.22042 25.8628 6.36205L8.33614 16.2684C8.07881 16.4139 7.86471 16.6251 7.71575 16.8804C7.56678 17.1357 7.48828 17.426 7.48828 17.7216V37.4734C7.48828 37.769 7.56678 38.0593 7.71574 38.3146C7.86471 38.57 8.07881 38.7811 8.33614 38.9266L25.8628 48.833C26.1134 48.9746 26.3963 49.049 26.6842 49.049C26.972 49.049 27.2549 48.9746 27.5055 48.833L45.0322 38.9266C45.2895 38.7811 45.5036 38.57 45.6526 38.3146C45.8016 38.0593 45.8801 37.769 45.88 37.4734V37.4734Z" stroke="#67CBAB" stroke-width="2.22561" stroke-linecap="round" stroke-linejoin="round"/>
<path d="M45.6509 16.8785L26.9051 27.5975L7.71777 16.8762" stroke="#67CBAB" stroke-width="2.22561" stroke-linecap="round" stroke-linejoin="round"/>
<path d="M36.9356 31.8771V21.8619L17.5771 11.045" stroke="#67CBAB" stroke-width="2.22561" stroke-linecap="round" stroke-linejoin="round"/>
</svg>
