<svg width="442" height="315" viewBox="0 0 442 315" fill="none" xmlns="http://www.w3.org/2000/svg">
<path d="M327.916 81.2575H364.062V114.651H327.916V81.2575Z" fill="#677088"/>
<path d="M345.885 86.6215C356.639 86.6215 369.206 83.6115 369.206 75.1217C369.206 73.308 371.149 67.4037 372.859 62.0783C375.895 52.7782 379.664 41.1883 379.664 33.779C379.664 29.3431 378.79 24.9506 377.093 20.8524C375.395 16.7541 372.907 13.0303 369.77 9.89365C366.634 6.75698 362.91 4.26883 358.812 2.57128C354.713 0.873722 350.321 0 345.885 0C341.449 0 337.057 0.873722 332.958 2.57128C328.86 4.26883 325.136 6.75698 322 9.89365C318.863 13.0303 316.375 16.7541 314.677 20.8524C312.98 24.9506 312.106 29.3431 312.106 33.779C312.106 41.2526 315.875 52.8425 318.911 62.0783C320.621 67.3523 322.564 73.308 322.564 75.1217C322.564 83.6372 335.118 86.6215 345.885 86.6215Z" fill="#CCCFD7"/>
<path d="M345.885 97.9283C350.41 98.0098 354.916 97.3226 359.211 95.896C365.643 93.5162 366.659 89.7216 366.659 87.6892C366.659 86.9454 366.364 86.2322 365.838 85.7063C365.312 85.1804 364.599 84.8849 363.855 84.8849C363.111 84.8849 362.398 85.1804 361.872 85.7063C361.346 86.2322 361.051 86.9454 361.051 87.6892C361.051 89.6187 355.275 92.3199 345.885 92.3199C336.495 92.3199 330.719 89.6187 330.719 87.6892C330.719 86.9454 330.424 86.2322 329.898 85.7063C329.372 85.1804 328.659 84.8849 327.915 84.8849C327.171 84.8849 326.458 85.1804 325.932 85.7063C325.406 86.2322 325.111 86.9454 325.111 87.6892C325.111 95.2528 336.302 97.9283 345.885 97.9283Z" fill="#CCCFD7"/>
<path d="M345.885 108.978C350.411 109.056 354.917 108.364 359.211 106.933C365.643 104.553 366.659 100.771 366.659 98.7259C366.659 97.9822 366.364 97.2689 365.838 96.743C365.312 96.2171 364.599 95.9217 363.855 95.9217C363.111 95.9217 362.398 96.2171 361.872 96.743C361.346 97.2689 361.051 97.9822 361.051 98.7259C361.051 100.668 355.275 103.37 345.885 103.37C336.495 103.37 330.719 100.668 330.719 98.7259C330.719 97.9822 330.424 97.2689 329.898 96.743C329.372 96.2171 328.659 95.9217 327.915 95.9217C327.171 95.9217 326.458 96.2171 325.932 96.743C325.406 97.2689 325.111 97.9822 325.111 98.7259C325.111 106.29 336.302 108.978 345.885 108.978Z" fill="#CCCFD7"/>
<path d="M345.885 120.066C350.413 120.131 354.919 119.426 359.211 117.982C365.643 115.59 366.659 111.808 366.659 109.763C366.659 109.019 366.364 108.306 365.838 107.78C365.312 107.254 364.599 106.958 363.855 106.958C363.111 106.958 362.398 107.254 361.872 107.78C361.346 108.306 361.051 109.019 361.051 109.763C361.051 111.705 355.275 114.406 345.885 114.406C336.495 114.406 330.719 111.705 330.719 109.763C330.719 109.019 330.424 108.306 329.898 107.78C329.372 107.254 328.659 106.958 327.915 106.958C327.171 106.958 326.458 107.254 325.932 107.78C325.406 108.306 325.111 109.019 325.111 109.763C325.111 117.326 336.302 120.066 345.885 120.066Z" fill="#D1D3D4"/>
<path d="M413.302 121.841H411.926L397.982 193.76L399.371 205.684L399.757 206.199L413.714 122.562L413.302 121.841Z" fill="#528477"/>
<path d="M279.42 121.841H280.784L294.728 193.76L293.338 205.684L292.965 206.199L278.996 122.562L279.42 121.841Z" fill="#528477"/>
<path d="M325.034 282.851L320.121 208.347H372.642L368.783 282.633C368.783 282.633 352.369 290.904 346.413 290.891C340.676 290.878 325.034 282.851 325.034 282.851Z" fill="#528477"/>
<path d="M280.463 121.841L291.127 117.635L307.412 109.917L325.497 100.552L348.651 226.96L346.349 260.791C346.349 260.791 344.677 276.561 341.345 292.28C338.978 303.51 334.386 311.961 327.903 313.942C322.217 315.678 313.676 313.788 307.18 312.27C302.232 311.046 297.399 309.397 292.735 307.343L295.41 253.214L292.747 192.101L280.463 121.841Z" fill="#67CBAB"/>
<path d="M412.414 121.841L401.75 117.635L385.465 109.917L367.38 100.552L344.226 226.96L346.528 260.804C346.528 260.804 348.2 276.574 351.519 292.293C353.899 303.523 358.491 311.974 364.961 313.955C370.66 315.691 379.188 313.8 385.684 312.283C390.636 311.06 395.474 309.412 400.142 307.356L397.467 253.227L400.13 192.101L412.414 121.841Z" fill="#67CBAB"/>
<path d="M279.421 121.841L272.5 125.649V135.052L263.29 206.919L258.415 298.184L283.318 299.226L288.734 226.947L293.339 205.684L291.705 192.036L279.421 121.841Z" fill="#67CBAB"/>
<path d="M324.249 116.181H368.512V162.978H324.249V116.181Z" fill="white"/>
<path d="M324.661 98.5972C327.499 102.521 330.818 106.073 334.54 109.171C338.215 112.098 342.185 114.633 346.387 116.734C350.582 114.628 354.548 112.094 358.221 109.171C361.945 106.071 365.268 102.519 368.113 98.5972C368.957 105.625 368.957 112.729 368.113 119.757C366.909 126.901 365.263 133.964 363.187 140.905L346.349 117.12L329.626 140.905C327.55 133.965 325.909 126.902 324.712 119.757C323.843 112.732 323.826 105.627 324.661 98.5972Z" fill="#A7A9AC"/>
<path d="M340.675 116.181H352.098L355.957 123.398L349.988 134.988H342.785L336.804 123.398L340.675 116.181Z" fill="#83DBA6"/>
<path d="M338.849 127.372L336.804 123.398L340.663 116.181H346.091L346.374 116.336L346.657 116.181H352.085L355.944 123.398L353.899 127.372L346.374 116.709L338.849 127.372Z" fill="#1F8466"/>
<path d="M342.785 134.987H349.988L355.957 178.581H336.804L342.785 134.987Z" fill="#83DBA6"/>
<path d="M342.528 136.853L342.786 134.987H349.989L350.233 136.853H342.528Z" fill="#1F8466"/>
<path d="M325.034 175.07L320.121 117.571L346.388 171.121L372.642 117.571L368.757 174.838L346.388 226.33L325.034 175.07Z" fill="#528477"/>
<path d="M346.259 226.33L323.992 109.84L305.366 128.119L312.39 131.63L302.909 141.818L346.259 226.33Z" fill="#52AD90"/>
<path d="M346.387 226.33L368.769 109.84L387.408 128.119L380.372 131.63L389.865 141.818L346.387 226.33Z" fill="#52AD90"/>
<path d="M343.776 183.662C343.773 184.187 343.926 184.7 344.216 185.138C344.505 185.575 344.918 185.917 345.402 186.12C345.886 186.322 346.42 186.376 346.934 186.276C347.449 186.175 347.923 185.923 348.295 185.553C348.666 185.183 348.92 184.711 349.023 184.197C349.127 183.682 349.075 183.149 348.875 182.664C348.675 182.179 348.335 181.765 347.899 181.473C347.463 181.181 346.95 181.025 346.425 181.025C345.725 181.025 345.053 181.303 344.556 181.797C344.06 182.291 343.779 182.962 343.776 183.662Z" fill="#83DBA6"/>
<path d="M346.863 184.64C346.863 184.737 346.892 184.831 346.946 184.911C346.999 184.992 347.076 185.054 347.165 185.091C347.254 185.128 347.353 185.138 347.447 185.119C347.542 185.1 347.629 185.054 347.698 184.986C347.766 184.917 347.813 184.83 347.831 184.735C347.85 184.64 347.841 184.542 347.804 184.453C347.767 184.363 347.704 184.287 347.624 184.233C347.543 184.18 347.449 184.151 347.352 184.151C347.222 184.151 347.098 184.203 347.006 184.294C346.915 184.386 346.863 184.51 346.863 184.64Z" fill="#356054"/>
<path d="M344.921 184.64C344.918 184.74 344.945 184.838 344.999 184.922C345.052 185.006 345.13 185.072 345.221 185.112C345.313 185.152 345.414 185.164 345.512 185.146C345.61 185.128 345.701 185.082 345.772 185.012C345.844 184.942 345.893 184.853 345.913 184.755C345.934 184.658 345.924 184.556 345.887 184.464C345.849 184.371 345.785 184.292 345.702 184.237C345.62 184.181 345.522 184.151 345.422 184.151C345.291 184.151 345.166 184.202 345.072 184.293C344.978 184.385 344.924 184.509 344.921 184.64Z" fill="#356054"/>
<path d="M345.422 183.186C345.519 183.184 345.612 183.153 345.69 183.098C345.769 183.043 345.83 182.965 345.865 182.876C345.9 182.786 345.908 182.688 345.887 182.594C345.867 182.501 345.82 182.415 345.751 182.348C345.682 182.28 345.595 182.235 345.5 182.217C345.406 182.2 345.308 182.21 345.22 182.247C345.131 182.285 345.056 182.347 345.002 182.427C344.949 182.507 344.921 182.601 344.921 182.697C344.924 182.828 344.979 182.953 345.072 183.044C345.166 183.135 345.292 183.186 345.422 183.186Z" fill="#356054"/>
<path d="M347.352 183.186C347.449 183.186 347.543 183.158 347.624 183.104C347.704 183.05 347.767 182.974 347.804 182.885C347.841 182.795 347.85 182.697 347.831 182.602C347.813 182.507 347.766 182.42 347.698 182.352C347.629 182.284 347.542 182.237 347.447 182.218C347.353 182.199 347.254 182.209 347.165 182.246C347.076 182.283 346.999 182.346 346.946 182.426C346.892 182.506 346.863 182.601 346.863 182.698C346.863 182.827 346.915 182.952 347.006 183.043C347.098 183.135 347.222 183.186 347.352 183.186Z" fill="#356054"/>
<path d="M343.776 202.636C343.773 203.16 343.926 203.674 344.216 204.111C344.505 204.549 344.918 204.89 345.402 205.093C345.886 205.295 346.42 205.35 346.934 205.249C347.449 205.148 347.923 204.897 348.295 204.527C348.666 204.157 348.92 203.685 349.023 203.17C349.127 202.656 349.075 202.122 348.875 201.637C348.675 201.153 348.335 200.738 347.899 200.446C347.463 200.154 346.95 199.999 346.425 199.999C345.725 199.999 345.053 200.276 344.556 200.77C344.06 201.264 343.779 201.935 343.776 202.636Z" fill="#83DBA6"/>
<path d="M346.863 203.6C346.863 203.73 346.915 203.854 347.006 203.946C347.098 204.038 347.222 204.089 347.352 204.089C347.482 204.089 347.606 204.038 347.698 203.946C347.789 203.854 347.841 203.73 347.841 203.6C347.841 203.471 347.789 203.346 347.698 203.255C347.606 203.163 347.482 203.112 347.352 203.112C347.222 203.112 347.098 203.163 347.006 203.255C346.915 203.346 346.863 203.471 346.863 203.6Z" fill="#356054"/>
<path d="M344.921 203.6C344.94 203.718 345 203.825 345.091 203.902C345.181 203.98 345.297 204.022 345.416 204.022C345.535 204.022 345.65 203.98 345.741 203.902C345.832 203.825 345.892 203.718 345.911 203.6C345.892 203.483 345.832 203.376 345.741 203.299C345.65 203.221 345.535 203.179 345.416 203.179C345.297 203.179 345.181 203.221 345.091 203.299C345 203.376 344.94 203.483 344.921 203.6Z" fill="#356054"/>
<path d="M345.422 202.16C345.519 202.157 345.612 202.126 345.69 202.071C345.769 202.016 345.83 201.939 345.865 201.849C345.9 201.76 345.908 201.662 345.887 201.568C345.867 201.474 345.82 201.388 345.751 201.321C345.682 201.254 345.595 201.209 345.5 201.191C345.406 201.173 345.308 201.183 345.22 201.221C345.131 201.258 345.056 201.321 345.002 201.401C344.949 201.481 344.921 201.575 344.921 201.671C344.924 201.802 344.979 201.926 345.072 202.017C345.166 202.109 345.292 202.16 345.422 202.16Z" fill="#356054"/>
<path d="M347.352 202.16C347.449 202.16 347.543 202.131 347.624 202.077C347.704 202.024 347.767 201.947 347.804 201.858C347.841 201.769 347.85 201.67 347.831 201.576C347.813 201.481 347.766 201.394 347.698 201.325C347.629 201.257 347.542 201.21 347.447 201.192C347.353 201.173 347.254 201.182 347.165 201.219C347.076 201.256 346.999 201.319 346.946 201.399C346.892 201.48 346.863 201.574 346.863 201.671C346.863 201.801 346.915 201.925 347.006 202.017C347.098 202.108 347.222 202.16 347.352 202.16Z" fill="#356054"/>
<path d="M324.661 98.5972C327.513 102.395 330.832 105.818 334.54 108.785C338.217 111.613 342.173 114.057 346.348 116.078C350.53 114.055 354.495 111.611 358.183 108.785C361.892 105.816 365.216 102.393 368.074 98.5972C368.919 105.367 368.919 112.216 368.074 118.986C366.881 125.875 365.249 132.68 363.186 139.361L346.348 116.439L329.626 139.361C327.551 132.682 325.91 125.876 324.712 118.986C323.843 112.218 323.826 105.369 324.661 98.5972Z" fill="white"/>
<path d="M312.03 177.539H300.568L299.076 176.047C298.987 175.959 298.917 175.853 298.868 175.738C298.82 175.622 298.795 175.497 298.795 175.372C298.795 175.246 298.82 175.122 298.868 175.006C298.917 174.89 298.987 174.785 299.076 174.697L304.723 169.037C304.904 168.856 305.149 168.755 305.405 168.755C305.661 168.755 305.906 168.856 306.087 169.037L312.608 175.558C312.789 175.739 312.891 175.984 312.891 176.24C312.891 176.496 312.789 176.741 312.608 176.922L312.03 177.539Z" fill="white"/>
<path d="M302.819 176.665L308.273 171.211L312.595 175.546C312.775 175.726 312.877 175.972 312.877 176.227C312.877 176.483 312.775 176.728 312.595 176.909L312.003 177.501H302.497C302.485 177.346 302.508 177.191 302.563 177.046C302.619 176.902 302.706 176.771 302.819 176.665Z" fill="#D1D3D4"/>
<path d="M303.836 176.665L309.984 170.516C310.079 170.421 310.191 170.346 310.315 170.294C310.438 170.243 310.571 170.217 310.705 170.217C310.839 170.217 310.971 170.243 311.095 170.294C311.218 170.346 311.331 170.421 311.425 170.516L316.262 175.378V177.526H303.54C303.521 177.37 303.537 177.211 303.589 177.061C303.64 176.912 303.724 176.776 303.836 176.665Z" fill="white"/>
<path d="M297.159 174.992H317.869V180.562H297.159V174.992Z" fill="#528477"/>
<path opacity="0.5" d="M381.962 219.654C379.818 217.319 378.117 214.612 376.946 211.666C376.47 210.096 377.602 206.52 376.779 205.092C376.522 204.754 376.187 204.485 375.801 204.308C375.59 204.192 375.358 204.118 375.119 204.089C374.1 204.309 373.171 204.834 372.457 205.594C371.308 207.204 370.547 209.057 370.231 211.01C370.051 212.836 372.559 216.592 371.698 218.213C371.247 219.036 369.125 219.499 368.199 219.615C365.42 220.143 359.362 218.187 356.866 219.525C356.386 219.841 355.975 220.252 355.659 220.731C355.343 221.211 355.128 221.751 355.027 222.316C355.027 223.075 356.725 223.911 357.046 224.593C357.148 224.86 357.201 225.144 357.201 225.429C357.201 226.047 356.236 227.153 356.352 227.77C356.467 228.388 357.96 229.378 358.294 230.047C358.43 230.36 358.505 230.697 358.513 231.038C358.513 231.681 357.677 232.89 357.818 233.52C357.96 234.151 359.104 235.038 359.542 235.578C359.793 235.873 359.993 236.208 360.133 236.569C360.211 237.161 359.297 238.254 359.439 238.833C359.978 239.981 360.883 240.918 362.011 241.496C366.629 243.451 377.229 243.013 382.053 241.65C382.922 241.182 383.76 240.658 384.561 240.081C387.031 238.897 394.929 236.479 394.929 236.479L384.973 221.506C383.919 220.974 382.912 220.354 381.962 219.654Z" fill="#528477"/>
<path d="M382.212 217.686C380.067 215.351 378.366 212.644 377.195 209.698C376.719 208.128 377.851 204.552 377.028 203.125C376.771 202.786 376.436 202.517 376.05 202.34C375.839 202.224 375.607 202.15 375.368 202.121C374.349 202.341 373.42 202.866 372.706 203.626C371.557 205.236 370.796 207.089 370.48 209.042C370.3 210.868 372.808 214.624 371.947 216.245C371.496 217.068 369.374 217.531 368.448 217.647C365.669 218.175 359.611 216.219 357.115 217.557C356.635 217.873 356.224 218.284 355.908 218.763C355.592 219.243 355.377 219.783 355.276 220.348C355.276 221.107 356.974 221.944 357.295 222.625C357.397 222.892 357.45 223.176 357.45 223.461C357.45 224.079 356.485 225.185 356.601 225.803C356.716 226.42 358.209 227.41 358.543 228.079C358.679 228.392 358.754 228.729 358.762 229.07C358.762 229.713 357.926 230.922 358.067 231.552C358.209 232.183 359.353 233.07 359.791 233.611C360.042 233.905 360.243 234.24 360.382 234.601C360.46 235.193 359.546 236.286 359.688 236.865C360.227 238.013 361.132 238.95 362.261 239.528C366.878 241.483 377.478 241.046 382.302 239.682C383.171 239.214 384.009 238.69 384.81 238.113C387.28 236.929 395.178 234.511 395.178 234.511L385.222 219.538C384.168 219.006 383.161 218.386 382.212 217.686Z" fill="#F0F0F0"/>
<path d="M388.347 234.189C388.347 234.189 384.745 224.529 383.754 222.072C382.764 219.615 381.491 216.927 381.491 216.927C381.818 217.326 382.185 217.692 382.584 218.02C383.417 218.641 384.319 219.163 385.272 219.577L389.839 226.433L392.733 234.987C393.556 234.704 394.354 234.459 395.023 234.241L395.229 234.55C395.229 234.55 389.08 236.428 385.928 237.688C386.174 237.511 386.432 237.352 386.7 237.212C387.266 236.891 388.668 235.167 388.347 234.189Z" fill="#6ED3B5"/>
<path d="M374.545 202.674C373.397 204.284 372.635 206.137 372.32 208.09C372.139 209.916 374.648 213.672 373.786 215.293C373.061 216.434 371.971 217.297 370.694 217.741C369.416 218.184 368.026 218.183 366.75 217.737C366.75 217.737 370.93 217.57 371.895 216.245C372.86 214.92 370.249 210.868 370.429 209.042C370.744 207.089 371.506 205.236 372.654 203.626C373.317 202.933 374.151 202.427 375.072 202.16C374.884 202.318 374.708 202.49 374.545 202.674Z" fill="#6ED3B5"/>
<path d="M355.275 220.4C355.211 219.564 356.433 218.097 357.115 217.609C357.737 217.296 358.426 217.142 359.121 217.158C358.517 217.801 357.166 218.548 357.166 220.207C357.166 220.966 358.813 222.124 359.134 222.78C359.237 223.042 359.29 223.321 359.289 223.603C359.224 224.22 358.555 225.082 358.658 225.7C358.761 226.317 360.073 227.359 360.408 228.028C360.544 228.341 360.618 228.677 360.626 229.018C360.626 229.661 359.765 229.996 359.906 230.626C360.048 231.257 361.192 232.131 361.63 232.671C361.881 232.966 362.081 233.301 362.221 233.662C362.299 234.254 361.385 235.347 361.527 235.926C362.062 237.077 362.968 238.015 364.099 238.589C368.589 240.492 378.712 240.132 383.703 238.859C383.3 239.201 382.849 239.482 382.365 239.695C377.542 241.058 366.929 241.496 362.324 239.54C361.195 238.962 360.291 238.026 359.752 236.878C359.61 236.299 360.523 235.206 360.446 234.614C360.306 234.253 360.106 233.918 359.855 233.623C359.456 233.083 358.272 232.221 358.131 231.565C357.989 230.909 358.8 229.726 358.825 229.083C358.817 228.741 358.743 228.405 358.607 228.092C358.272 227.423 356.793 226.549 356.664 225.815C356.536 225.082 357.449 224.092 357.513 223.474C357.513 223.188 357.461 222.905 357.359 222.638C356.973 221.943 355.352 221.107 355.275 220.4Z" fill="#6ED3B5"/>
<path d="M377.079 208.45C376.403 208.45 375.735 208.3 375.123 208.012C374.557 207.588 375.651 202.623 376.757 202.687C377.863 202.751 377.079 208.45 377.079 208.45Z" fill="#E4E4E4"/>
<path d="M359.893 219.589C359.803 220.091 359.803 220.516 361.347 220.773C362.89 221.03 365.399 221.03 365.489 220.529C365.579 220.027 363.199 219.242 361.63 218.933C360.06 218.625 359.97 219.114 359.893 219.589Z" fill="#AFEFC1"/>
<path d="M361.077 225.301C361.077 225.815 361.077 226.227 362.659 226.317C364.241 226.407 366.724 226.124 366.75 225.61C366.776 225.095 364.319 224.542 362.762 224.452C361.206 224.362 361.103 224.786 361.077 225.301Z" fill="#AFEFC1"/>
<path d="M361.463 230.858C361.463 231.372 361.604 231.784 363.173 231.655C364.743 231.527 367.174 230.922 367.135 230.369C367.097 229.816 364.563 229.636 363.032 229.764C361.501 229.893 361.424 230.343 361.463 230.858Z" fill="#AFEFC1"/>
<path d="M364.627 236.196C364.627 236.582 364.717 236.891 365.643 236.826C366.569 236.762 368.01 236.325 367.984 235.939C367.958 235.553 366.466 235.347 365.527 235.424C364.588 235.501 364.588 235.836 364.627 236.196Z" fill="#AFEFC1"/>
<path d="M413.238 121.841L421.509 125.79V135.206L437.575 182.067L442 195.098L441.537 211.01L417.83 230.755L394.38 245.2C394.38 245.2 390.354 233.546 388.72 229.764C387.087 225.983 381.414 215.139 381.414 215.139L400.464 207.704L409.379 198.7L401.995 184.55L413.238 121.841Z" fill="#67CBAB"/>
<path d="M342.335 243.554C342.335 244.078 342.491 244.591 342.783 245.027C343.074 245.463 343.489 245.803 343.974 246.003C344.459 246.203 344.992 246.255 345.507 246.152C346.021 246.048 346.493 245.795 346.863 245.423C347.233 245.051 347.485 244.578 347.585 244.063C347.686 243.548 347.632 243.015 347.429 242.531C347.227 242.047 346.885 241.634 346.448 241.344C346.01 241.055 345.497 240.901 344.972 240.904C344.622 240.895 344.274 240.958 343.949 241.088C343.625 241.218 343.33 241.413 343.083 241.661C342.836 241.909 342.643 242.205 342.514 242.53C342.385 242.856 342.324 243.204 342.335 243.554Z" fill="#6BA093"/>
<path d="M343.621 242.267C343.621 242.792 343.777 243.305 344.069 243.741C344.36 244.177 344.775 244.517 345.26 244.717C345.745 244.917 346.278 244.969 346.793 244.865C347.307 244.762 347.779 244.508 348.149 244.137C348.519 243.765 348.771 243.291 348.872 242.777C348.972 242.262 348.918 241.728 348.715 241.244C348.513 240.761 348.171 240.348 347.734 240.058C347.296 239.768 346.783 239.615 346.258 239.618C345.908 239.609 345.56 239.671 345.236 239.801C344.911 239.932 344.616 240.127 344.369 240.375C344.122 240.623 343.929 240.919 343.8 241.244C343.671 241.569 343.611 241.918 343.621 242.267Z" fill="#83DBA6"/>
<path d="M346.734 243.168C346.734 243.265 346.763 243.359 346.817 243.439C346.87 243.52 346.947 243.583 347.036 243.62C347.125 243.657 347.224 243.666 347.318 243.647C347.413 243.628 347.5 243.582 347.569 243.514C347.637 243.445 347.684 243.358 347.703 243.263C347.721 243.168 347.712 243.07 347.675 242.981C347.638 242.892 347.575 242.815 347.495 242.761C347.414 242.708 347.32 242.679 347.223 242.679C347.093 242.679 346.969 242.731 346.877 242.822C346.786 242.914 346.734 243.038 346.734 243.168Z" fill="#356054"/>
<path d="M344.805 243.168C344.805 243.265 344.833 243.359 344.887 243.439C344.941 243.52 345.017 243.583 345.106 243.62C345.196 243.657 345.294 243.666 345.389 243.647C345.484 243.628 345.571 243.582 345.639 243.514C345.707 243.445 345.754 243.358 345.773 243.263C345.792 243.168 345.782 243.07 345.745 242.981C345.708 242.892 345.645 242.815 345.565 242.761C345.485 242.708 345.39 242.679 345.293 242.679C345.164 242.679 345.039 242.731 344.948 242.822C344.856 242.914 344.805 243.038 344.805 243.168Z" fill="#356054"/>
<path d="M345.293 241.714C345.39 241.714 345.485 241.686 345.565 241.632C345.645 241.578 345.708 241.502 345.745 241.413C345.782 241.323 345.792 241.225 345.773 241.13C345.754 241.035 345.707 240.948 345.639 240.88C345.571 240.812 345.484 240.765 345.389 240.746C345.294 240.727 345.196 240.737 345.106 240.774C345.017 240.811 344.941 240.874 344.887 240.954C344.833 241.034 344.805 241.129 344.805 241.226C344.805 241.355 344.856 241.48 344.948 241.571C345.039 241.663 345.164 241.714 345.293 241.714Z" fill="#356054"/>
<path d="M347.223 241.714C347.32 241.714 347.414 241.686 347.495 241.632C347.575 241.578 347.638 241.502 347.675 241.413C347.712 241.323 347.721 241.225 347.703 241.13C347.684 241.035 347.637 240.948 347.569 240.88C347.5 240.812 347.413 240.765 347.318 240.746C347.224 240.727 347.125 240.737 347.036 240.774C346.947 240.811 346.87 240.874 346.817 240.954C346.763 241.034 346.734 241.129 346.734 241.226C346.734 241.355 346.786 241.48 346.877 241.571C346.969 241.663 347.093 241.714 347.223 241.714Z" fill="#356054"/>
<path d="M397.943 239.888C398.036 240.048 398.174 240.178 398.34 240.26C398.507 240.341 398.694 240.372 398.878 240.348C399.062 240.324 399.234 240.246 399.374 240.124C399.513 240.002 399.614 239.841 399.662 239.662C399.71 239.483 399.704 239.294 399.645 239.118C399.586 238.942 399.476 238.788 399.33 238.674C399.183 238.561 399.006 238.493 398.821 238.48C398.636 238.467 398.451 238.51 398.29 238.601C398.075 238.728 397.919 238.933 397.854 239.174C397.789 239.414 397.821 239.671 397.943 239.888Z" fill="#83DBA6"/>
<path d="M395.898 241.071C395.991 241.232 396.129 241.361 396.296 241.443C396.462 241.525 396.649 241.556 396.833 241.532C397.017 241.507 397.189 241.429 397.329 241.307C397.468 241.185 397.569 241.024 397.617 240.845C397.665 240.666 397.66 240.477 397.6 240.301C397.541 240.125 397.431 239.971 397.285 239.858C397.138 239.744 396.961 239.677 396.776 239.664C396.591 239.651 396.406 239.693 396.245 239.785C396.138 239.846 396.043 239.928 395.967 240.026C395.892 240.124 395.836 240.236 395.804 240.356C395.772 240.475 395.763 240.6 395.779 240.723C395.796 240.846 395.836 240.964 395.898 241.071Z" fill="#83DBA6"/>
<path d="M400.001 238.717C400.094 238.878 400.233 239.007 400.399 239.089C400.565 239.171 400.752 239.202 400.936 239.178C401.12 239.153 401.293 239.075 401.432 238.953C401.572 238.831 401.672 238.67 401.72 238.491C401.769 238.312 401.763 238.123 401.704 237.947C401.645 237.771 401.535 237.617 401.388 237.504C401.241 237.39 401.064 237.323 400.879 237.31C400.694 237.297 400.51 237.339 400.349 237.431C400.24 237.491 400.144 237.572 400.067 237.67C399.991 237.768 399.934 237.88 399.902 238C399.87 238.12 399.862 238.246 399.879 238.369C399.896 238.492 399.938 238.61 400.001 238.717Z" fill="#83DBA6"/>
<path d="M399.088 239.772C399.115 239.807 399.153 239.831 399.196 239.839C399.239 239.848 399.284 239.84 399.322 239.818C399.36 239.796 399.388 239.761 399.402 239.719C399.416 239.678 399.414 239.632 399.397 239.592C399.363 239.561 399.32 239.544 399.274 239.544C399.229 239.544 399.185 239.561 399.152 239.592C399.126 239.613 399.106 239.641 399.094 239.673C399.083 239.705 399.081 239.739 399.088 239.772Z" fill="#356054"/>
<path d="M398.483 240.106C398.494 240.128 398.509 240.147 398.527 240.162C398.546 240.177 398.567 240.188 398.591 240.194C398.614 240.201 398.638 240.202 398.662 240.197C398.685 240.193 398.708 240.184 398.728 240.171C398.765 240.147 398.792 240.11 398.804 240.067C398.816 240.025 398.812 239.979 398.792 239.939C398.781 239.918 398.766 239.899 398.748 239.884C398.729 239.868 398.708 239.857 398.684 239.851C398.661 239.845 398.637 239.844 398.613 239.848C398.59 239.852 398.567 239.861 398.547 239.875C398.51 239.899 398.483 239.936 398.471 239.978C398.459 240.021 398.463 240.067 398.483 240.106Z" fill="#356054"/>
<path d="M398.38 239.579C398.411 239.552 398.431 239.516 398.439 239.476C398.446 239.435 398.439 239.394 398.42 239.358C398.4 239.322 398.369 239.294 398.332 239.278C398.294 239.262 398.252 239.259 398.213 239.27C398.182 239.304 398.165 239.347 398.165 239.393C398.165 239.438 398.182 239.481 398.213 239.515C398.232 239.54 398.258 239.56 398.287 239.571C398.317 239.583 398.349 239.585 398.38 239.579Z" fill="#356054"/>
<path d="M398.972 239.232C398.993 239.223 399.012 239.209 399.027 239.191C399.043 239.174 399.054 239.154 399.06 239.131C399.066 239.109 399.067 239.086 399.063 239.063C399.059 239.04 399.05 239.019 399.037 239C399.005 238.97 398.964 238.954 398.921 238.954C398.878 238.954 398.836 238.97 398.805 239C398.786 239.011 398.769 239.026 398.755 239.043C398.741 239.061 398.731 239.081 398.725 239.103C398.719 239.124 398.717 239.147 398.72 239.169C398.723 239.191 398.73 239.212 398.741 239.232C398.752 239.251 398.766 239.268 398.784 239.282C398.802 239.296 398.822 239.306 398.843 239.312C398.865 239.318 398.887 239.319 398.909 239.317C398.931 239.314 398.953 239.307 398.972 239.296V239.232Z" fill="#356054"/>
<path d="M397.03 240.981C397.046 240.998 397.064 241.011 397.085 241.02C397.106 241.03 397.129 241.034 397.152 241.034C397.175 241.034 397.198 241.03 397.219 241.02C397.24 241.011 397.259 240.998 397.274 240.981C397.301 240.949 397.316 240.908 397.316 240.865C397.316 240.823 397.301 240.782 397.274 240.75C397.247 240.719 397.211 240.698 397.171 240.691C397.131 240.684 397.089 240.691 397.053 240.71C397.017 240.73 396.989 240.761 396.973 240.798C396.957 240.836 396.955 240.878 396.966 240.917L397.03 240.981Z" fill="#356054"/>
<path d="M396.438 241.29C396.462 241.327 396.499 241.354 396.542 241.366C396.584 241.378 396.63 241.374 396.67 241.354C396.686 241.339 396.7 241.32 396.709 241.299C396.718 241.278 396.723 241.255 396.723 241.232C396.723 241.209 396.718 241.186 396.709 241.165C396.7 241.144 396.686 241.125 396.67 241.11C396.646 241.072 396.609 241.045 396.566 241.033C396.523 241.022 396.478 241.026 396.438 241.045C396.407 241.079 396.39 241.122 396.39 241.168C396.39 241.213 396.407 241.257 396.438 241.29Z" fill="#356054"/>
<path d="M396.335 240.75C396.362 240.717 396.377 240.676 396.377 240.634C396.377 240.592 396.362 240.551 396.335 240.518C396.324 240.497 396.309 240.478 396.291 240.462C396.272 240.447 396.25 240.436 396.227 240.43C396.204 240.424 396.18 240.423 396.156 240.427C396.133 240.431 396.11 240.44 396.09 240.454C396.053 240.478 396.026 240.515 396.014 240.557C396.002 240.6 396.006 240.646 396.026 240.685C396.031 240.72 396.046 240.752 396.069 240.777C396.093 240.802 396.124 240.82 396.158 240.827C396.192 240.834 396.227 240.83 396.258 240.816C396.29 240.803 396.317 240.779 396.335 240.75Z" fill="#356054"/>
<path d="M396.927 240.415C396.968 240.391 396.998 240.352 397.01 240.306C397.022 240.26 397.015 240.212 396.992 240.171C396.974 240.14 396.947 240.115 396.915 240.099C396.883 240.083 396.847 240.077 396.812 240.082C396.776 240.086 396.743 240.102 396.716 240.125C396.69 240.149 396.67 240.18 396.661 240.214C396.652 240.249 396.654 240.286 396.665 240.319C396.677 240.353 396.699 240.383 396.727 240.404C396.756 240.426 396.79 240.438 396.826 240.44C396.861 240.442 396.897 240.433 396.927 240.415Z" fill="#356054"/>
<path d="M401.133 238.589C401.155 238.628 401.192 238.657 401.236 238.669C401.279 238.681 401.326 238.675 401.365 238.653C401.404 238.631 401.433 238.594 401.445 238.55C401.457 238.507 401.451 238.461 401.429 238.421C401.405 238.384 401.368 238.357 401.326 238.345C401.283 238.333 401.237 238.337 401.198 238.357C401.178 238.368 401.161 238.382 401.147 238.4C401.133 238.417 401.122 238.438 401.116 238.459C401.11 238.481 401.109 238.503 401.112 238.526C401.115 238.548 401.122 238.569 401.133 238.589Z" fill="#356054"/>
<path d="M400.542 238.936C400.556 238.952 400.574 238.966 400.594 238.975C400.614 238.984 400.635 238.988 400.657 238.988C400.679 238.988 400.701 238.984 400.721 238.975C400.741 238.966 400.759 238.952 400.773 238.936C400.793 238.925 400.81 238.911 400.824 238.893C400.838 238.876 400.848 238.855 400.854 238.834C400.86 238.812 400.862 238.79 400.859 238.767C400.856 238.745 400.849 238.724 400.837 238.704C400.806 238.675 400.765 238.658 400.722 238.658C400.678 238.658 400.637 238.675 400.606 238.704C400.585 238.714 400.566 238.727 400.551 238.745C400.536 238.762 400.524 238.783 400.518 238.805C400.512 238.827 400.511 238.85 400.515 238.873C400.519 238.896 400.528 238.917 400.542 238.936Z" fill="#356054"/>
<path d="M400.374 238.409C400.396 238.398 400.415 238.383 400.43 238.364C400.445 238.346 400.456 238.324 400.462 238.301C400.468 238.278 400.469 238.254 400.465 238.23C400.461 238.206 400.452 238.184 400.439 238.164C400.415 238.127 400.378 238.1 400.335 238.088C400.292 238.076 400.247 238.08 400.207 238.1C400.176 238.127 400.156 238.163 400.149 238.203C400.142 238.244 400.148 238.285 400.168 238.321C400.187 238.357 400.218 238.385 400.256 238.401C400.293 238.417 400.335 238.419 400.374 238.409Z" fill="#356054"/>
<path d="M401.03 238.061C401.068 238.037 401.095 238 401.107 237.958C401.119 237.915 401.114 237.869 401.095 237.83C401.084 237.808 401.069 237.789 401.05 237.774C401.032 237.759 401.01 237.748 400.987 237.742C400.964 237.736 400.94 237.735 400.916 237.739C400.892 237.743 400.87 237.752 400.85 237.765C400.831 237.776 400.813 237.791 400.799 237.808C400.785 237.826 400.775 237.846 400.769 237.867C400.763 237.889 400.761 237.912 400.764 237.934C400.767 237.956 400.775 237.978 400.786 237.997C400.796 238.018 400.812 238.037 400.83 238.053C400.849 238.068 400.87 238.079 400.893 238.085C400.917 238.091 400.941 238.092 400.964 238.088C400.988 238.084 401.01 238.075 401.03 238.061Z" fill="#356054"/>
<path d="M345.73 223.423C345.73 223.423 349.487 237.251 349.68 242.473C349.872 247.696 346.502 260.984 346.502 260.984L346.425 260.057C346.425 260.057 349.178 247.413 348.921 242.473C348.663 238.177 345.756 223.423 345.756 223.423H345.73Z" fill="#528477"/>
<path d="M354.044 16.2848L335.799 46.3938H345.903L339.726 69.4664L358.176 39.112H348.031L354.044 16.2848Z" fill="white"/>
<path d="M37.6139 118.835C38.1564 122.699 32.4246 123.603 31.751 119.761C31.2085 115.897 36.9403 114.993 37.6139 118.835Z" fill="#677088"/>
<path d="M22.3974 95.0969C20.1029 88.1002 25.5619 81.2913 32.8793 81.7892C42.506 82.6238 44.5229 95.0286 39.0577 101.563C36.4352 104.379 34.0774 109.217 34.2981 112.653C34.357 114.689 32.6854 114.567 32.0329 112.765C29.6987 104.405 34.3048 102.062 36.1343 95.408C37.4346 84.687 25.6759 86.625 23.8784 95.0259C23.676 95.7467 22.6192 95.8468 22.3974 95.0969Z" fill="#677088"/>
<path d="M83.7288 118.257C82.7957 120.851 78.9158 119.529 79.76 116.905C80.693 114.312 84.5729 115.634 83.7288 118.257Z" fill="#677088"/>
<path d="M82.0351 98.4121C82.9048 93.284 88.5582 90.8261 92.9674 93.5464C98.7089 97.2376 95.8852 105.654 90.3184 107.938C87.752 108.835 84.6858 111.082 83.6924 113.302C83.0588 114.594 82.0545 113.967 82.2397 112.627C83.5335 106.633 87.1835 106.686 90.5177 103.129C94.8602 96.8572 86.8734 94.1969 82.9841 98.8554C82.6203 99.2392 81.9269 98.9538 82.0351 98.4121Z" fill="#677088"/>
<path d="M151.633 116.78C154.563 120.63 148.912 125.084 145.854 121.337C142.924 117.487 148.574 113.033 151.633 116.78Z" fill="#677088"/>
<path d="M120.781 100.336C114.056 94.1605 115.831 83.4861 124.046 79.5868C134.963 74.6511 144.668 86.8435 142.72 97.2244C141.592 101.861 141.976 108.523 144.298 112.105C145.597 114.271 143.715 115.152 141.917 113.6C134.322 105.974 137.883 100.647 135.826 92.3412C130.73 79.9581 119.188 89.1853 122.339 99.3608C122.558 100.263 121.475 101.012 120.781 100.336Z" fill="#677088"/>
<path d="M73.2305 210.661L82.051 209.089L74.7348 203.619C70.3273 200.102 66.7977 195.61 64.4244 190.495C62.0511 185.381 60.8991 179.785 61.0596 174.149C61.0596 155.14 73.4356 139.961 88.41 139.961C103.384 139.961 115.76 155.345 115.76 174.149C115.905 179.782 114.746 185.373 112.374 190.485C110.002 195.597 106.481 200.092 102.085 203.619L94.7006 209.089L103.726 210.661C125.743 214.422 141.743 225.636 144.752 238.696H32.4783C35.2134 225.636 51.2134 214.422 73.2305 210.661Z" fill="#67CBAB"/>
<path d="M53.5384 174.148C53.3628 185.239 57.1993 196.021 64.3418 204.507C54.567 206.795 45.4158 211.207 37.5383 217.431H-0.000190735C-0.000190735 204.371 14.3588 193.431 34.1879 190.08C30.4838 187.098 27.5195 183.3 25.5268 178.982C23.534 174.665 22.5668 169.945 22.7007 165.191C22.7007 148.986 33.5041 135.858 46.8375 135.858C50.1879 135.938 53.4771 136.773 56.4603 138.3C59.4435 139.827 62.044 142.007 64.0683 144.678C57.2585 152.99 53.5377 163.403 53.5384 174.148Z" fill="#677088"/>
<path d="M113.709 204.507C120.62 196.091 124.455 185.569 124.579 174.679C124.703 163.789 121.11 153.182 114.393 144.61C116.417 141.939 119.017 139.759 122 138.232C124.984 136.704 128.273 135.87 131.623 135.789C145.299 135.789 155.76 148.918 155.76 165.123C155.881 169.881 154.9 174.603 152.896 178.92C150.892 183.237 147.917 187.033 144.204 190.012C163.76 193.43 178.393 204.371 178.393 217.362H140.786C132.822 211.127 123.574 206.737 113.709 204.507Z" fill="#677088"/>
</svg>
