<svg width="54" height="54" viewBox="0 0 54 54" fill="none" xmlns="http://www.w3.org/2000/svg">
<path d="M25.5273 14.9043L29.6584 10.7733C31.3807 9.0542 33.715 8.0892 36.1483 8.09033C38.5817 8.09146 40.9151 9.05862 42.6358 10.7793C44.3564 12.4999 45.3236 14.8333 45.3247 17.2667C45.3259 19.7001 44.3609 22.0344 42.6418 23.7566L38.5107 27.8877" stroke="#67CBAB" stroke-width="2.22561" stroke-linecap="round" stroke-linejoin="round"/>
<path d="M27.8875 38.5102L23.7564 42.6413C22.9041 43.4947 21.892 44.1717 20.7779 44.6338C19.6638 45.0959 18.4696 45.3339 17.2635 45.3343C16.0574 45.3346 14.8631 45.0973 13.7487 44.636C12.6344 44.1746 11.6219 43.4981 10.769 42.6453C9.91619 41.7925 9.23975 40.7799 8.77837 39.6656C8.31699 38.5512 8.07971 37.3569 8.08008 36.1508C8.08045 34.9447 8.31847 33.7505 8.78053 32.6364C9.2426 31.5224 9.91966 30.5102 10.773 29.6579L14.9041 25.5269" stroke="#67CBAB" stroke-width="2.22561" stroke-linecap="round" stroke-linejoin="round"/>
<path d="M19.625 14.9041V10.1829" stroke="#67CBAB" stroke-width="2.22561" stroke-linecap="round" stroke-linejoin="round"/>
<path d="M14.9038 19.6254H10.1826" stroke="#67CBAB" stroke-width="2.22561" stroke-linecap="round" stroke-linejoin="round"/>
<path d="M38.5107 33.7893H43.232" stroke="#67CBAB" stroke-width="2.22561" stroke-linecap="round" stroke-linejoin="round"/>
<path d="M33.7891 38.5103V43.2315" stroke="#67CBAB" stroke-width="2.22561" stroke-linecap="round" stroke-linejoin="round"/>
</svg>
