<svg width="429" height="352" viewBox="0 0 429 352" fill="none" xmlns="http://www.w3.org/2000/svg">
<path d="M380.674 45.5278H300.144V124.86H380.674V45.5278Z" fill="#E6FFF8"/>
<path d="M362.858 71.7694H360.692V81.807H362.858V71.7694Z" fill="#241F3C"/>
<path d="M363.094 78.7426H360.548C360.316 78.9318 360.129 79.1709 360.001 79.442C359.874 79.7132 359.809 80.0095 359.812 80.3091V82.1459H363.824V80.3091C363.827 80.0101 363.762 79.7142 363.636 79.4432C363.51 79.1721 363.324 78.9328 363.094 78.7426Z" fill="#67CBAB"/>
<path d="M359.731 82.7352C359.567 82.7352 359.406 82.7748 359.26 82.8507C359.115 82.9266 358.99 83.0365 358.896 83.1712C358.802 83.3058 358.742 83.4611 358.721 83.6238C358.7 83.7866 358.719 83.952 358.776 84.106L360.818 89.5497C360.846 89.6199 360.897 89.678 360.964 89.7138C361.03 89.7497 361.107 89.7609 361.18 89.7455C361.26 89.7298 361.33 89.6847 361.377 89.6193C361.424 89.5539 361.445 89.4731 361.435 89.393L360.744 83.6321C360.714 83.3844 360.595 83.1562 360.408 82.9908C360.222 82.8254 359.981 82.7345 359.731 82.7352Z" fill="#241F3C"/>
<path d="M364.002 82.7352C364.166 82.735 364.327 82.7746 364.473 82.8505C364.618 82.9264 364.743 83.0364 364.837 83.1711C364.931 83.3058 364.991 83.4612 365.011 83.624C365.032 83.7868 365.013 83.9522 364.955 84.106L362.915 89.5497C362.887 89.6198 362.836 89.678 362.77 89.7138C362.703 89.7497 362.626 89.7609 362.553 89.7455C362.473 89.7298 362.403 89.6848 362.355 89.6195C362.308 89.5541 362.287 89.4733 362.296 89.393L362.991 83.6223C363.023 83.3767 363.143 83.1511 363.329 82.9878C363.515 82.8245 363.754 82.7347 364.002 82.7352Z" fill="#241F3C"/>
<path d="M364.21 82.1281H359.467V82.7038H364.21V82.1281Z" fill="#241F3C"/>
<path d="M360.759 82.7567C360.759 82.849 360.732 82.9391 360.681 83.0158C360.629 83.0925 360.556 83.1522 360.471 83.1875C360.386 83.2227 360.292 83.2318 360.202 83.2136C360.111 83.1955 360.028 83.1509 359.963 83.0855C359.898 83.0202 359.854 82.9369 359.836 82.8464C359.818 82.7559 359.828 82.6621 359.863 82.577C359.899 82.4919 359.959 82.4192 360.036 82.3682C360.113 82.3173 360.203 82.2903 360.295 82.2907C360.356 82.2907 360.417 82.3027 360.473 82.3262C360.53 82.3496 360.581 82.384 360.624 82.4273C360.667 82.4706 360.701 82.522 360.724 82.5785C360.748 82.635 360.759 82.6956 360.759 82.7567Z" fill="#241F3C"/>
<path d="M363.831 82.7567C363.831 82.8484 363.804 82.9379 363.752 83.014C363.701 83.0901 363.628 83.1492 363.544 83.1841C363.459 83.2189 363.366 83.2278 363.276 83.2097C363.186 83.1915 363.103 83.1472 363.039 83.0822C362.974 83.0172 362.93 82.9345 362.912 82.8446C362.894 82.7546 362.904 82.6614 362.939 82.5767C362.974 82.492 363.033 82.4196 363.11 82.3687C363.186 82.3178 363.276 82.2907 363.367 82.2906C363.429 82.2906 363.489 82.3027 363.545 82.3262C363.602 82.3496 363.653 82.384 363.696 82.4273C363.739 82.4706 363.774 82.522 363.797 82.5785C363.82 82.635 363.832 82.6956 363.831 82.7567Z" fill="#241F3C"/>
<path d="M361.748 70.1069H351.419V73.43H361.748V70.1069Z" fill="#241F3C"/>
<path d="M352.676 75.4059H345.983C345.505 75.4061 345.032 75.3122 344.591 75.1296C344.15 74.9469 343.749 74.6791 343.411 74.3414C343.073 74.0037 342.806 73.6027 342.623 73.1614C342.44 72.7201 342.346 72.2471 342.347 71.7695C342.346 71.2918 342.44 70.8188 342.623 70.3774C342.806 69.936 343.073 69.5349 343.411 69.197C343.749 68.8591 344.15 68.5911 344.591 68.4082C345.032 68.2253 345.505 68.1312 345.983 68.1312H352.676V75.4059Z" fill="#67CBAB"/>
<path d="M361.343 75.4059H356.632V68.1312H361.347C361.825 68.131 362.298 68.2249 362.74 68.4076C363.181 68.5904 363.582 68.8584 363.92 69.1963C364.258 69.5342 364.526 69.9354 364.709 70.3769C364.892 70.8184 364.986 71.2917 364.985 71.7695C364.985 72.2476 364.891 72.7209 364.708 73.1624C364.525 73.604 364.257 74.0051 363.918 74.3429C363.58 74.6806 363.178 74.9484 362.737 75.1307C362.295 75.3131 361.821 75.4066 361.343 75.4059Z" fill="#67CBAB"/>
<path d="M362.202 73.5043C361.852 73.651 361.467 73.6908 361.095 73.6186C360.723 73.5463 360.38 73.3653 360.111 73.0984C359.841 72.8315 359.657 72.4907 359.582 72.1191C359.506 71.7475 359.542 71.3618 359.686 71.0108C359.829 70.6598 360.074 70.3593 360.388 70.1473C360.702 69.9352 361.073 69.8212 361.452 69.8196C361.831 69.818 362.202 69.9289 362.518 70.1383C362.835 70.3476 363.082 70.6461 363.228 70.9958C363.424 71.4646 363.426 71.9919 363.234 72.4621C363.041 72.9324 362.67 73.3071 362.202 73.5043ZM361.027 70.7139C360.825 70.7993 360.652 70.9429 360.531 71.1265C360.411 71.3101 360.347 71.5254 360.349 71.7452C360.35 71.9649 360.417 72.1793 360.541 72.361C360.664 72.5428 360.839 72.6838 361.043 72.7661C361.246 72.8485 361.47 72.8686 361.685 72.8238C361.9 72.779 362.097 72.6713 362.251 72.5145C362.405 72.3576 362.509 72.1586 362.55 71.9426C362.591 71.7267 362.566 71.5035 362.48 71.3013C362.365 71.0321 362.148 70.8193 361.877 70.7092C361.605 70.5992 361.301 70.6009 361.031 70.7139H361.027Z" fill="#241F3C"/>
<path d="M332.584 87.038L326.818 78.1113L324.955 79.3151L330.721 88.2418L332.584 87.038Z" fill="#241F3C"/>
<path d="M314.306 92.5143C313.89 91.8685 313.748 91.084 313.91 90.3334C314.073 89.5828 314.527 88.9276 315.173 88.5118L330.079 78.9167L333.212 83.7887L318.306 93.3838C317.986 93.5895 317.629 93.7301 317.255 93.7977C316.881 93.8654 316.497 93.8586 316.126 93.7779C315.754 93.6971 315.402 93.544 315.09 93.3272C314.778 93.1104 314.511 92.8342 314.306 92.5143Z" fill="#241F3C"/>
<path d="M331.927 88.4062L348.051 76.4613C349.05 75.7223 349.729 74.6299 349.95 73.4072C350.171 72.1845 349.917 70.9236 349.239 69.8818C348.563 68.8401 347.514 68.0956 346.308 67.8002C345.101 67.5048 343.828 67.6806 342.746 68.2918L325.318 78.1649L331.927 88.4062Z" fill="#67CBAB"/>
<path d="M346.84 75.1805C346.321 75.5184 345.713 75.6946 345.093 75.6868C344.473 75.679 343.869 75.4876 343.358 75.1367C342.848 74.7858 342.452 74.2913 342.222 73.7156C341.993 73.14 341.939 72.5091 342.067 71.9028C342.196 71.2965 342.502 70.7421 342.946 70.3096C343.39 69.8771 343.952 69.5861 344.562 69.4732C345.171 69.3604 345.801 69.4309 346.37 69.6758C346.939 69.9207 347.423 70.329 347.761 70.849C348.212 71.5455 348.369 72.393 348.197 73.2052C348.024 74.0173 347.536 74.7278 346.84 75.1805ZM344.148 71.035C343.847 71.2304 343.611 71.5106 343.47 71.8401C343.328 72.1696 343.287 72.5337 343.353 72.8864C343.418 73.239 343.587 73.5643 343.837 73.8211C344.087 74.0779 344.408 74.2548 344.759 74.3293C345.11 74.4037 345.475 74.3725 345.808 74.2396C346.141 74.1066 346.427 73.8779 346.63 73.5823C346.833 73.2867 346.944 72.9375 346.949 72.5789C346.953 72.2203 346.852 71.8683 346.656 71.5676C346.526 71.3671 346.358 71.1943 346.162 71.0589C345.965 70.9236 345.743 70.8284 345.51 70.7789C345.276 70.7294 345.035 70.7266 344.8 70.7705C344.566 70.8145 344.342 70.9043 344.142 71.035H344.148Z" fill="#241F3C"/>
<path d="M338.199 117.518C337.266 118.328 336.183 118.945 335.012 119.336C333.841 119.726 332.604 119.882 331.372 119.794C330.14 119.707 328.938 119.377 327.834 118.825C326.73 118.272 325.745 117.508 324.936 116.575L309.492 98.7669C308.683 97.8342 308.065 96.7513 307.675 95.5799C307.284 94.4085 307.128 93.1716 307.216 91.94C307.304 90.7083 307.633 89.506 308.186 88.4017C308.738 87.2974 309.503 86.3128 310.436 85.5042C311.369 84.6947 312.452 84.0769 313.623 83.6862C314.795 83.2955 316.032 83.1395 317.264 83.2272C318.496 83.3148 319.698 83.6444 320.803 84.1971C321.907 84.7497 322.892 85.5146 323.701 86.448L339.143 104.256C339.952 105.188 340.57 106.271 340.96 107.443C341.351 108.614 341.506 109.851 341.419 111.083C341.331 112.314 341.002 113.517 340.449 114.621C339.897 115.725 339.132 116.71 338.199 117.518Z" fill="#67CBAB"/>
<path d="M312.992 88.4491C312.252 89.0905 311.719 89.9368 311.46 90.8811C311.201 91.8253 311.228 92.8251 311.538 93.754C311.847 94.6829 312.425 95.4992 313.199 96.0996C313.972 96.7 314.906 97.0576 315.883 97.1272C316.859 97.1968 317.835 96.9752 318.685 96.4904C319.536 96.0057 320.224 95.2796 320.662 94.4039C321.1 93.5283 321.268 92.5424 321.146 91.571C321.024 90.5996 320.616 89.6862 319.975 88.9465C319.115 87.9546 317.896 87.3449 316.586 87.2517C315.277 87.1584 313.984 87.5891 312.992 88.4491ZM318.175 94.4274C317.733 94.8112 317.187 95.0552 316.606 95.1286C316.025 95.202 315.435 95.1015 314.911 94.8397C314.387 94.578 313.953 94.1668 313.663 93.6582C313.373 93.1495 313.24 92.5662 313.281 91.9821C313.323 91.398 313.536 90.8393 313.895 90.3766C314.254 89.9139 314.742 89.568 315.297 89.3826C315.853 89.1973 316.451 89.1808 317.016 89.3354C317.581 89.4899 318.087 89.8084 318.471 90.2506C318.985 90.8439 319.243 91.6171 319.187 92.4002C319.132 93.1834 318.768 93.9125 318.175 94.4274Z" fill="#241F3C"/>
<path d="M333.045 103.369C335.311 103.369 337.484 104.269 339.087 105.871C340.689 107.473 341.589 109.646 341.589 111.912V119.242H324.502V111.912C324.502 110.79 324.723 109.679 325.152 108.643C325.582 107.606 326.211 106.664 327.004 105.871C327.798 105.078 328.739 104.448 329.776 104.019C330.813 103.59 331.924 103.369 333.045 103.369Z" fill="#241F3C"/>
<path d="M330.587 108.851C330.007 109.355 329.589 110.019 329.386 110.76C329.183 111.501 329.204 112.285 329.447 113.014C329.69 113.743 330.144 114.384 330.75 114.855C331.357 115.326 332.09 115.607 332.856 115.661C333.623 115.716 334.388 115.542 335.055 115.162C335.723 114.782 336.263 114.213 336.607 113.526C336.951 112.839 337.083 112.065 336.988 111.303C336.892 110.541 336.573 109.824 336.07 109.243C335.736 108.857 335.329 108.541 334.873 108.312C334.416 108.084 333.919 107.947 333.41 107.911C332.901 107.875 332.389 107.939 331.905 108.1C331.421 108.262 330.973 108.517 330.587 108.851ZM334.654 113.551C334.307 113.852 333.878 114.044 333.422 114.102C332.966 114.159 332.503 114.08 332.092 113.875C331.681 113.669 331.339 113.346 331.112 112.947C330.884 112.547 330.78 112.089 330.813 111.631C330.845 111.172 331.013 110.733 331.295 110.37C331.577 110.007 331.96 109.736 332.396 109.59C332.833 109.445 333.302 109.432 333.745 109.554C334.189 109.675 334.586 109.926 334.887 110.273C335.29 110.737 335.492 111.342 335.449 111.955C335.407 112.567 335.124 113.139 334.662 113.543L334.654 113.551Z" fill="#67CBAB"/>
<path d="M349.582 127.548H316.969V122.984C316.969 121.876 317.409 120.815 318.192 120.032C318.975 119.249 320.037 118.809 321.144 118.809H345.403C345.952 118.808 346.495 118.916 347.002 119.125C347.509 119.335 347.97 119.642 348.358 120.03C348.746 120.418 349.054 120.878 349.264 121.385C349.474 121.892 349.582 122.435 349.582 122.984V127.548Z" fill="#312A52"/>
<path d="M354.885 124.871H311.613V133.611H354.885V124.871Z" fill="#241F3C"/>
<path d="M145.972 271.528H128.253C127.586 271.527 126.948 271.263 126.477 270.792C126.006 270.321 125.741 269.682 125.74 269.016C125.74 268.349 126.005 267.71 126.476 267.239C126.947 266.768 127.586 266.503 128.253 266.503H145.972C146.302 266.503 146.629 266.568 146.934 266.694C147.239 266.82 147.516 267.005 147.749 267.239C147.983 267.472 148.168 267.749 148.294 268.054C148.42 268.359 148.485 268.686 148.484 269.016C148.484 269.682 148.22 270.321 147.749 270.792C147.277 271.263 146.638 271.528 145.972 271.528Z" fill="#67CBAB"/>
<path d="M145.972 280.647H128.253C127.586 280.647 126.947 280.382 126.476 279.911C126.005 279.44 125.74 278.801 125.74 278.135C125.741 277.469 126.006 276.83 126.477 276.359C126.948 275.888 127.586 275.623 128.253 275.622H145.972C146.638 275.622 147.277 275.887 147.749 276.358C148.22 276.829 148.484 277.468 148.484 278.135C148.485 278.465 148.42 278.792 148.294 279.097C148.168 279.401 147.983 279.678 147.749 279.912C147.516 280.145 147.239 280.33 146.934 280.456C146.629 280.583 146.302 280.647 145.972 280.647Z" fill="#67CBAB"/>
<path d="M145.972 289.772H128.253C127.586 289.772 126.947 289.508 126.476 289.036C126.005 288.565 125.74 287.926 125.74 287.26C125.74 286.594 126.005 285.955 126.476 285.483C126.947 285.012 127.586 284.748 128.253 284.748H145.972C146.302 284.747 146.629 284.812 146.934 284.938C147.239 285.064 147.516 285.249 147.749 285.483C147.983 285.716 148.168 285.993 148.294 286.298C148.42 286.603 148.485 286.93 148.484 287.26C148.485 287.59 148.42 287.917 148.294 288.222C148.168 288.527 147.983 288.804 147.749 289.037C147.516 289.27 147.239 289.455 146.934 289.582C146.629 289.708 146.302 289.773 145.972 289.772Z" fill="#67CBAB"/>
<path d="M90.0468 346.814C83.6894 350.149 76.6159 351.886 69.4369 351.876C44.8931 351.876 25 331.979 25 307.439C25 282.899 44.8931 263 69.4369 263H69.5055V284.554C66.0369 284.555 62.6139 285.344 59.4952 286.862C56.3765 288.38 53.6436 290.587 51.5032 293.316C49.3627 296.046 47.8706 299.226 47.1397 302.616C46.4088 306.007 46.4581 309.52 47.2841 312.888C48.11 316.257 49.6909 319.394 51.9072 322.062C54.1235 324.73 56.9174 326.86 60.0775 328.289C63.2377 329.719 66.6815 330.412 70.1487 330.315C73.6159 330.219 77.0158 329.335 80.0914 327.732L90.0468 346.814Z" fill="#67CBAB"/>
<path d="M113.875 307.439C113.877 315.552 111.657 323.511 107.456 330.452C103.255 337.393 97.2344 343.052 90.0462 346.814L80.0908 327.728C83.7997 325.792 86.907 322.877 89.0751 319.3C91.2432 315.722 92.3891 311.618 92.3882 307.435L113.875 307.439Z" fill="#312A52"/>
<path d="M113.875 307.439H92.3882C92.3884 304.434 91.7967 301.458 90.6469 298.681C89.497 295.905 87.8114 293.382 85.6865 291.257C83.5616 289.132 81.0389 287.446 78.2624 286.296C75.4859 285.146 72.5101 284.554 69.5049 284.554V263C94.0174 263.037 113.875 282.919 113.875 307.439Z" fill="#CFFAEB"/>
<path d="M428.28 139H360V203.663H428.28V139Z" fill="#B3FFDF"/>
<path d="M378.687 174.204H372.23V192.862H378.687V174.204Z" fill="#FDFDFF"/>
<path d="M387.687 171.39H381.23V192.862H387.687V171.39Z" fill="#FDFDFF"/>
<path d="M396.687 165.684H390.23V192.862H396.687V165.684Z" fill="#FDFDFF"/>
<path d="M405.689 161.699H399.232V192.862H405.689V161.699Z" fill="#FDFDFF"/>
<path d="M414.689 153.103H408.232V192.862H414.689V153.103Z" fill="#FDFDFF"/>
<path d="M259.331 18.6245H154.938V117.616H259.331V18.6245Z" fill="#B8F5E9"/>
<path d="M224.918 117.673V103.247L216.367 78.9461V64.6396H198.168V78.9461L189.618 103.247V117.673H224.918Z" fill="#312A52"/>
<path d="M217.208 64.5848H197.072V65.4249H217.208V64.5848Z" fill="#312A52"/>
<path d="M280.613 115.468V79.4924L262.014 65.4875L244.165 79.4924H206.668V115.468H280.613Z" fill="#67CBAB"/>
<path d="M218.503 89.3911H210.617V96.8342H218.503V89.3911Z" fill="#312A52"/>
<path d="M228.22 89.3911H220.336V96.8342H228.22V89.3911Z" fill="#312A52"/>
<path d="M218.503 101.385H210.617V114.734H218.503V101.385Z" fill="#3BA371"/>
<path d="M226.821 101.385H218.936V114.734H226.821V101.385Z" fill="#3BA371"/>
<path d="M237.601 101.385H229.716V114.734H237.601V101.385Z" fill="#3BA371"/>
<path d="M245.92 101.385H238.034V114.734H245.92V101.385Z" fill="#3BA371"/>
<path d="M256.399 101.385H248.514V114.734H256.399V101.385Z" fill="#3BA371"/>
<path d="M264.718 101.385H256.832V114.734H264.718V101.385Z" fill="#3BA371"/>
<path d="M276.817 101.385H268.932V114.734H276.817V101.385Z" fill="#3BA371"/>
<path d="M237.939 89.3911H230.054V96.8342H237.939V89.3911Z" fill="#312A52"/>
<path d="M247.656 89.3911H239.772V96.8342H247.656V89.3911Z" fill="#312A52"/>
<path d="M257.377 89.3911H249.491V96.8342H257.377V89.3911Z" fill="#312A52"/>
<path d="M267.093 89.3911H259.209V96.8342H267.093V89.3911Z" fill="#312A52"/>
<path d="M276.813 89.3911H268.928V96.8342H276.813V89.3911Z" fill="#312A52"/>
<path d="M242.15 81.0002H231.409L231.95 70.1382L232.224 64.6377L232.876 51.5394H240.683L241.335 64.6377L241.609 70.1382L242.15 81.0002Z" fill="#67CBAB"/>
<path d="M227.54 81.0002H218.478L219.018 70.1382L219.292 64.6376L219.715 56.1392H226.302L226.725 64.6376L227 70.1382L227.54 81.0002Z" fill="#67CBAB"/>
<path d="M241.553 51.5082H232.173V52.0584H241.553V51.5082Z" fill="#67CBAB"/>
<path d="M227.183 56.0648H219.01V56.6151H227.183V56.0648Z" fill="#67CBAB"/>
<path d="M284.664 114.9H202.17V117.673H284.664V114.9Z" fill="#67CBAB"/>
<path d="M199.274 117.765V103.247L194.831 90.6208L190.722 78.9461V64.6396H172.523V78.9461L168.415 90.6208L163.972 103.247V117.765H199.274Z" fill="white"/>
<path d="M191.562 64.5848H171.426V65.4249H191.562V64.5848Z" fill="white"/>
<path d="M194.831 90.6207H168.415L172.523 78.946V73.4103H190.723V78.946L194.831 90.6207Z" fill="#67CBAB"/>
<path d="M226.725 64.6378L226.999 70.1383H219.018L219.292 64.6378H226.725Z" fill="white"/>
<path d="M241.609 70.1383H231.949L232.223 64.6378H241.335L241.609 70.1383Z" fill="white"/>
<path d="M238.581 47.8028C239.928 46.4553 239.928 44.2707 238.581 42.9233C237.234 41.5759 235.049 41.5759 233.701 42.9233C232.354 44.2707 232.354 46.4553 233.701 47.8028C235.049 49.1502 237.234 49.1502 238.581 47.8028Z" fill="white"/>
<path d="M238.466 41.559C239.512 39.0331 238.313 36.1374 235.787 35.0911C233.261 34.0449 230.365 35.2443 229.319 37.7702C228.273 40.296 229.472 43.1918 231.998 44.238C234.524 45.2843 237.42 44.0848 238.466 41.559Z" fill="white"/>
<path d="M234.034 36.9564C236.846 34.1446 236.846 29.5857 234.034 26.7738C231.222 23.9619 226.663 23.9619 223.851 26.7738C221.039 29.5856 221.039 34.1446 223.851 36.9564C226.663 39.7683 231.222 39.7683 234.034 36.9564Z" fill="white"/>
<path d="M225.977 34.4251C232.024 32.9979 235.769 26.9389 234.341 20.892C232.914 14.8451 226.855 11.1001 220.808 12.5273C214.761 13.9545 211.016 20.0134 212.444 26.0604C213.871 32.1073 219.93 35.8523 225.977 34.4251Z" fill="white"/>
<path d="M220.732 54.087C222.637 54.087 224.182 52.5423 224.182 50.6367C224.182 48.7312 222.637 47.1864 220.732 47.1864C218.826 47.1864 217.281 48.7312 217.281 50.6367C217.281 52.5423 218.826 54.087 220.732 54.087Z" fill="white"/>
<path d="M218.482 49.8868C221.215 49.8868 223.432 47.6704 223.432 44.9365C223.432 42.2025 221.215 39.9862 218.482 39.9862C215.748 39.9862 213.531 42.2025 213.531 44.9365C213.531 47.6704 215.748 49.8868 218.482 49.8868Z" fill="white"/>
<path d="M218.624 42.2274C221.435 39.4156 221.435 34.8566 218.624 32.0448C215.812 29.2329 211.253 29.2329 208.441 32.0448C205.629 34.8566 205.629 39.4156 208.441 42.2274C211.253 45.0393 215.812 45.0393 218.624 42.2274Z" fill="white"/>
<path d="M207.983 39.9881C214.196 39.9881 219.233 34.9514 219.233 28.7384C219.233 22.5253 214.196 17.4886 207.983 17.4886C201.77 17.4886 196.733 22.5253 196.733 28.7384C196.733 34.9514 201.77 39.9881 207.983 39.9881Z" fill="white"/>
<path d="M210.186 30.332C215.77 24.748 215.77 15.6946 210.186 10.1107C204.602 4.52669 195.549 4.5267 189.965 10.1107C184.381 15.6946 184.381 24.748 189.965 30.332C195.549 35.9159 204.602 35.9159 210.186 30.332Z" fill="white"/>
<path d="M179.511 13.0632C175.423 13.0632 171.501 14.6875 168.61 17.5787C165.719 20.4699 164.095 24.3912 164.095 28.48C164.095 36.9961 179.511 51.6824 179.511 51.6824C179.511 51.6824 194.93 36.9961 194.93 28.48C194.93 26.4553 194.531 24.4504 193.756 22.5798C192.982 20.7092 191.846 19.0096 190.414 17.578C188.982 16.1464 187.282 15.0109 185.412 14.2362C183.541 13.4616 181.536 13.063 179.511 13.0632ZM179.511 32.7468C178.475 32.7468 177.462 32.4395 176.6 31.8637C175.739 31.2879 175.067 30.4696 174.67 29.5121C174.274 28.5546 174.17 27.5009 174.372 26.4845C174.574 25.468 175.073 24.5343 175.806 23.8015C176.539 23.0686 177.473 22.5696 178.489 22.3674C179.506 22.1652 180.559 22.2689 181.517 22.6656C182.474 23.0622 183.293 23.7338 183.868 24.5955C184.444 25.4573 184.752 26.4704 184.752 27.5068C184.752 28.8965 184.199 30.2294 183.217 31.2121C182.234 32.1948 180.901 32.7468 179.511 32.7468Z" fill="#1FC274"/>
<path d="M131.743 63.6743H8.25586V185.322H131.743V63.6743Z" fill="#D9FFED"/>
<path d="M58.6785 48.7472H32.3938C28.3643 48.7472 25.0977 52.0138 25.0977 56.0434C25.0977 60.0729 28.3643 63.3395 32.3938 63.3395H58.6785C62.708 63.3395 65.9746 60.0729 65.9746 56.0434C65.9746 52.0138 62.708 48.7472 58.6785 48.7472Z" fill="#67CBAB"/>
<path d="M47.6503 72.3783H42.7529V94.2335H47.6503V72.3783Z" fill="#241F3C"/>
<path d="M70.0299 118.614L55.3945 134.845L59.0317 138.125L73.6671 121.893L70.0299 118.614Z" fill="#241F3C"/>
<path d="M51.2311 143.362L46.334 143.415L46.4928 158.093L51.3899 158.04L51.2311 143.362Z" fill="#241F3C"/>
<path d="M50.0926 57.5138C50.0926 54.8123 47.9026 52.6223 45.2011 52.6223C42.4996 52.6223 40.3096 54.8123 40.3096 57.5138V73.3438C40.3096 76.0453 42.4996 78.2353 45.2011 78.2353C47.9026 78.2353 50.0926 76.0453 50.0926 73.3438V57.5138Z" fill="#67CBAB"/>
<path d="M44.0772 70.6963C43.5578 70.9198 43.1164 71.2925 42.8089 71.767C42.5014 72.2416 42.3417 72.7967 42.3499 73.3621C42.3581 73.9275 42.5339 74.4777 42.8551 74.9432C43.1762 75.4086 43.6282 75.7682 44.1539 75.9766C44.6796 76.1849 45.2553 76.2326 45.8081 76.1136C46.3608 75.9945 46.8659 75.7141 47.2592 75.3079C47.6525 74.9016 47.9164 74.3878 48.0175 73.8314C48.1186 73.2751 48.0524 72.7012 47.8271 72.1826C47.5256 71.4894 46.9617 70.9439 46.259 70.6654C45.5562 70.3869 44.7718 70.398 44.0772 70.6963Z" fill="#241F3C"/>
<path d="M30.9392 52.4519C30.2589 52.7374 29.6786 53.2181 29.2715 53.8334C28.8645 54.4487 28.649 55.1709 28.6524 55.9086C28.6557 56.6463 28.8778 57.3665 29.2904 57.9781C29.703 58.5896 30.2877 59.0651 30.9706 59.3443C31.6534 59.6236 32.4037 59.6941 33.1266 59.547C33.8496 59.3999 34.5126 59.0417 35.032 58.5177C35.5513 57.9938 35.9037 57.3276 36.0445 56.6034C36.1852 55.8793 36.1081 55.1296 35.8229 54.4492C35.439 53.5377 34.7093 52.8155 33.7939 52.4411C32.8784 52.0667 31.8518 52.0706 30.9392 52.4519Z" fill="#241F3C"/>
<path d="M57.1985 52.6498C56.5208 52.9424 55.9449 53.4293 55.5439 54.0492C55.1429 54.669 54.9348 55.3938 54.9457 56.132C54.9567 56.8701 55.1863 57.5884 55.6056 58.1961C56.0248 58.8037 56.6148 59.2734 57.301 59.5457C57.9872 59.818 58.7387 59.8806 59.4605 59.7258C60.1823 59.5709 60.842 59.2055 61.3561 58.6757C61.8702 58.1459 62.2157 57.4755 62.3487 56.7494C62.4818 56.0232 62.3966 55.2739 62.1038 54.5962C61.71 53.6888 60.9727 52.9745 60.0533 52.6096C59.1339 52.2448 58.1073 52.2592 57.1985 52.6498Z" fill="#241F3C"/>
<path d="M66.6253 125.214L41.4216 102.162C40.5035 101.322 39.7601 100.308 39.2338 99.1803C38.7074 98.0523 38.4084 96.8316 38.3538 95.588C38.2993 94.3444 38.4902 93.1022 38.9158 91.9325C39.3414 90.7627 39.9932 89.6882 40.8341 88.7703C41.6748 87.8523 42.6881 87.1089 43.8161 86.5825C44.9442 86.0561 46.1648 85.7571 47.4084 85.7026C48.652 85.648 49.8942 85.839 51.064 86.2646C52.2338 86.6901 53.3083 87.342 54.2261 88.1829L79.4142 111.227C81.2677 112.925 82.3709 115.29 82.4811 117.801C82.5913 120.312 81.6994 122.765 80.0016 124.619C78.3054 126.469 75.9443 127.571 73.4366 127.683C70.9288 127.794 68.4792 126.906 66.6253 125.214Z" fill="#67CBAB"/>
<path d="M49.5738 90.4504C48.6707 90.1283 47.6923 90.0813 46.7625 90.3152C45.8326 90.549 44.993 91.0534 44.3497 91.7644C43.7064 92.4755 43.2884 93.3613 43.1486 94.3098C43.0087 95.2584 43.1532 96.2272 43.5638 97.0936C43.9745 97.9601 44.6328 98.6853 45.4556 99.1776C46.2783 99.67 47.2286 99.9073 48.1863 99.8596C49.1439 99.8119 50.0659 99.4814 50.8357 98.9097C51.6055 98.3381 52.1885 97.551 52.5111 96.6481C52.9432 95.4367 52.8765 94.1033 52.3257 92.9411C51.7749 91.7788 50.785 90.8829 49.5738 90.4504Z" fill="#241F3C"/>
<path d="M74.5715 113.671C73.6654 113.357 72.6866 113.318 71.7587 113.561C70.8309 113.803 69.9958 114.315 69.3591 115.032C68.7223 115.749 68.3124 116.639 68.1813 117.589C68.0502 118.539 68.2037 119.506 68.6224 120.369C69.0412 121.232 69.7063 121.951 70.5338 122.436C71.3613 122.92 72.3139 123.149 73.2711 123.092C74.2284 123.035 75.1473 122.696 75.9117 122.117C76.6761 121.538 77.2517 120.745 77.5656 119.839C77.9843 118.624 77.9043 117.292 77.3431 116.136C76.7818 114.98 75.7852 114.093 74.5715 113.671Z" fill="#241F3C"/>
<path d="M65.11 135.61L52.8204 149.347C51.9156 150.358 50.6463 150.968 49.2917 151.043C47.9371 151.118 46.608 150.652 45.5967 149.748C45.0959 149.3 44.6883 148.758 44.3971 148.153C44.1058 147.547 43.9368 146.89 43.8995 146.219C43.8622 145.548 43.9575 144.877 44.1798 144.243C44.4021 143.609 44.7472 143.025 45.1953 142.524L57.4848 128.788C58.3891 127.776 59.6581 127.165 61.0127 127.089C62.3674 127.013 63.6968 127.478 64.7085 128.382C65.2097 128.83 65.6176 129.373 65.909 129.979C66.2005 130.584 66.3696 131.242 66.4069 131.913C66.4442 132.584 66.3489 133.256 66.1263 133.891C65.9038 134.525 65.5584 135.109 65.11 135.61Z" fill="#67CBAB"/>
<path d="M46.934 145.185C46.7986 145.579 46.7827 146.003 46.8884 146.405C46.9941 146.807 47.2167 147.169 47.5279 147.445C47.8392 147.72 48.2252 147.898 48.6371 147.954C49.0491 148.011 49.4685 147.944 49.8424 147.762C50.2163 147.58 50.5279 147.291 50.7378 146.932C50.9477 146.573 51.0465 146.16 51.0218 145.745C50.997 145.33 50.8497 144.932 50.5986 144.6C50.3475 144.269 50.0037 144.019 49.6109 143.883C49.0832 143.702 48.505 143.737 48.0031 143.981C47.5013 144.225 47.1168 144.658 46.934 145.185Z" fill="#241F3C"/>
<path d="M59.6486 131.32C59.5115 131.713 59.4941 132.138 59.5987 132.541C59.7034 132.944 59.9253 133.307 60.2363 133.583C60.5474 133.86 60.9336 134.038 61.3461 134.096C61.7585 134.153 62.1786 134.086 62.5531 133.904C62.9277 133.722 63.2398 133.433 63.4499 133.074C63.6601 132.714 63.7588 132.3 63.7336 131.885C63.7083 131.469 63.5603 131.07 63.3082 130.739C63.0562 130.408 62.7114 130.159 62.3176 130.023C61.7917 129.843 61.2157 129.878 60.7155 130.121C60.2153 130.363 59.8317 130.795 59.6486 131.32Z" fill="#241F3C"/>
<path d="M51.1492 165.903H46.3086V167.936H51.1492V165.903Z" fill="#241F3C"/>
<path d="M50.1843 167.07H47.2744V170.109H50.1843V167.07Z" fill="#241F3C"/>
<path d="M51.1492 165.903H46.3086V167.936H51.1492V165.903Z" fill="#241F3C"/>
<path d="M51.2633 170.777L50.903 170.426C50.3567 169.898 49.6267 169.602 48.8665 169.6C48.1063 169.602 47.3764 169.898 46.83 170.426L46.4697 170.777V173.181L46.8379 173.532C47.3817 174.053 48.1058 174.343 48.8587 174.343H48.8822C49.6352 174.343 50.3592 174.053 50.903 173.532L51.2712 173.181L51.2633 170.777Z" fill="#241F3C"/>
<path d="M50.2493 172.825H47.4805V174.768H50.2493V172.825Z" fill="#241F3C"/>
<path d="M48.2988 171.462V179.763L48.8452 180.299L49.4267 179.763V171.462H48.2988Z" fill="#241F3C"/>
<path d="M51.6527 166.91H45.8075L42.8096 163.647H54.6487L51.6527 166.91Z" fill="#67CBAB"/>
<path d="M45.5942 154.362H51.8663L55.0816 156.578H42.377L45.5942 154.362Z" fill="#67CBAB"/>
<path d="M55.4674 156.13H41.9912V163.839H55.4674V156.13Z" fill="#241F3C"/>
<path d="M45.089 57.882C46.7826 57.882 48.1555 56.5091 48.1555 54.8155C48.1555 53.1219 46.7826 51.749 45.089 51.749C43.3954 51.749 42.0225 53.1219 42.0225 54.8155C42.0225 56.5091 43.3954 57.882 45.089 57.882Z" fill="#AAFFBD"/>
<path d="M34.2367 45.2048L32.9443 43.7244C40.2425 36.3969 51.6195 36.6749 58.5612 44.3275L57.1905 45.7433C50.9596 38.8936 40.7771 38.6586 34.2367 45.2048Z" fill="#AAFFBD"/>
<path d="M36.9409 48.2929L35.6387 46.8105C41.3663 41.1044 50.2526 41.3139 55.7041 47.2785L54.3334 48.6943C49.5985 43.5364 41.9107 43.3563 36.9409 48.2929Z" fill="#AAFFBD"/>
<path d="M39.5571 51.2594L38.2549 49.7791C42.4611 45.6414 48.9367 45.7922 52.9412 50.1159L51.5705 51.5316C48.2827 48.0226 43.0054 47.9012 39.5571 51.2594Z" fill="#AAFFBD"/>
<path d="M14.5823 260.877L1.22168 250.806H30.424L17.1358 260.873C16.7685 261.151 16.3205 261.302 15.8597 261.303C15.3989 261.303 14.9505 261.154 14.5823 260.877Z" fill="#67CBAB"/>
<path d="M31.652 252.478V272.796H0V252.478L14.187 263.121C14.6692 263.483 15.2561 263.679 15.8593 263.679C16.4625 263.679 17.0494 263.483 17.5316 263.121L31.652 252.478Z" fill="#67CBAB"/>
<path d="M140.457 179.677H95.4597C93.0102 179.677 91.0244 181.663 91.0244 184.112V201.98C91.0244 204.43 93.0102 206.416 95.4597 206.416H140.457C142.906 206.416 144.892 204.43 144.892 201.98V184.112C144.892 181.663 142.906 179.677 140.457 179.677Z" fill="#1FC274"/>
<path d="M136 202.094V214.158L123.706 201.863L136 202.094Z" fill="#1FC274"/>
<path d="M102.987 194.955C103.904 194.038 103.904 192.552 102.987 191.635C102.071 190.718 100.584 190.718 99.667 191.635C98.7501 192.552 98.7501 194.038 99.667 194.955C100.584 195.872 102.07 195.872 102.987 194.955Z" fill="white"/>
<path d="M111.434 193.982C111.823 192.745 111.136 191.427 109.899 191.038C108.662 190.649 107.344 191.336 106.954 192.573C106.565 193.81 107.253 195.129 108.49 195.518C109.727 195.907 111.045 195.219 111.434 193.982Z" fill="white"/>
<path d="M117.969 195.456C119.168 194.964 119.741 193.592 119.248 192.392C118.756 191.193 117.384 190.62 116.184 191.113C114.985 191.605 114.412 192.977 114.905 194.176C115.397 195.376 116.769 195.949 117.969 195.456Z" fill="white"/>
<path d="M126.886 194.591C127.61 193.516 127.326 192.057 126.251 191.332C125.175 190.608 123.716 190.892 122.992 191.968C122.267 193.043 122.551 194.502 123.627 195.227C124.702 195.951 126.161 195.667 126.886 194.591Z" fill="white"/>
<path d="M134.469 194.955C135.386 194.038 135.386 192.551 134.469 191.634C133.552 190.717 132.065 190.717 131.148 191.634C130.232 192.551 130.232 194.038 131.148 194.955C132.065 195.872 133.552 195.872 134.469 194.955Z" fill="white"/>
<path d="M40.6867 215.621C40.2407 217.331 40.1343 219.112 40.3734 220.863L41.844 220.667C42.0649 222.257 42.5973 223.788 43.4105 225.171L42.1338 225.921C43.0272 227.445 44.2099 228.779 45.6154 229.849L45.8112 229.589L46.5103 228.67C47.7871 229.642 49.2451 230.348 50.7987 230.748L50.4247 232.187C52.1353 232.634 53.9175 232.739 55.6687 232.495L55.4729 231.024C57.0622 230.809 58.5931 230.281 59.9767 229.469L60.7267 230.746C62.2524 229.851 63.5881 228.665 64.6587 227.257L64.3199 226.994L63.4838 226.358C64.4546 225.082 65.161 223.626 65.5614 222.073L66.9987 222.447C67.4464 220.735 67.5515 218.952 67.3081 217.199L65.8375 217.395C65.6228 215.806 65.0936 214.274 64.2808 212.891L65.5595 212.141C64.6632 210.617 63.4779 209.282 62.07 208.211L61.1712 209.386C59.8955 208.415 58.4389 207.709 56.8867 207.309L57.2607 205.869C55.5482 205.422 53.7641 205.317 52.0108 205.56L52.2066 207.033C50.6169 207.246 49.0857 207.775 47.7028 208.587L46.9528 207.311C45.4246 208.211 44.0891 209.404 43.0228 210.822L43.806 211.409L44.1977 211.709C43.2272 212.985 42.5209 214.441 42.12 215.993L40.6867 215.621ZM47.4835 217.384C47.8109 216.126 48.5037 214.995 49.4744 214.131C50.445 213.268 51.6499 212.712 52.9365 212.534C54.2232 212.355 55.5339 212.562 56.7029 213.128C57.872 213.695 58.8468 214.595 59.5041 215.716C60.1614 216.836 60.4716 218.126 60.3957 219.423C60.3197 220.72 59.8609 221.965 59.0773 223.001C58.2937 224.037 57.2204 224.817 55.9932 225.243C54.7661 225.669 53.4402 225.722 52.1831 225.394C51.3484 225.177 50.5647 224.798 49.8768 224.277C49.1888 223.757 48.6101 223.107 48.1736 222.363C47.7372 221.619 47.4516 220.796 47.3332 219.942C47.2148 219.087 47.2659 218.218 47.4835 217.384Z" fill="#AAFFBD"/>
<path d="M106.609 288.608V271.721C102.522 271.57 98.6525 269.84 95.8142 266.895C92.976 263.95 91.3902 260.019 91.3902 255.929C91.3902 251.839 92.976 247.908 95.8142 244.963C98.6525 242.018 102.522 240.289 106.609 240.138V223.237C105.319 223.26 104.03 223.361 102.752 223.54L103.243 227.075C99.4229 227.59 95.7436 228.861 92.4204 230.815L90.6149 227.744C86.9429 229.895 83.7299 232.746 81.1589 236.137L81.1824 236.157L83.0524 237.58L83.9982 238.301C81.6601 241.372 79.9579 244.878 78.9912 248.615L75.5291 247.716C74.457 251.83 74.2015 256.114 74.7772 260.326L78.3176 259.845C78.8412 263.669 80.1156 267.353 82.0675 270.683L78.997 272.491C81.1501 276.157 83.9984 279.368 87.382 281.943L87.8676 281.312L89.536 279.103C92.609 281.439 96.1165 283.138 99.8536 284.103L98.9568 287.565C101.457 288.216 104.026 288.566 106.609 288.608Z" fill="#AAFFBD"/>
<g clip-path="url(#clip0_387_376)">
<rect width="281.978" height="200.518" transform="translate(72.5 127.991)" fill="#ECF1F7"/>
<path d="M207.687 272.541L206.77 271.623L207.688 270.705" stroke="white" stroke-width="0.183579" stroke-linecap="round" stroke-linejoin="round"/>
<path d="M212.813 271.303V271.506H211.405V271.36L212.278 270.01H212.48L212.263 270.4L211.686 271.303H212.813ZM212.541 270.01V271.959H212.294V270.01H212.541ZM213.927 270.01L213.114 272.126H212.901L213.715 270.01H213.927ZM215.488 271.303V271.506H214.079V271.36L214.952 270.01H215.154L214.937 270.4L214.361 271.303H215.488ZM215.216 270.01V271.959H214.968V270.01H215.216Z" fill="white"/>
<g opacity="0.2">
<path d="M219.29 272.541L220.208 271.623L219.29 270.705" stroke="white" stroke-width="0.183579" stroke-linecap="round" stroke-linejoin="round"/>
</g>
<g filter="url(#filter0_d_387_376)">
<g clip-path="url(#clip1_387_376)">
<rect x="77.1992" y="132.69" width="134.331" height="70.6903" rx="2.93727" fill="white"/>
<g opacity="0.3">
<rect x="81.1152" y="155.601" width="47" height="2" rx="1" fill="#677088"/>
<rect x="81.1152" y="160.601" width="47" height="2" rx="1" fill="#677088"/>
<rect x="81.1152" y="165.601" width="47" height="2" rx="1" fill="#677088"/>
<rect x="81.1152" y="170.601" width="47" height="2" rx="1" fill="#677088"/>
<rect x="81.1152" y="175.601" width="47" height="2" rx="1" fill="#677088"/>
</g>
<rect width="22.9708" height="18.3145" transform="translate(143.592 176.749)" fill="#F6F6F6"/>
<rect width="22.9708" height="18.3145" transform="translate(168.425 176.749)" fill="#F6F6F6"/>
<rect width="22.9708" height="18.3145" transform="translate(193.258 176.749)" fill="#F6F6F6"/>
<path d="M140.43 187.047L139.361 185.978L140.43 184.91" stroke="#020202" stroke-width="0.213639" stroke-linecap="round" stroke-linejoin="round"/>
<rect x="81.1152" y="191.044" width="25.6521" height="8.42017" rx="4.21008" fill="#67CBAB"/>
<rect x="108.823" y="191.142" width="25.4563" height="8.22435" rx="4.11218" fill="white" stroke="#C64444" stroke-width="0.195818"/>
<rect opacity="0.4" x="81" y="138" width="58" height="4" rx="2" fill="#677088"/>
<rect opacity="0.4" x="81" y="145" width="34" height="4" rx="2" fill="#677088"/>
<rect opacity="0.4" x="177" y="138" width="30" height="3" rx="1.5" fill="#677088"/>
<rect opacity="0.4" x="177" y="144" width="30" height="3" rx="1.5" fill="#677088"/>
</g>
</g>
<g filter="url(#filter1_d_387_376)">
<g clip-path="url(#clip2_387_376)">
<rect x="77.1992" y="208" width="134.331" height="70.6903" rx="2.93727" fill="white"/>
<g opacity="0.3">
<rect x="81.1152" y="230.911" width="47" height="2" rx="1" fill="#677088"/>
<rect x="81.1152" y="235.911" width="47" height="2" rx="1" fill="#677088"/>
<rect x="81.1152" y="240.911" width="47" height="2" rx="1" fill="#677088"/>
<rect x="81.1152" y="245.911" width="47" height="2" rx="1" fill="#677088"/>
<rect x="81.1152" y="250.911" width="47" height="2" rx="1" fill="#677088"/>
</g>
<rect width="22.9708" height="18.3145" transform="translate(143.592 252.059)" fill="#F6F6F6"/>
<rect width="22.9708" height="18.3145" transform="translate(168.425 252.059)" fill="#F6F6F6"/>
<rect width="22.9708" height="18.3145" transform="translate(193.258 252.059)" fill="#F6F6F6"/>
<path d="M140.43 262.356L139.361 261.288L140.43 260.22" stroke="#020202" stroke-width="0.213639" stroke-linecap="round" stroke-linejoin="round"/>
<rect x="81.1152" y="266.354" width="25.6521" height="8.42017" rx="4.21008" fill="#67CBAB"/>
<rect x="108.823" y="266.452" width="25.4563" height="8.22435" rx="4.11218" fill="white" stroke="#C64444" stroke-width="0.195818"/>
<rect opacity="0.4" x="81" y="213.31" width="58" height="4" rx="2" fill="#677088"/>
<rect opacity="0.4" x="81" y="220.31" width="34" height="4" rx="2" fill="#677088"/>
<rect opacity="0.4" x="177" y="213.31" width="30" height="3" rx="1.5" fill="#677088"/>
<rect opacity="0.4" x="177" y="219.31" width="30" height="3" rx="1.5" fill="#677088"/>
</g>
</g>
<g filter="url(#filter2_d_387_376)">
<g clip-path="url(#clip3_387_376)">
<rect x="77.1992" y="283" width="134.331" height="70.6903" rx="2.93727" fill="white"/>
<g opacity="0.3">
<rect x="81.1152" y="305.911" width="47" height="2" rx="1" fill="#677088"/>
<rect x="81.1152" y="310.911" width="47" height="2" rx="1" fill="#677088"/>
<rect x="81.1152" y="315.911" width="47" height="2" rx="1" fill="#677088"/>
<rect x="81.1152" y="320.911" width="47" height="2" rx="1" fill="#677088"/>
<rect x="81.1152" y="325.911" width="47" height="2" rx="1" fill="#677088"/>
</g>
<rect width="22.9708" height="18.3145" transform="translate(143.592 327.059)" fill="#F6F6F6"/>
<rect width="22.9708" height="18.3145" transform="translate(168.425 327.059)" fill="#F6F6F6"/>
<rect width="22.9708" height="18.3145" transform="translate(193.258 327.059)" fill="#F6F6F6"/>
<rect opacity="0.4" x="81" y="288.31" width="58" height="4" rx="2" fill="#677088"/>
<rect opacity="0.4" x="81" y="295.31" width="34" height="4" rx="2" fill="#677088"/>
<rect opacity="0.4" x="177" y="288.31" width="30" height="3" rx="1.5" fill="#677088"/>
<rect opacity="0.4" x="177" y="294.31" width="30" height="3" rx="1.5" fill="#677088"/>
</g>
</g>
<g filter="url(#filter3_d_387_376)">
<g clip-path="url(#clip4_387_376)">
<rect x="214" y="132.69" width="134.331" height="70.6903" rx="2.93727" fill="white"/>
<g opacity="0.3">
<rect x="217.916" y="155.601" width="47" height="2" rx="1" fill="#677088"/>
<rect x="217.916" y="160.601" width="47" height="2" rx="1" fill="#677088"/>
<rect x="217.916" y="165.601" width="47" height="2" rx="1" fill="#677088"/>
<rect x="217.916" y="170.601" width="47" height="2" rx="1" fill="#677088"/>
<rect x="217.916" y="175.601" width="47" height="2" rx="1" fill="#677088"/>
</g>
<rect width="22.9708" height="18.3145" transform="translate(280.393 176.749)" fill="#F6F6F6"/>
<rect width="22.9708" height="18.3145" transform="translate(305.226 176.749)" fill="#F6F6F6"/>
<rect width="22.9708" height="18.3145" transform="translate(330.059 176.749)" fill="#F6F6F6"/>
<path d="M277.23 187.047L276.162 185.978L277.23 184.91" stroke="#020202" stroke-width="0.213639" stroke-linecap="round" stroke-linejoin="round"/>
<rect x="217.916" y="191.044" width="25.6521" height="8.42017" rx="4.21008" fill="#67CBAB"/>
<rect x="245.624" y="191.142" width="25.4563" height="8.22435" rx="4.11218" fill="white" stroke="#C64444" stroke-width="0.195818"/>
<rect opacity="0.4" x="217.801" y="138" width="58" height="4" rx="2" fill="#677088"/>
<rect opacity="0.4" x="217.801" y="145" width="34" height="4" rx="2" fill="#677088"/>
<rect opacity="0.4" x="313.801" y="138" width="30" height="3" rx="1.5" fill="#677088"/>
<rect opacity="0.4" x="313.801" y="144" width="30" height="3" rx="1.5" fill="#677088"/>
</g>
</g>
<g filter="url(#filter4_d_387_376)">
<g clip-path="url(#clip5_387_376)">
<rect x="214" y="208" width="134.331" height="70.6903" rx="2.93727" fill="white"/>
<g opacity="0.3">
<rect x="217.916" y="230.911" width="47" height="2" rx="1" fill="#677088"/>
<rect x="217.916" y="235.911" width="47" height="2" rx="1" fill="#677088"/>
<rect x="217.916" y="240.911" width="47" height="2" rx="1" fill="#677088"/>
<rect x="217.916" y="245.911" width="47" height="2" rx="1" fill="#677088"/>
<rect x="217.916" y="250.911" width="47" height="2" rx="1" fill="#677088"/>
</g>
<rect width="22.9708" height="18.3145" transform="translate(280.393 252.059)" fill="#F6F6F6"/>
<rect width="22.9708" height="18.3145" transform="translate(305.226 252.059)" fill="#F6F6F6"/>
<rect width="22.9708" height="18.3145" transform="translate(330.059 252.059)" fill="#F6F6F6"/>
<path d="M277.23 262.356L276.162 261.288L277.23 260.22" stroke="#020202" stroke-width="0.213639" stroke-linecap="round" stroke-linejoin="round"/>
<rect x="217.916" y="266.354" width="25.6521" height="8.42017" rx="4.21008" fill="#67CBAB"/>
<rect x="245.624" y="266.452" width="25.4563" height="8.22435" rx="4.11218" fill="white" stroke="#C64444" stroke-width="0.195818"/>
<rect opacity="0.4" x="217.801" y="213.31" width="58" height="4" rx="2" fill="#677088"/>
<rect opacity="0.4" x="217.801" y="220.31" width="34" height="4" rx="2" fill="#677088"/>
<rect opacity="0.4" x="313.801" y="213.31" width="30" height="3" rx="1.5" fill="#677088"/>
<rect opacity="0.4" x="313.801" y="219.31" width="30" height="3" rx="1.5" fill="#677088"/>
</g>
</g>
<g filter="url(#filter5_d_387_376)">
<g clip-path="url(#clip6_387_376)">
<rect x="214" y="283" width="134.331" height="70.6903" rx="2.93727" fill="white"/>
<g opacity="0.3">
<rect x="217.916" y="305.911" width="47" height="2" rx="1" fill="#677088"/>
<rect x="217.916" y="310.911" width="47" height="2" rx="1" fill="#677088"/>
<rect x="217.916" y="315.911" width="47" height="2" rx="1" fill="#677088"/>
<rect x="217.916" y="320.911" width="47" height="2" rx="1" fill="#677088"/>
<rect x="217.916" y="325.911" width="47" height="2" rx="1" fill="#677088"/>
</g>
<rect width="22.9708" height="18.3145" transform="translate(280.393 327.059)" fill="#F6F6F6"/>
<rect width="22.9708" height="18.3145" transform="translate(305.226 327.059)" fill="#F6F6F6"/>
<rect width="22.9708" height="18.3145" transform="translate(330.059 327.059)" fill="#F6F6F6"/>
<rect opacity="0.4" x="217.801" y="288.31" width="58" height="4" rx="2" fill="#677088"/>
<rect opacity="0.4" x="217.801" y="295.31" width="34" height="4" rx="2" fill="#677088"/>
<rect opacity="0.4" x="313.801" y="288.31" width="30" height="3" rx="1.5" fill="#677088"/>
<rect opacity="0.4" x="313.801" y="294.31" width="30" height="3" rx="1.5" fill="#677088"/>
</g>
</g>
</g>
<path d="M368.7 310.401C387.312 310.401 402.401 295.312 402.401 276.7C402.401 258.088 387.312 243 368.7 243C350.088 243 335 258.088 335 276.7C335 295.312 350.088 310.401 368.7 310.401Z" fill="#67CBAB"/>
<path d="M395.764 263.185C395.427 262.511 395.066 261.853 394.681 261.209C392.023 256.752 388.264 253.054 383.765 250.469C379.265 247.884 374.177 246.498 368.988 246.446H368.465C363.269 246.491 358.171 247.872 353.664 250.457C349.156 253.043 345.39 256.746 342.729 261.209C342.337 261.851 341.976 262.51 341.644 263.185C339.516 267.441 338.422 272.139 338.453 276.898C338.483 281.656 339.637 286.34 341.82 290.568C342.169 291.242 342.542 291.9 342.94 292.544C345.623 296.909 349.371 300.521 353.831 303.041C358.291 305.562 363.319 306.909 368.442 306.956H368.998C374.117 306.905 379.14 305.557 383.596 303.036C388.053 300.516 391.797 296.906 394.478 292.544C394.869 291.902 395.243 291.243 395.598 290.568C397.781 286.34 398.934 281.656 398.965 276.898C398.996 272.139 397.902 267.441 395.774 263.185H395.764ZM393.334 290.568C392.953 291.243 392.545 291.902 392.11 292.544C388.632 297.673 383.572 301.523 377.702 303.51C375.111 304.382 372.406 304.872 369.673 304.963C369.432 304.972 369.188 304.978 368.943 304.978H368.461C368.207 304.978 367.952 304.978 367.698 304.963C363.244 304.811 358.889 303.606 354.991 301.447C351.092 299.288 347.76 296.237 345.269 292.542C344.834 291.902 344.426 291.244 344.045 290.566C341.817 286.628 340.574 282.209 340.422 277.687C340.408 277.36 340.404 277.031 340.404 276.708C340.404 276.385 340.404 276.048 340.422 275.729C340.569 271.341 341.742 267.049 343.847 263.197C344.218 262.522 344.614 261.863 345.036 261.221C347.512 257.431 350.864 254.292 354.808 252.069C358.752 249.846 363.173 248.605 367.698 248.45C367.952 248.45 368.207 248.434 368.461 248.434H368.943C369.188 248.434 369.432 248.434 369.673 248.45C372.406 248.54 375.111 249.03 377.702 249.905C383.708 251.936 388.862 255.92 392.341 261.221C392.764 261.861 393.16 262.519 393.53 263.197C395.636 267.049 396.809 271.341 396.955 275.729C396.968 276.056 396.974 276.387 396.974 276.708C396.974 277.029 396.974 277.37 396.955 277.687C396.804 282.21 395.562 286.629 393.334 290.568Z" fill="white"/>
<path d="M397.967 275.713H339.43V277.689H397.967V275.713Z" fill="white"/>
<path d="M395.765 263.185H341.639C341.975 262.511 342.337 261.853 342.724 261.209H394.686C395.067 261.851 395.427 262.51 395.765 263.185Z" fill="white"/>
<path d="M395.588 290.568C395.237 291.242 394.863 291.9 394.468 292.544H342.931C342.539 291.902 342.166 291.243 341.811 290.568H395.588Z" fill="white"/>
<path d="M395.764 263.185C395.427 262.511 395.066 261.853 394.681 261.209C392.023 256.752 388.264 253.054 383.765 250.469C379.265 247.884 374.177 246.498 368.988 246.446H368.465C363.269 246.491 358.171 247.872 353.664 250.457C349.156 253.043 345.39 256.746 342.729 261.209C342.337 261.851 341.976 262.51 341.644 263.185C339.516 267.441 338.422 272.139 338.453 276.898C338.483 281.656 339.637 286.34 341.82 290.568C342.169 291.242 342.542 291.9 342.94 292.544C345.623 296.909 349.371 300.521 353.831 303.041C358.291 305.562 363.319 306.909 368.442 306.956H368.998C374.117 306.905 379.14 305.557 383.596 303.036C388.053 300.516 391.797 296.906 394.478 292.544C394.869 291.902 395.243 291.243 395.598 290.568C397.781 286.34 398.934 281.656 398.965 276.898C398.996 272.139 397.902 267.441 395.774 263.185H395.764ZM393.334 290.568C392.953 291.243 392.545 291.902 392.11 292.544C388.632 297.673 383.572 301.523 377.702 303.51C375.111 304.382 372.406 304.872 369.673 304.963C369.432 304.972 369.188 304.978 368.943 304.978H368.461C368.207 304.978 367.952 304.978 367.698 304.963C363.244 304.811 358.889 303.606 354.991 301.447C351.092 299.288 347.76 296.237 345.269 292.542C344.834 291.902 344.426 291.244 344.045 290.566C341.817 286.628 340.574 282.209 340.422 277.687C340.408 277.36 340.404 277.031 340.404 276.708C340.404 276.385 340.404 276.048 340.422 275.729C340.569 271.341 341.742 267.049 343.847 263.197C344.218 262.522 344.614 261.863 345.036 261.221C347.512 257.431 350.864 254.292 354.808 252.069C358.752 249.846 363.173 248.605 367.698 248.45C367.952 248.45 368.207 248.434 368.461 248.434H368.943C369.188 248.434 369.432 248.434 369.673 248.45C372.406 248.54 375.111 249.03 377.702 249.905C383.708 251.936 388.862 255.92 392.341 261.221C392.764 261.861 393.16 262.519 393.53 263.197C395.636 267.049 396.809 271.341 396.955 275.729C396.968 276.056 396.974 276.387 396.974 276.708C396.974 277.029 396.974 277.37 396.955 277.687C396.804 282.21 395.562 286.629 393.334 290.568Z" fill="white"/>
<path d="M369.687 247.431H367.711V305.969H369.687V247.431Z" fill="white"/>
<path d="M352.112 276.7C352.112 268.889 353.532 261.593 356.107 256.155C359.117 249.803 363.472 246.444 368.698 246.444V248.42C359.103 248.42 354.088 262.646 354.088 276.7C354.088 290.754 359.107 304.982 368.698 304.982V306.958C357.303 306.958 352.112 291.273 352.112 276.7Z" fill="white"/>
<path d="M368.698 306.958V304.982C379.758 304.982 384.794 290.321 384.794 276.7C384.794 263.079 379.758 248.42 368.698 248.42V246.444C381.115 246.444 386.77 262.128 386.77 276.7C386.77 291.273 381.115 306.958 368.698 306.958Z" fill="white"/>
<path d="M396.83 311.1H369.312V276.97H396.83V311.1Z" fill="white"/>
<path d="M374.747 315.574H401.378V282.332H374.747V315.574Z" fill="#67CBAB"/>
<path d="M378.888 289.951H392.664V287.789H378.888V289.951Z" fill="white"/>
<path d="M378.89 295.031H396.739V292.869H378.89V295.031Z" fill="white"/>
<path d="M378.89 300.11H396.739V297.948H378.89V300.11Z" fill="white"/>
<path d="M378.89 305.19H396.739V303.028H378.89V305.19Z" fill="white"/>
<path d="M378.89 310.269H396.739V308.107H378.89V310.269Z" fill="white"/>
<defs>
<filter id="filter0_d_387_376" x="74.262" y="129.753" width="140.206" height="76.5648" filterUnits="userSpaceOnUse" color-interpolation-filters="sRGB">
<feFlood flood-opacity="0" result="BackgroundImageFix"/>
<feColorMatrix in="SourceAlpha" type="matrix" values="0 0 0 0 0 0 0 0 0 0 0 0 0 0 0 0 0 0 127 0" result="hardAlpha"/>
<feOffset/>
<feGaussianBlur stdDeviation="1.46863"/>
<feColorMatrix type="matrix" values="0 0 0 0 0.81724 0 0 0 0 0.856087 0 0 0 0 0.920833 0 0 0 0.75 0"/>
<feBlend mode="normal" in2="BackgroundImageFix" result="effect1_dropShadow_387_376"/>
<feBlend mode="normal" in="SourceGraphic" in2="effect1_dropShadow_387_376" result="shape"/>
</filter>
<filter id="filter1_d_387_376" x="74.262" y="205.063" width="140.206" height="76.5648" filterUnits="userSpaceOnUse" color-interpolation-filters="sRGB">
<feFlood flood-opacity="0" result="BackgroundImageFix"/>
<feColorMatrix in="SourceAlpha" type="matrix" values="0 0 0 0 0 0 0 0 0 0 0 0 0 0 0 0 0 0 127 0" result="hardAlpha"/>
<feOffset/>
<feGaussianBlur stdDeviation="1.46863"/>
<feColorMatrix type="matrix" values="0 0 0 0 0.81724 0 0 0 0 0.856087 0 0 0 0 0.920833 0 0 0 0.75 0"/>
<feBlend mode="normal" in2="BackgroundImageFix" result="effect1_dropShadow_387_376"/>
<feBlend mode="normal" in="SourceGraphic" in2="effect1_dropShadow_387_376" result="shape"/>
</filter>
<filter id="filter2_d_387_376" x="74.262" y="280.063" width="140.206" height="76.5648" filterUnits="userSpaceOnUse" color-interpolation-filters="sRGB">
<feFlood flood-opacity="0" result="BackgroundImageFix"/>
<feColorMatrix in="SourceAlpha" type="matrix" values="0 0 0 0 0 0 0 0 0 0 0 0 0 0 0 0 0 0 127 0" result="hardAlpha"/>
<feOffset/>
<feGaussianBlur stdDeviation="1.46863"/>
<feColorMatrix type="matrix" values="0 0 0 0 0.81724 0 0 0 0 0.856087 0 0 0 0 0.920833 0 0 0 0.75 0"/>
<feBlend mode="normal" in2="BackgroundImageFix" result="effect1_dropShadow_387_376"/>
<feBlend mode="normal" in="SourceGraphic" in2="effect1_dropShadow_387_376" result="shape"/>
</filter>
<filter id="filter3_d_387_376" x="211.063" y="129.753" width="140.206" height="76.5648" filterUnits="userSpaceOnUse" color-interpolation-filters="sRGB">
<feFlood flood-opacity="0" result="BackgroundImageFix"/>
<feColorMatrix in="SourceAlpha" type="matrix" values="0 0 0 0 0 0 0 0 0 0 0 0 0 0 0 0 0 0 127 0" result="hardAlpha"/>
<feOffset/>
<feGaussianBlur stdDeviation="1.46863"/>
<feColorMatrix type="matrix" values="0 0 0 0 0.81724 0 0 0 0 0.856087 0 0 0 0 0.920833 0 0 0 0.75 0"/>
<feBlend mode="normal" in2="BackgroundImageFix" result="effect1_dropShadow_387_376"/>
<feBlend mode="normal" in="SourceGraphic" in2="effect1_dropShadow_387_376" result="shape"/>
</filter>
<filter id="filter4_d_387_376" x="211.063" y="205.063" width="140.206" height="76.5648" filterUnits="userSpaceOnUse" color-interpolation-filters="sRGB">
<feFlood flood-opacity="0" result="BackgroundImageFix"/>
<feColorMatrix in="SourceAlpha" type="matrix" values="0 0 0 0 0 0 0 0 0 0 0 0 0 0 0 0 0 0 127 0" result="hardAlpha"/>
<feOffset/>
<feGaussianBlur stdDeviation="1.46863"/>
<feColorMatrix type="matrix" values="0 0 0 0 0.81724 0 0 0 0 0.856087 0 0 0 0 0.920833 0 0 0 0.75 0"/>
<feBlend mode="normal" in2="BackgroundImageFix" result="effect1_dropShadow_387_376"/>
<feBlend mode="normal" in="SourceGraphic" in2="effect1_dropShadow_387_376" result="shape"/>
</filter>
<filter id="filter5_d_387_376" x="211.063" y="280.063" width="140.206" height="76.5648" filterUnits="userSpaceOnUse" color-interpolation-filters="sRGB">
<feFlood flood-opacity="0" result="BackgroundImageFix"/>
<feColorMatrix in="SourceAlpha" type="matrix" values="0 0 0 0 0 0 0 0 0 0 0 0 0 0 0 0 0 0 127 0" result="hardAlpha"/>
<feOffset/>
<feGaussianBlur stdDeviation="1.46863"/>
<feColorMatrix type="matrix" values="0 0 0 0 0.81724 0 0 0 0 0.856087 0 0 0 0 0.920833 0 0 0 0.75 0"/>
<feBlend mode="normal" in2="BackgroundImageFix" result="effect1_dropShadow_387_376"/>
<feBlend mode="normal" in="SourceGraphic" in2="effect1_dropShadow_387_376" result="shape"/>
</filter>
<clipPath id="clip0_387_376">
<rect width="281.978" height="200.518" fill="white" transform="translate(72.5 127.991)"/>
</clipPath>
<clipPath id="clip1_387_376">
<rect x="77.1992" y="132.69" width="134.331" height="70.6903" rx="2.93727" fill="white"/>
</clipPath>
<clipPath id="clip2_387_376">
<rect x="77.1992" y="208" width="134.331" height="70.6903" rx="2.93727" fill="white"/>
</clipPath>
<clipPath id="clip3_387_376">
<rect x="77.1992" y="283" width="134.331" height="70.6903" rx="2.93727" fill="white"/>
</clipPath>
<clipPath id="clip4_387_376">
<rect x="214" y="132.69" width="134.331" height="70.6903" rx="2.93727" fill="white"/>
</clipPath>
<clipPath id="clip5_387_376">
<rect x="214" y="208" width="134.331" height="70.6903" rx="2.93727" fill="white"/>
</clipPath>
<clipPath id="clip6_387_376">
<rect x="214" y="283" width="134.331" height="70.6903" rx="2.93727" fill="white"/>
</clipPath>
</defs>
</svg>
