<svg width="39" height="66" viewBox="0 0 39 66" fill="none" xmlns="http://www.w3.org/2000/svg">
<path fill-rule="evenodd" clip-rule="evenodd" d="M33.3341 0C32.5558 1.2964 28.1528 8.4113 25.3614 13.0078C22.5697 17.604 20.1277 21.5622 20.1277 21.5622C20.1277 21.5622 22.7064 21.9199 24.2279 22.5509C25.3521 23.0172 26.9345 24.0879 26.95 24.0685C26.9653 24.0491 27.4603 22.2301 28.0498 20.0263C28.6394 17.8225 29.7308 13.7549 30.4754 10.9873C33.0246 1.51147 33.3341 0 33.3341 0ZM0.869428 5.24094C0.80103 5.30915 0.745117 17.386 0.745117 32.0784V58.7915H4.09346H7.4418V38.943C7.56573 33.4536 8.89838 30.6439 10.8091 29.1119C12.7199 27.5799 14.2717 27.0933 16.707 26.9804C14.4038 30.964 10.8091 37.181 10.8091 37.181H23.2028L15.6548 65.6026C15.6548 65.6026 21.7068 55.7229 25.4393 49.6783C25.4055 53.2372 25.3528 58.7915 25.3528 58.7915H31.8691L31.875 38.943C31.875 38.943 30.3214 41.5751 28.5891 44.4504C28.5891 44.4504 26.6694 47.6367 25.4393 49.6783C25.4393 35.4105 25.812 32.0784 22.6396 29.2774C20.2317 27.1515 17.4605 26.9454 16.707 26.9804C17.2342 26.2298 18.0569 25.0583 18.0569 25.0583C18.646 24.0845 19.3664 22.88 19.6579 22.3815L20.1277 21.5622C20.1277 21.5622 17.1699 21.4323 15.2821 21.5622C9.03862 21.9918 7.62705 25.2447 7.56573 25.2447C7.5046 25.2447 7.45447 20.7159 7.45447 15.1807V5.11663H4.2241C2.44724 5.11663 0.93764 5.17254 0.869428 5.24094ZM25.812 28.2266H30.1459L30.519 29.1119C30.7242 29.5989 30.9821 30.2907 31.0923 30.6495C31.5593 32.171 31.8692 34.5681 31.872 36.6804L31.875 38.943L32.3505 38.1975C32.6119 37.7875 38.392 28.2266 38.392 28.2266H30.1459L29.5241 27.1515C28.8841 26.1376 27.2681 24.3128 27.0104 24.3128L25.812 28.2266Z" fill="white"/>
</svg>
