<svg width="537" height="533" viewBox="0 0 537 533" fill="none" xmlns="http://www.w3.org/2000/svg">
<path d="M12.0357 221.347L11.5965 198.063L70.7383 196.947C85.7534 196.664 99.9484 202.236 110.753 212.641C110.847 212.731 110.944 212.825 111.038 212.915C121.881 223.499 127.893 237.671 127.972 252.82C128.001 259.066 130.486 264.91 134.953 269.272C134.992 269.309 135.031 269.347 135.07 269.384C139.525 273.674 145.378 275.973 151.569 275.852C164.072 275.616 174.267 265.248 174.291 252.739L174.328 233.957C173.938 209.653 193.359 189.533 217.681 189.07C229.595 188.845 240.839 193.283 249.376 201.624C257.905 209.942 262.638 221.086 262.705 232.999C262.829 253.957 262.988 281.28 263.129 303.781C263.231 320.554 276.962 334.227 293.741 334.252L294.844 334.254C303.626 334.268 311.819 330.858 317.917 324.642C323.971 318.481 327.206 310.328 327.032 301.687L326.616 280.673C326.38 268.748 330.805 257.447 339.072 248.854C347.339 240.261 358.461 235.402 370.387 235.18L372.271 235.145C384.269 234.919 395.608 239.312 404.192 247.518C404.231 247.556 404.27 247.593 404.309 247.631C412.828 255.834 417.632 266.858 417.847 278.696L417.869 279.875C418.037 288.967 421.732 297.45 428.281 303.764C428.285 303.768 428.285 303.768 428.289 303.771C434.838 310.078 443.45 313.454 452.531 313.283L524.621 311.916L525.06 335.2L452.978 336.56C437.672 336.849 423.168 331.159 412.141 320.54C412.137 320.537 412.133 320.533 412.126 320.525C401.098 309.899 394.87 295.609 394.588 280.295L394.566 279.116C394.464 273.499 392.186 268.276 388.153 264.392C388.133 264.373 388.118 264.358 388.098 264.34C383.988 260.411 378.521 258.305 372.71 258.414L370.826 258.45C365.122 258.557 359.804 260.879 355.852 264.99C351.897 269.097 349.781 274.503 349.897 280.207L350.316 301.217C350.613 316.171 345.008 330.282 334.532 340.95C324.007 351.669 309.894 357.558 294.801 357.532L293.698 357.53C279.37 357.505 265.883 351.908 255.724 341.816C245.568 331.706 239.925 318.243 239.839 303.914C239.701 281.409 239.535 254.086 239.415 233.124C239.381 227.491 237.145 222.218 233.107 218.284C229.065 214.354 223.748 212.241 218.108 212.343C212.527 212.449 207.315 214.722 203.442 218.744C199.57 222.765 197.494 228.059 197.599 233.641L197.6 233.882L197.566 252.787C197.544 265.012 192.813 276.545 184.238 285.262C175.671 293.979 164.217 298.91 151.993 299.137C139.581 299.371 127.844 294.767 118.907 286.161C118.829 286.086 118.751 286.011 118.673 285.936C109.711 277.185 104.741 265.468 104.673 252.946C104.629 244.077 101.106 235.775 94.7577 229.58C94.7031 229.527 94.6446 229.471 94.59 229.418C88.2631 223.325 79.9523 220.066 71.1583 220.228L12.0357 221.347Z" fill="#67CBAB"/>
<path d="M21.5325 210.337L21.5019 208.714L27.9567 208.592L27.9873 210.215L21.5325 210.337ZM34.4458 210.09L34.4152 208.467L40.8699 208.345L40.9005 209.968L34.4458 210.09ZM47.3592 209.85L47.3286 208.227L53.7833 208.105L53.8139 209.728L47.3592 209.85ZM126.427 278.36C125.011 276.996 123.696 275.504 122.525 273.926L123.828 272.955C125.078 274.64 126.494 276.214 128.034 277.644L126.93 278.837C126.766 278.679 126.595 278.521 126.427 278.36ZM132.165 282.855L133.031 281.479C134.81 282.598 136.697 283.558 138.646 284.33L138.046 285.842C136.009 285.031 134.033 284.03 132.165 282.855ZM119.098 268.288C118.138 266.311 117.352 264.23 116.776 262.112L118.346 261.684C118.901 263.707 119.643 265.692 120.563 267.578L119.098 268.288ZM60.2687 209.607L60.2381 207.983L66.6928 207.862L66.7234 209.485L60.2687 209.607ZM144.385 287.684L144.688 286.089C146.74 286.479 148.851 286.684 150.957 286.698L150.95 288.322C148.747 288.306 146.537 288.095 144.385 287.684ZM115.635 255.615C115.56 254.717 115.524 253.802 115.518 252.894C115.51 251.654 115.452 250.402 115.341 249.175L116.962 249.03C117.078 250.299 117.137 251.596 117.142 252.887C117.147 253.756 117.186 254.628 117.252 255.489L115.635 255.615ZM73.1447 209.413L73.1906 207.789C75.3825 207.855 77.5812 208.077 79.7254 208.458L79.4415 210.057C77.3781 209.694 75.2561 209.477 73.1447 209.413ZM157.526 287.746L157.239 286.147C159.304 285.775 161.346 285.2 163.3 284.451L163.884 285.968C161.831 286.757 159.694 287.353 157.526 287.746ZM114.327 242.921C113.84 240.874 113.193 238.845 112.409 236.887L113.914 236.284C114.726 238.314 115.398 240.419 115.901 242.543L114.327 242.921ZM85.5871 211.615L86.1018 210.073C88.1753 210.761 90.2172 211.608 92.1698 212.593L91.4389 214.047C89.552 213.095 87.5796 212.278 85.5871 211.615ZM109.636 231.195C108.579 229.372 107.378 227.614 106.068 225.961L107.339 224.953C108.697 226.666 109.945 228.493 111.038 230.379L109.636 231.195ZM96.8695 217.292L97.8019 215.965C99.5873 217.218 101.303 218.614 102.893 220.116L101.778 221.297C100.246 219.852 98.5927 218.5 96.8695 217.292ZM169.8 283.041L168.946 281.656C170.729 280.553 172.421 279.281 173.976 277.869L175.067 279.07C173.441 280.556 171.666 281.892 169.8 283.041ZM178.228 273.227C179.499 271.557 180.617 269.755 181.551 267.88L183.001 268.607C182.019 270.571 180.848 272.458 179.514 274.21L178.228 273.227ZM183.834 262.011C184.405 259.998 184.794 257.914 184.981 255.824L186.6 255.969C186.4 258.16 185.997 260.343 185.397 262.457L183.834 262.011ZM263.883 334.646C263.092 333.884 262.314 333.075 261.579 332.254L262.791 331.174C264.192 332.749 265.725 334.225 267.348 335.569L266.31 336.818C265.478 336.129 264.663 335.398 263.883 334.646ZM271.678 340.612L272.51 339.217C274.319 340.298 276.221 341.25 278.174 342.04L277.563 343.549C275.537 342.726 273.561 341.74 271.678 340.612ZM257.593 327.025C256.401 325.186 255.342 323.249 254.447 321.252L255.928 320.588C256.791 322.509 257.811 324.378 258.955 326.141L257.593 327.025ZM283.824 345.549L284.196 343.968C286.239 344.454 288.344 344.782 290.446 344.949L290.316 346.568C288.133 346.391 285.948 346.053 283.824 345.549ZM252.216 315.066C251.636 312.959 251.213 310.792 250.961 308.61L252.577 308.422C252.82 310.52 253.227 312.604 253.786 314.631L252.216 315.066ZM185.129 249.44L185.137 242.983L186.765 242.987L186.756 249.444L185.129 249.44ZM296.874 346.666L296.805 345.044C298.921 344.954 301.038 344.707 303.095 344.312L303.401 345.907C301.26 346.319 299.063 346.571 296.874 346.666ZM250.661 302.074L250.62 295.614L252.244 295.607L252.285 302.067L250.661 302.074ZM185.153 236.526L185.157 233.868C185.132 232.589 185.181 231.282 185.306 229.997L186.921 230.154C186.802 231.378 186.753 232.624 186.776 233.857L186.769 236.534L185.153 236.526ZM250.582 289.158L250.541 282.698L252.165 282.69L252.206 289.15L250.582 289.158ZM309.746 344.206L309.207 342.673C311.193 341.977 313.146 341.128 315.015 340.147L315.774 341.584C313.832 342.601 311.804 343.482 309.746 344.206ZM186.597 223.512C187.239 221.409 188.096 219.355 189.143 217.417L190.571 218.19C189.576 220.036 188.758 221.985 188.145 223.988L186.597 223.512ZM250.507 276.238L250.466 269.777L252.089 269.77L252.131 276.23L250.507 276.238ZM321.342 338.097L320.379 336.786C322.079 335.544 323.699 334.158 325.2 332.678L326.344 333.832C324.787 335.37 323.106 336.804 321.342 338.097ZM192.843 211.943C193.364 211.316 193.911 210.701 194.478 210.112C195.436 209.117 196.468 208.171 197.547 207.301L198.57 208.564C197.548 209.392 196.569 210.291 195.656 211.239C195.115 211.8 194.59 212.385 194.1 212.98L192.843 211.943ZM250.428 263.321L250.391 256.865L252.014 256.857L252.052 263.313L250.428 263.321ZM329.365 327.908C330.627 326.222 331.777 324.427 332.776 322.577L334.204 323.351C333.164 325.274 331.973 327.135 330.662 328.887L329.365 327.908ZM250.349 250.405L250.312 243.948L251.935 243.941L251.977 250.401L250.349 250.405ZM203.825 205.114L203.07 203.673C205.023 202.652 207.087 201.82 209.201 201.21L209.651 202.771C207.64 203.353 205.679 204.141 203.825 205.114ZM250.274 237.484L250.248 233.069C250.243 232.403 250.219 231.733 250.172 231.079L251.794 230.972C251.838 231.66 251.866 232.365 251.872 233.061L251.898 237.477L250.274 237.484ZM335.363 316.799C336.076 314.817 336.647 312.765 337.056 310.701L338.651 311.019C338.224 313.164 337.633 315.293 336.89 317.353L335.363 316.799ZM215.83 201.632L215.696 200.015C216.415 199.955 217.154 199.915 217.881 199.901C219.359 199.873 220.846 199.944 222.301 200.105L222.121 201.72C220.735 201.567 219.321 201.497 217.912 201.524C217.219 201.533 216.519 201.573 215.83 201.632ZM249.136 224.879C248.585 222.86 247.828 220.882 246.885 219.012L248.338 218.284C249.329 220.253 250.126 222.329 250.702 224.455L249.136 224.879ZM228.262 203.041L228.761 201.492C230.853 202.168 232.892 203.057 234.816 204.135L234.023 205.552C232.192 204.533 230.258 203.685 228.262 203.041ZM243.518 213.702C242.231 212.057 240.762 210.522 239.173 209.158L240.234 207.924C241.904 209.352 243.443 210.969 244.801 212.698L243.518 213.702ZM337.826 304.421C337.873 303.443 337.888 302.451 337.87 301.471L337.801 298.037L339.424 297.991L339.493 301.44C339.512 302.459 339.501 303.485 339.447 304.501L337.826 304.421ZM337.671 291.559L337.542 285.105L339.165 285.074L339.295 291.529L337.671 291.559ZM337.461 278.607C337.535 276.4 337.83 274.196 338.33 272.061L339.911 272.433C339.436 274.464 339.158 276.565 339.083 278.665L337.461 278.607ZM340.464 265.801C341.376 263.8 342.492 261.876 343.78 260.086L345.1 261.034C343.872 262.738 342.815 264.57 341.943 266.474L340.464 265.801ZM349.243 256.31L348.129 255.125C349.739 253.616 351.499 252.265 353.365 251.1L354.226 252.478C352.454 253.584 350.774 254.876 349.243 256.31ZM420.608 313.629L421.704 312.428C423.263 313.847 424.935 315.171 426.68 316.356L425.763 317.698C423.956 316.469 422.222 315.1 420.608 313.629ZM416.072 308.877C414.677 307.195 413.395 305.397 412.253 303.538L413.635 302.688C414.733 304.483 415.976 306.214 417.324 307.843L416.072 308.877ZM431.433 321L432.152 319.543C434.046 320.472 436.018 321.273 438.022 321.925L437.519 323.47C435.442 322.793 433.396 321.966 431.433 321ZM409.221 297.709C408.352 295.707 407.619 293.618 407.047 291.511L408.617 291.083C409.172 293.114 409.877 295.13 410.714 297.064L409.221 297.709ZM359.864 249.691L359.292 248.17C361.349 247.392 363.498 246.815 365.67 246.456L365.938 248.06C363.865 248.401 361.823 248.945 359.864 249.691ZM443.891 325.05L444.171 323.448C446.242 323.811 448.36 324.024 450.475 324.091L450.425 325.712C448.233 325.646 446.035 325.424 443.891 325.05ZM405.773 285.074C405.57 283.435 405.45 281.763 405.419 280.102L405.39 278.555L407.013 278.509L407.046 280.075C407.072 281.679 407.187 283.293 407.386 284.875L405.773 285.074ZM372.249 247.596L372.218 245.973L372.478 245.968C374.599 245.928 376.731 246.079 378.802 246.419L378.538 248.021C376.563 247.698 374.538 247.553 372.509 247.591L372.249 247.596ZM456.92 325.651L456.889 324.028L463.344 323.906L463.374 325.529L456.92 325.651ZM404.59 272.32C404.119 270.28 403.442 268.274 402.579 266.368L404.06 265.697C404.971 267.702 405.68 269.806 406.173 271.957L404.59 272.32ZM384.611 249.638L385.18 248.118C387.244 248.887 389.242 249.864 391.114 251.02L390.259 252.4C388.48 251.303 386.579 250.374 384.611 249.638ZM399.424 260.924C398.311 259.379 397.046 257.921 395.669 256.595C395.536 256.467 395.4 256.335 395.264 256.212L396.371 255.023C396.515 255.154 396.652 255.293 396.8 255.428C398.247 256.822 399.57 258.352 400.742 259.976L399.424 260.924ZM469.829 325.408L469.798 323.784L476.253 323.663L476.284 325.286L469.829 325.408ZM482.746 325.164L482.716 323.541L489.17 323.419L489.201 325.042L482.746 325.164ZM495.656 324.92L495.625 323.297L502.08 323.175L502.11 324.799L495.656 324.92ZM508.565 324.677L508.535 323.054L514.989 322.932L515.02 324.555L508.565 324.677Z" fill="white"/>
</svg>
