<svg width="67" height="67" viewBox="0 0 67 67" fill="none" xmlns="http://www.w3.org/2000/svg">
<circle cx="33.5" cy="33.5" r="33.5" fill="#020202"/>
<path d="M29.516 32.32C30.812 30.664 32.492 29.836 34.556 29.836C36.716 29.836 38.456 30.592 39.776 32.104C41.12 33.592 41.792 35.452 41.792 37.684C41.792 40.276 40.976 42.412 39.344 44.092C37.712 45.748 35.6 46.576 33.008 46.576C30.248 46.576 28.124 45.748 26.636 44.092C25.148 42.412 24.404 40.12 24.404 37.216C24.404 34 25.244 30.976 26.924 28.144C28.604 25.288 30.812 23.152 33.548 21.736L40.748 22.384C37.82 23.44 35.444 24.772 33.62 26.38C31.796 27.964 30.356 29.896 29.3 32.176L29.516 32.32ZM33.692 43.192C34.724 43.192 35.6 42.784 36.32 41.968C37.04 41.128 37.4 40.06 37.4 38.764C37.4 37.252 36.992 35.98 36.176 34.948C35.36 33.892 34.292 33.364 32.972 33.364C31.82 33.364 30.896 33.796 30.2 34.66C29.528 35.5 29.192 36.544 29.192 37.792C29.192 39.304 29.6 40.588 30.416 41.644C31.256 42.676 32.348 43.192 33.692 43.192Z" fill="#F7F8FC"/>
</svg>
