<svg width="67" height="67" viewBox="0 0 67 67" fill="none" xmlns="http://www.w3.org/2000/svg">
<circle cx="33.5" cy="33.5" r="33.5" fill="#020202"/>
<path d="M27.752 39.052C28.592 41.74 30.2 43.084 32.576 43.084C33.776 43.084 34.7 42.736 35.348 42.04C35.996 41.32 36.32 40.444 36.32 39.412C36.32 36.508 33.62 34.948 28.22 34.732L34.772 25.768H29.264C27.224 25.768 25.772 26.38 24.908 27.604L25.772 22.024H41.648L33.98 31.996C36.452 32.404 38.276 33.232 39.452 34.48C40.628 35.704 41.216 37.18 41.216 38.908C41.216 41.164 40.376 43 38.696 44.416C37.016 45.832 34.808 46.54 32.072 46.54C29.96 46.54 28.172 46.132 26.708 45.316C25.244 44.476 24.236 43.36 23.684 41.968L27.752 39.052Z" fill="#F7F8FC"/>
</svg>
