<svg width="493" height="162" viewBox="0 0 493 162" fill="none" xmlns="http://www.w3.org/2000/svg">
<path d="M493 161.527V148.765H480.645V91.8092H470.816V72.6883H463.096V39.2673H455.457V0.687622H452.697V39.2673H448.307V31.3837H440.854V39.2673H435.276V72.6883H421.698V43.867H415.654V38.5337H409.087V43.867H400.481V72.6883H386.891V119.303H363.893V107.588H359.025V135.175H352.888V125.894H344.178V117.265H350.419V114.889H344.178V104.362H339.112V63.5586H335.991V42.6443H332.486V63.5586H325.849V104.362H297.598V133.23H280.701V121.481H271.7V90.7146H267.81V121.481H265.656V147.46H251.531V132.986H245.86V119.454H244.462V132.986H236.485V122.051H219.006V116.846H212.834V104.362H209.912V116.846H196.194V132.986H187.926V116.194H165.125V132.986H158.371V125.032H144.956V70.1264H142.196V125.032H135.559V132.986H132.17V101.603H125.614V89.2706H98.947V96.3624H87.8377V132.986H79.5815V95.4424H56.7691V132.986H50.015V108.019H27.2142V132.986H23.8139V74.6562H11.9011V132.986H7.67401V148.765H0V161.527H493Z" fill="#F5F5F5"/>
</svg>
