<svg width="67" height="67" viewBox="0 0 67 67" fill="none" xmlns="http://www.w3.org/2000/svg">
<circle cx="33.5" cy="33.5" r="33.5" fill="#020202"/>
<path d="M36.032 29.008C36.032 27.736 35.66 26.74 34.916 26.02C34.172 25.276 33.236 24.904 32.108 24.904C31.028 24.904 30.188 25.18 29.588 25.732C29.012 26.284 28.724 26.896 28.724 27.568C28.724 28.12 28.904 28.612 29.264 29.044C29.624 29.476 30.152 29.764 30.848 29.908L27.644 33.4C26.708 33.136 25.904 32.584 25.232 31.744C24.584 30.88 24.26 29.848 24.26 28.648C24.26 26.584 25.076 24.88 26.708 23.536C28.364 22.168 30.548 21.484 33.26 21.484C35.564 21.484 37.448 22.12 38.912 23.392C40.376 24.64 41.108 26.32 41.108 28.432C41.108 29.464 40.832 30.556 40.28 31.708C39.752 32.836 38.948 34.108 37.868 35.524C36.788 36.94 34.844 39.184 32.036 42.256H37.976C40.04 42.256 41.444 41.644 42.188 40.42L41.36 46H23.72L29.66 39.448C32.324 36.496 34.052 34.324 34.844 32.932C35.636 31.54 36.032 30.232 36.032 29.008Z" fill="#F7F8FC"/>
</svg>
