<svg width="54" height="56" viewBox="0 0 54 56" fill="none" xmlns="http://www.w3.org/2000/svg">
<path d="M6.46582 46.6611C8.51803 43.1089 11.4689 40.1594 15.0219 38.1087C18.575 36.0581 22.6051 34.9785 26.7075 34.9786C30.8099 34.9786 34.84 36.0582 38.393 38.109C41.946 40.1597 44.8968 43.1093 46.9489 46.6615" stroke="#67CBAB" stroke-width="2.22561" stroke-linecap="round" stroke-linejoin="round"/>
<path d="M38.9395 26.9892C37.9405 29.2627 36.327 31.2124 34.2806 32.6192C32.2341 34.0259 29.8359 34.8339 27.3554 34.9522C24.8749 35.0706 22.4106 34.4946 20.2395 33.2892C18.0684 32.0837 16.2767 30.2964 15.0657 28.1284C13.8547 25.9603 13.2726 23.4975 13.3847 21.0167C13.4968 18.5359 14.2988 16.1356 15.7004 14.0856C17.1019 12.0357 19.0476 10.4173 21.3186 9.41258C23.5896 8.40784 26.0958 8.05653 28.5555 8.39816" stroke="#67CBAB" stroke-width="2.22561" stroke-linecap="round" stroke-linejoin="round"/>
<path d="M37.6828 15.8342C37.6068 16.0748 37.5656 16.4483 37.5593 16.9547H34.9954C35.0334 15.8849 35.1347 15.1473 35.2993 14.7422C35.4639 14.3307 35.888 13.8591 36.5717 13.3273L37.2649 12.786C37.4928 12.6151 37.6764 12.4283 37.8157 12.2258C38.0689 11.8776 38.1955 11.4946 38.1955 11.0768C38.1955 10.5956 38.0531 10.1588 37.7682 9.76632C37.4897 9.36749 36.9769 9.16807 36.2299 9.16807C35.4955 9.16807 34.9732 9.4118 34.663 9.89926C34.3592 10.3867 34.2072 10.8932 34.2072 11.4186H31.4629C31.5389 9.61438 32.1688 8.3356 33.3526 7.58225C34.0996 7.10113 35.0176 6.86056 36.1064 6.86056C37.5372 6.86056 38.7241 7.20242 39.6674 7.88612C40.617 8.56983 41.0918 9.58273 41.0918 10.9248C41.0918 11.7478 40.886 12.441 40.4746 13.0044C40.234 13.3463 39.7719 13.7831 39.0882 14.3149L38.4139 14.8371C38.0468 15.122 37.803 15.4544 37.6828 15.8342ZM37.7587 21H34.9289V18.2557H37.7587V21Z" fill="#67CBAB"/>
</svg>
