<svg width="47" height="39" viewBox="0 0 47 39" fill="none" xmlns="http://www.w3.org/2000/svg">
<path d="M39.8183 0.5H7.3118C3.67852 0.5 0.722656 3.45586 0.722656 7.08914V31.6886C0.722656 35.3219 3.67852 38.2778 7.3118 38.2778H39.8183C43.4516 38.2778 46.4075 35.3219 46.4075 31.6886V7.08914C46.4075 3.45586 43.4516 0.5 39.8183 0.5ZM43.7719 23.3424H34.1077C31.9278 23.3424 30.1542 21.5689 30.1542 19.3889C30.1542 17.2089 31.9277 15.4354 34.1077 15.4354H43.7719V23.3424ZM43.7719 12.7997H34.1077C30.4744 12.7997 27.5186 15.7556 27.5186 19.3889C27.5186 23.0222 30.4744 25.978 34.1077 25.978H43.7719V31.6886C43.7719 33.8686 41.9984 35.6422 39.8183 35.6422H7.3118C5.13187 35.6422 3.35828 33.8687 3.35828 31.6886V7.08914C3.35828 4.90921 5.13178 3.13562 7.3118 3.13562H39.8183C41.9983 3.13562 43.7719 4.90912 43.7719 7.08914V12.7997Z" fill="black"/>
</svg>
